<svg xmlns="http://www.w3.org/2000/svg" viewBox="0 0 128 128">
  <circle cx="64" cy="64" r="64" fill="#1e3a5f"/>
  <circle cx="64" cy="48" r="22" fill="#d4a574"/>
  <path d="M64 76c-24 0-44 12-44 28v24h88V104c0-16-20-28-44-28z" fill="#d4a574"/>
  <path d="M42 40c0-14 10-26 22-26s22 12 22 26c0 2-4 4-4 4l-2-8c-2-4-8-6-16-6s-14 2-16 6l-2 8s-4-2-4-4z" fill="#3b2314"/>
  <circle cx="54" cy="46" r="2.5" fill="#2d1810"/>
  <circle cx="74" cy="46" r="2.5" fill="#2d1810"/>
  <path d="M58 56q6 4 12 0" stroke="#2d1810" stroke-width="1.5" fill="none" stroke-linecap="round"/>
</svg>
