<svg xmlns="http://www.w3.org/2000/svg" viewBox="0 0 128 128">
  <circle cx="64" cy="64" r="64" fill="#6b2fa0"/>
  <circle cx="64" cy="48" r="22" fill="#c68642"/>
  <path d="M64 76c-24 0-44 12-44 28v24h88V104c0-16-20-28-44-28z" fill="#c68642"/>
  <path d="M36 44c0-20 12-32 28-32s28 12 28 32c0 0-6 2-8 0-2-6-8-10-20-10s-18 4-20 10c-2 2-8 0-8 0z" fill="#1a0a00"/>
  <path d="M36 44c-2 8 0 18 2 22" stroke="#1a0a00" stroke-width="3" fill="none"/>
  <path d="M92 44c2 8 0 18-2 22" stroke="#1a0a00" stroke-width="3" fill="none"/>
  <circle cx="54" cy="46" r="2.5" fill="#2d1810"/>
  <circle cx="74" cy="46" r="2.5" fill="#2d1810"/>
  <path d="M58 56q6 4 12 0" stroke="#2d1810" stroke-width="1.5" fill="none" stroke-linecap="round"/>
</svg>
