<svg xmlns="http://www.w3.org/2000/svg" viewBox="0 0 128 128">
  <circle cx="64" cy="64" r="64" fill="#2d5a27"/>
  <circle cx="64" cy="48" r="22" fill="#f1c27d"/>
  <path d="M64 76c-24 0-44 12-44 28v24h88V104c0-16-20-28-44-28z" fill="#f1c27d"/>
  <path d="M44 40c0-14 9-24 20-24s20 10 20 24c0 1-3 2-3 2l-1-6c-2-4-8-6-16-6s-14 2-16 6l-1 6s-3-1-3-2z" fill="#8b4513"/>
  <circle cx="54" cy="46" r="2.5" fill="#2d1810"/>
  <circle cx="74" cy="46" r="2.5" fill="#2d1810"/>
  <path d="M58 56q6 4 12 0" stroke="#2d1810" stroke-width="1.5" fill="none" stroke-linecap="round"/>
  <path d="M50 62q14 6 28 0" stroke="#8b4513" stroke-width="1" fill="none" opacity="0.4"/>
</svg>
