<svg xmlns="http://www.w3.org/2000/svg" viewBox="0 0 800 600" fill="none">
  <defs>
    <style>
      .sector1 { stroke: #ef4444; }
      .sector2 { stroke: #3b82f6; }
      .sector3 { stroke: #eab308; }
      .track { stroke-width: 8; stroke-linecap: round; stroke-linejoin: round; fill: none; }
      .corner-num { font-family: Arial, sans-serif; font-size: 12px; font-weight: bold; fill: #ffffff; }
      .start-finish { stroke: #ffffff; stroke-width: 3; }
    </style>
  </defs>

  <!-- Track Background -->
  <rect width="800" height="600" fill="#18181b"/>

  <!-- Sector 1 - Red -->
  <path class="track sector1" d="M 359.1,414.3 L 334.8,390.4 L 299.0,353.8 L 296.9,351.7 L 296.0,348.8 L 296.2,347.6 L 296.8,346.4 L 298.0,343.4 L 300.0,339.8 L 301.3,335.3 L 302.0,329.6 L 302.1,325.5 L 300.9,317.4 L 299.3,313.3 L 296.8,309.1 L 294.0,305.6 L 287.6,299.3 L 280.0,292.3 L 269.3,282.0 L 256.3,268.1 L 251.1,262.6 L 237.3,245.2 L 230.4,236.0 L 223.3,224.8 L 209.6,200.8 L 206.2,194.1 L 204.2,189.1 L 204.4,186.3 L 205.6,184.3 L 208.5,182.8 L 218.1,181.1 L 236.4,177.4 L 238.5,176.6 L 239.9,175.7 L 240.8,174.4 L 242.1,170.5 L 242.4,166.3 L 241.1,130.6 L 240.7,117.5 L 241.0,116.4 L 244.9,111.9 L 248.4,109.2 L 275.6,89.6 L 281.7,86.1"/>

  <!-- Sector 2 - Blue -->
  <path class="track sector2" d="M 281.7,86.1 L 309.7,74.7 L 320.3,70.8 L 329.9,65.0 L 337.2,60.6 L 340.5,60.0 L 343.1,60.0 L 345.5,61.4 L 348.6,65.2 L 352.5,68.5 L 357.7,72.2 L 364.4,74.7 L 373.0,75.8 L 380.8,76.2 L 387.4,77.2 L 394.8,79.7 L 401.3,82.8 L 408.5,88.2 L 413.4,92.5 L 418.2,98.8 L 422.7,106.6 L 425.3,114.6 L 426.9,120.8 L 427.7,126.0 L 434.3,161.9 L 434.3,166.4 L 433.6,171.8 L 431.8,177.3 L 429.8,182.0 L 426.1,187.3 L 422.7,191.4 L 418.9,196.5 L 417.0,200.2 L 415.4,204.3 L 414.2,209.1 L 406.7,248.6 L 406.1,253.4 L 405.8,259.1 L 405.8,264.4 L 406.3,273.9 L 407.4,281.3 L 409.4,289.8 L 411.9,298.0 L 415.1,305.0 L 418.5,311.6 L 424.1,320.4 L 427.9,325.9 L 435.4,333.9 L 460.3,356.0 L 464.2,359.1 L 467.9,361.1 L 470.6,362.4 L 475.9,364.0 L 480.9,364.4 L 487.1,364.2 L 492.6,364.1 L 498.0,363.9 L 502.6,364.1 L 506.5,365.0 L 510.4,366.9"/>

  <!-- Sector 3 - Yellow -->
  <path class="track sector3" d="M 510.4,366.9 L 513.1,368.5 L 517.8,372.7 L 545.3,396.1 L 555.5,404.7 L 560.5,410.7 L 564.2,415.0 L 568.3,421.4 L 572.4,430.9 L 576.5,442.9 L 587.3,480.4 L 593.8,504.3 L 595.1,510.9 L 595.8,514.3 L 595.8,516.3 L 594.1,517.2 L 589.0,519.2 L 564.6,529.1 L 539.3,539.1 L 537.4,539.7 L 534.3,540.0 L 530.4,539.7 L 526.5,538.1 L 522.5,535.4 L 520.1,533.2 L 517.8,529.7 L 502.9,502.1 L 493.8,487.5 L 492.6,485.5 L 491.4,484.4 L 490.1,483.9 L 487.9,483.8 L 486.4,484.7 L 470.2,503.1 L 467.9,505.3 L 465.5,506.7 L 462.4,508.0 L 459.7,508.6 L 457.3,508.6 L 454.4,508.0 L 450.4,506.6 L 447.4,504.5 L 446.2,503.3 L 359.1,414.3 L 359.1,414.3"/>

  <!-- Start/Finish Line -->
  <circle cx="359.1" cy="414.3" r="8" fill="#ffffff"/>

  <!-- Corner Numbers -->
  
    <!-- Turn 1 -->
    <circle cx="298.0" cy="343.4" r="12" fill="#27272a" stroke="#ef4444" stroke-width="3"/>
    <text x="298.0" y="348.4" text-anchor="middle" class="corner-num">1</text>

    <!-- Turn 2 -->
    <circle cx="280.0" cy="292.3" r="12" fill="#27272a" stroke="#ef4444" stroke-width="3"/>
    <text x="280.0" y="297.3" text-anchor="middle" class="corner-num">2</text>

    <!-- Turn 3 -->
    <circle cx="204.2" cy="189.1" r="12" fill="#27272a" stroke="#ef4444" stroke-width="3"/>
    <text x="204.2" y="194.1" text-anchor="middle" class="corner-num">3</text>

    <!-- Turn 4 -->
    <circle cx="240.8" cy="174.4" r="12" fill="#27272a" stroke="#ef4444" stroke-width="3"/>
    <text x="240.8" y="179.4" text-anchor="middle" class="corner-num">4</text>

    <!-- Turn 5 -->
    <circle cx="329.9" cy="65.0" r="12" fill="#27272a" stroke="#3b82f6" stroke-width="3"/>
    <text x="329.9" y="70.0" text-anchor="middle" class="corner-num">5</text>

    <!-- Turn 6 -->
    <circle cx="394.8" cy="79.7" r="12" fill="#27272a" stroke="#3b82f6" stroke-width="3"/>
    <text x="394.8" y="84.7" text-anchor="middle" class="corner-num">6</text>

    <!-- Turn 7 -->
    <circle cx="433.6" cy="171.8" r="12" fill="#27272a" stroke="#3b82f6" stroke-width="3"/>
    <text x="433.6" y="176.8" text-anchor="middle" class="corner-num">7</text>

    <!-- Turn 8 -->
    <circle cx="406.7" cy="248.6" r="12" fill="#27272a" stroke="#3b82f6" stroke-width="3"/>
    <text x="406.7" y="253.6" text-anchor="middle" class="corner-num">8</text>

    <!-- Turn 9 -->
    <circle cx="418.5" cy="311.6" r="12" fill="#27272a" stroke="#3b82f6" stroke-width="3"/>
    <text x="418.5" y="316.6" text-anchor="middle" class="corner-num">9</text>

    <!-- Turn 10 -->
    <circle cx="492.6" cy="364.1" r="12" fill="#27272a" stroke="#3b82f6" stroke-width="3"/>
    <text x="492.6" y="369.1" text-anchor="middle" class="corner-num">10</text>

    <!-- Turn 11 -->
    <circle cx="572.4" cy="430.9" r="12" fill="#27272a" stroke="#eab308" stroke-width="3"/>
    <text x="572.4" y="435.9" text-anchor="middle" class="corner-num">11</text>

    <!-- Turn 12 -->
    <circle cx="537.4" cy="539.7" r="12" fill="#27272a" stroke="#eab308" stroke-width="3"/>
    <text x="537.4" y="544.7" text-anchor="middle" class="corner-num">12</text>

    <!-- Turn 13 -->
    <circle cx="492.6" cy="485.5" r="12" fill="#27272a" stroke="#eab308" stroke-width="3"/>
    <text x="492.6" y="490.5" text-anchor="middle" class="corner-num">13</text>

    <!-- Turn 14 -->
    <circle cx="459.7" cy="508.6" r="12" fill="#27272a" stroke="#eab308" stroke-width="3"/>
    <text x="459.7" y="513.6" text-anchor="middle" class="corner-num">14</text>

  <!-- Circuit Name -->
  <text x="400" y="560" text-anchor="middle" font-family="Arial, sans-serif" font-size="18" font-weight="bold" fill="#ffffff">Albert Park Circuit</text>
  <text x="400" y="580" text-anchor="middle" font-family="Arial, sans-serif" font-size="12" fill="#71717a">Melbourne • 5.278 km • 14 Turns</text>
</svg>