<svg xmlns="http://www.w3.org/2000/svg" viewBox="0 0 800 600" fill="none">
  <defs>
    <style>
      .sector1 { stroke: #ef4444; }
      .sector2 { stroke: #3b82f6; }
      .sector3 { stroke: #eab308; }
      .track { stroke-width: 10; stroke-linecap: round; stroke-linejoin: round; fill: none; }
    </style>
  </defs>

  <!-- Sector 1 - Red -->
  <path class="track sector1" d="M 362.5,404.8 L 340.3,382.9 L 307.4,349.3 L 305.5,347.4 L 304.7,344.8 L 304.8,343.6 L 305.4,342.5 L 306.5,339.8 L 308.3,336.5 L 309.5,332.3 L 310.2,327.2 L 310.3,323.4 L 309.1,316.0 L 307.7,312.2 L 305.4,308.3 L 302.8,305.2 L 296.9,299.3 L 290.0,293.0 L 280.2,283.5 L 268.3,270.8 L 263.5,265.7 L 250.8,249.7 L 244.5,241.3 L 238.0,231.1 L 225.5,209.1 L 222.4,202.9 L 220.5,198.3 L 220.7,195.7 L 221.8,193.9 L 224.4,192.6 L 233.3,191.0 L 250.1,187.6 L 252.0,186.8 L 253.2,186.0 L 254.0,184.9 L 255.3,181.3 L 255.5,177.4 L 254.4,144.7 L 254.0,132.7 L 254.3,131.7 L 257.8,127.6 L 261.1,125.1 L 286.0,107.1 L 291.5,103.9"/>

  <!-- Sector 2 - Blue -->
  <path class="track sector2" d="M 291.5,103.9 L 317.2,93.4 L 327.0,89.9 L 335.8,84.6 L 342.4,80.6 L 345.4,80.0 L 347.8,80.0 L 350.0,81.3 L 352.9,84.7 L 356.4,87.8 L 361.2,91.2 L 367.3,93.5 L 375.3,94.5 L 382.4,94.8 L 388.5,95.7 L 395.2,98.1 L 401.2,100.9 L 407.8,105.8 L 412.3,109.8 L 416.7,115.6 L 420.8,122.8 L 423.2,130.1 L 424.6,135.7 L 425.4,140.5 L 431.4,173.4 L 431.4,177.5 L 430.8,182.5 L 429.2,187.5 L 427.3,191.8 L 423.9,196.7 L 420.8,200.5 L 417.3,205.1 L 415.6,208.5 L 414.1,212.3 L 413.0,216.6 L 406.2,252.9 L 405.6,257.3 L 405.3,262.5 L 405.3,267.3 L 405.8,276.1 L 406.8,282.9 L 408.6,290.6 L 410.9,298.1 L 413.9,304.6 L 417.0,310.6 L 422.1,318.7 L 425.6,323.8 L 432.5,331.1 L 455.3,351.4 L 458.9,354.2 L 462.3,356.0 L 464.8,357.2 L 469.6,358.7 L 474.2,359.0 L 479.8,358.8 L 484.9,358.8 L 489.8,358.6 L 494.0,358.7 L 497.6,359.6 L 501.2,361.4"/>

  <!-- Sector 3 - Yellow -->
  <path class="track sector3" d="M 501.2,361.4 L 503.6,362.7 L 508.0,366.6 L 533.2,388.1 L 542.6,395.9 L 547.2,401.4 L 550.6,405.4 L 554.3,411.3 L 558.0,420.0 L 561.8,431.0 L 571.7,465.4 L 577.7,487.3 L 578.8,493.4 L 579.5,496.4 L 579.5,498.3 L 577.9,499.1 L 573.3,500.9 L 550.8,510.0 L 527.7,519.2 L 525.9,519.7 L 523.1,520.0 L 519.5,519.8 L 515.9,518.3 L 512.3,515.8 L 510.1,513.8 L 508.0,510.6 L 494.3,485.3 L 486.0,471.9 L 484.9,470.1 L 483.8,469.0 L 482.6,468.6 L 480.6,468.5 L 479.2,469.3 L 464.3,486.1 L 462.3,488.2 L 460.0,489.5 L 457.2,490.6 L 454.8,491.2 L 452.5,491.2 L 449.9,490.7 L 446.2,489.4 L 443.5,487.4 L 442.4,486.4 L 362.5,404.8 L 362.5,404.8"/>

  <!-- Start/Finish Marker -->
  <circle cx="362.5" cy="404.8" r="5" fill="#ffffff"/>
</svg>
