<svg xmlns="http://www.w3.org/2000/svg" viewBox="0 0 800 600" fill="none">
  <defs>
    <style>
      .sector1 { stroke: #ef4444; }
      .sector2 { stroke: #3b82f6; }
      .sector3 { stroke: #eab308; }
      .track { stroke-width: 10; stroke-linecap: round; stroke-linejoin: round; fill: none; }
      .corner-num { font-family: Arial, sans-serif; font-size: 10px; font-weight: bold; fill: #ffffff; }
      .start-finish { stroke: #ffffff; stroke-width: 3; }
    </style>
  </defs>

  <!-- Track Background -->
  <rect width="800" height="600" fill="#18181b"/>

  <!-- Sector 1 - Red -->
  <path class="track sector1" d="M 362.5,404.8 L 340.3,382.9 L 307.4,349.3 L 305.5,347.4 L 304.7,344.8 L 304.8,343.6 L 305.4,342.5 L 306.5,339.8 L 308.3,336.5 L 309.5,332.3 L 310.2,327.2 L 310.3,323.4 L 309.1,316.0 L 307.7,312.2 L 305.4,308.3 L 302.8,305.2 L 296.9,299.3 L 290.0,293.0 L 280.2,283.5 L 268.3,270.8 L 263.5,265.7 L 250.8,249.7 L 244.5,241.3 L 238.0,231.1 L 225.5,209.1 L 222.4,202.9 L 220.5,198.3 L 220.7,195.7 L 221.8,193.9 L 224.4,192.6 L 233.3,191.0 L 250.1,187.6 L 252.0,186.8 L 253.2,186.0 L 254.0,184.9 L 255.3,181.3 L 255.5,177.4 L 254.4,144.7 L 254.0,132.7 L 254.3,131.7 L 257.8,127.6 L 261.1,125.1 L 286.0,107.1 L 291.5,103.9"/>

  <!-- Sector 2 - Blue -->
  <path class="track sector2" d="M 291.5,103.9 L 317.2,93.4 L 327.0,89.9 L 335.8,84.6 L 342.4,80.6 L 345.4,80.0 L 347.8,80.0 L 350.0,81.3 L 352.9,84.7 L 356.4,87.8 L 361.2,91.2 L 367.3,93.5 L 375.3,94.5 L 382.4,94.8 L 388.5,95.7 L 395.2,98.1 L 401.2,100.9 L 407.8,105.8 L 412.3,109.8 L 416.7,115.6 L 420.8,122.8 L 423.2,130.1 L 424.6,135.7 L 425.4,140.5 L 431.4,173.4 L 431.4,177.5 L 430.8,182.5 L 429.2,187.5 L 427.3,191.8 L 423.9,196.7 L 420.8,200.5 L 417.3,205.1 L 415.6,208.5 L 414.1,212.3 L 413.0,216.6 L 406.2,252.9 L 405.6,257.3 L 405.3,262.5 L 405.3,267.3 L 405.8,276.1 L 406.8,282.9 L 408.6,290.6 L 410.9,298.1 L 413.9,304.6 L 417.0,310.6 L 422.1,318.7 L 425.6,323.8 L 432.5,331.1 L 455.3,351.4 L 458.9,354.2 L 462.3,356.0 L 464.8,357.2 L 469.6,358.7 L 474.2,359.0 L 479.8,358.8 L 484.9,358.8 L 489.8,358.6 L 494.0,358.7 L 497.6,359.6 L 501.2,361.4"/>

  <!-- Sector 3 - Yellow -->
  <path class="track sector3" d="M 501.2,361.4 L 503.6,362.7 L 508.0,366.6 L 533.2,388.1 L 542.6,395.9 L 547.2,401.4 L 550.6,405.4 L 554.3,411.3 L 558.0,420.0 L 561.8,431.0 L 571.7,465.4 L 577.7,487.3 L 578.8,493.4 L 579.5,496.4 L 579.5,498.3 L 577.9,499.1 L 573.3,500.9 L 550.8,510.0 L 527.7,519.2 L 525.9,519.7 L 523.1,520.0 L 519.5,519.8 L 515.9,518.3 L 512.3,515.8 L 510.1,513.8 L 508.0,510.6 L 494.3,485.3 L 486.0,471.9 L 484.9,470.1 L 483.8,469.0 L 482.6,468.6 L 480.6,468.5 L 479.2,469.3 L 464.3,486.1 L 462.3,488.2 L 460.0,489.5 L 457.2,490.6 L 454.8,491.2 L 452.5,491.2 L 449.9,490.7 L 446.2,489.4 L 443.5,487.4 L 442.4,486.4 L 362.5,404.8 L 362.5,404.8"/>

  <!-- Start/Finish Line -->
  <circle cx="362.5" cy="404.8" r="6" fill="#ffffff"/>

  <!-- Corner Numbers -->
  
    <!-- Turn 1 -->
    <circle cx="306.5" cy="339.8" r="10" fill="#27272a" stroke="#ef4444" stroke-width="2"/>
    <text x="306.5" y="343.8" text-anchor="middle" class="corner-num">1</text>

    <!-- Turn 2 -->
    <circle cx="290.0" cy="293.0" r="10" fill="#27272a" stroke="#ef4444" stroke-width="2"/>
    <text x="290.0" y="297.0" text-anchor="middle" class="corner-num">2</text>

    <!-- Turn 3 -->
    <circle cx="220.5" cy="198.3" r="10" fill="#27272a" stroke="#ef4444" stroke-width="2"/>
    <text x="220.5" y="202.3" text-anchor="middle" class="corner-num">3</text>

    <!-- Turn 4 -->
    <circle cx="254.0" cy="184.9" r="10" fill="#27272a" stroke="#ef4444" stroke-width="2"/>
    <text x="254.0" y="188.9" text-anchor="middle" class="corner-num">4</text>

    <!-- Turn 5 -->
    <circle cx="335.8" cy="84.6" r="10" fill="#27272a" stroke="#3b82f6" stroke-width="2"/>
    <text x="335.8" y="88.6" text-anchor="middle" class="corner-num">5</text>

    <!-- Turn 6 -->
    <circle cx="395.2" cy="98.1" r="10" fill="#27272a" stroke="#3b82f6" stroke-width="2"/>
    <text x="395.2" y="102.1" text-anchor="middle" class="corner-num">6</text>

    <!-- Turn 7 -->
    <circle cx="430.8" cy="182.5" r="10" fill="#27272a" stroke="#3b82f6" stroke-width="2"/>
    <text x="430.8" y="186.5" text-anchor="middle" class="corner-num">7</text>

    <!-- Turn 8 -->
    <circle cx="406.2" cy="252.9" r="10" fill="#27272a" stroke="#3b82f6" stroke-width="2"/>
    <text x="406.2" y="256.9" text-anchor="middle" class="corner-num">8</text>

    <!-- Turn 9 -->
    <circle cx="417.0" cy="310.6" r="10" fill="#27272a" stroke="#3b82f6" stroke-width="2"/>
    <text x="417.0" y="314.6" text-anchor="middle" class="corner-num">9</text>

    <!-- Turn 10 -->
    <circle cx="484.9" cy="358.8" r="10" fill="#27272a" stroke="#3b82f6" stroke-width="2"/>
    <text x="484.9" y="362.8" text-anchor="middle" class="corner-num">10</text>

    <!-- Turn 11 -->
    <circle cx="558.0" cy="420.0" r="10" fill="#27272a" stroke="#eab308" stroke-width="2"/>
    <text x="558.0" y="424.0" text-anchor="middle" class="corner-num">11</text>

    <!-- Turn 12 -->
    <circle cx="525.9" cy="519.7" r="10" fill="#27272a" stroke="#eab308" stroke-width="2"/>
    <text x="525.9" y="523.7" text-anchor="middle" class="corner-num">12</text>

    <!-- Turn 13 -->
    <circle cx="484.9" cy="470.1" r="10" fill="#27272a" stroke="#eab308" stroke-width="2"/>
    <text x="484.9" y="474.1" text-anchor="middle" class="corner-num">13</text>

    <!-- Turn 14 -->
    <circle cx="454.8" cy="491.2" r="10" fill="#27272a" stroke="#eab308" stroke-width="2"/>
    <text x="454.8" y="495.2" text-anchor="middle" class="corner-num">14</text>

  <!-- Legend -->
  <rect x="30" y="30" width="120" height="90" rx="6" fill="#27272a" stroke="#3f3f46"/>
  <line x1="45" y1="50" x2="75" y2="50" stroke="#ef4444" stroke-width="4"/>
  <text x="85" y="54" font-family="Arial, sans-serif" font-size="9px" fill="#ffffff">Sector 1</text>
  <line x1="45" y1="70" x2="75" y2="70" stroke="#3b82f6" stroke-width="4"/>
  <text x="85" y="74" font-family="Arial, sans-serif" font-size="9px" fill="#ffffff">Sector 2</text>
  <line x1="45" y1="90" x2="75" y2="90" stroke="#eab308" stroke-width="4"/>
  <text x="85" y="94" font-family="Arial, sans-serif" font-size="9px" fill="#ffffff">Sector 3</text>

  <!-- Circuit Name -->
  <text x="400" y="560" text-anchor="middle" font-family="Arial, sans-serif" font-size="18" font-weight="bold" fill="#ffffff">Albert Park Circuit</text>
  <text x="400" y="580" text-anchor="middle" font-family="Arial, sans-serif" font-size="12" fill="#71717a">Melbourne • 5.278 km • 14 Turns</text>
</svg>