<svg xmlns="http://www.w3.org/2000/svg" viewBox="0 0 800 600" fill="none">
  <defs>
    <style>
      .sector1 { stroke: #ef4444; }
      .sector2 { stroke: #3b82f6; }
      .sector3 { stroke: #eab308; }
      .track { stroke-width: 10; stroke-linecap: round; stroke-linejoin: round; fill: none; }
      .corner-num { font-family: Arial, sans-serif; font-size: 10px; font-weight: bold; fill: #ffffff; }
      .start-finish { stroke: #ffffff; stroke-width: 3; }
    </style>
  </defs>

  <!-- Track Background -->
  <rect width="800" height="600" fill="#18181b"/>

  <!-- Sector 1 - Red -->
  <path class="track sector1" d="M 261.1,288.6 L 264.6,165.1 L 267.8,84.2 L 269.4,80.6 L 272.6,80.0 L 276.1,80.9 L 278.7,82.9 L 295.3,99.8 L 299.9,101.5 L 304.9,101.1 L 333.9,91.7 L 340.9,90.9 L 347.2,91.3 L 537.6,128.2 L 544.1,130.1 L 547.6,133.7 L 548.4,138.4 L 547.8,142.8 L 545.6,147.8 L 541.5,152.8 L 536.8,156.8 L 530.2,161.8 L 507.3,178.9 L 488.8,198.1 L 484.3,202.5 L 480.6,208.8"/>

  <!-- Sector 2 - Blue -->
  <path class="track sector2" d="M 480.6,208.8 L 472.4,227.5 L 469.6,231.5 L 465.2,234.4 L 460.9,236.7 L 454.0,237.5 L 433.2,234.0 L 427.5,234.2 L 421.7,235.4 L 416.9,237.8 L 411.1,243.2 L 368.8,296.8 L 364.7,300.5 L 358.8,301.4 L 355.2,298.6 L 353.9,292.8 L 354.1,284.0 L 364.2,223.3 L 370.1,185.2 L 371.0,177.7 L 369.9,170.8 L 368.4,165.6 L 365.3,160.5 L 348.0,145.5 L 345.6,144.3 L 343.0,145.1 L 341.5,147.8 L 335.2,194.7 L 333.5,225.9 L 330.5,282.2 L 328.3,341.0 L 326.1,394.6 L 327.0,403.4 L 330.5,408.6 L 335.9,411.5 L 343.5,413.0 L 351.3,412.4 L 361.0,410.5 L 371.0,405.7 L 379.4,399.8 L 387.6,391.3 L 392.7,383.1 L 402.0,358.9"/>

  <!-- Sector 3 - Yellow -->
  <path class="track sector3" d="M 402.0,358.9 L 407.2,348.7 L 412.1,342.7 L 418.7,337.3 L 426.5,332.5 L 437.3,329.8 L 449.2,329.6 L 457.6,331.6 L 468.9,337.0 L 498.6,351.7 L 504.7,356.2 L 509.9,361.3 L 512.5,366.1 L 515.7,371.5 L 515.7,376.3 L 513.1,381.3 L 507.9,386.3 L 500.8,391.7 L 275.8,517.7 L 271.7,519.8 L 265.2,520.0 L 262.4,517.3 L 252.4,496.2 L 251.6,487.7 L 251.8,471.8 L 254.6,384.4 L 261.1,288.6 L 261.1,288.6"/>

  <!-- Start/Finish Line -->
  <circle cx="261.1" cy="288.6" r="6" fill="#ffffff"/>

  <!-- Corner Numbers -->
  
    <!-- Turn 1 -->
    <circle cx="272.6" cy="80.0" r="10" fill="#27272a" stroke="#ef4444" stroke-width="2"/>
    <text x="272.6" y="84.0" text-anchor="middle" class="corner-num">1</text>

    <!-- Turn 2 -->
    <circle cx="304.9" cy="101.1" r="10" fill="#27272a" stroke="#ef4444" stroke-width="2"/>
    <text x="304.9" y="105.1" text-anchor="middle" class="corner-num">2</text>

    <!-- Turn 3 -->
    <circle cx="347.2" cy="91.3" r="10" fill="#27272a" stroke="#ef4444" stroke-width="2"/>
    <text x="347.2" y="95.3" text-anchor="middle" class="corner-num">3</text>

    <!-- Turn 4 -->
    <circle cx="545.6" cy="147.8" r="10" fill="#27272a" stroke="#ef4444" stroke-width="2"/>
    <text x="545.6" y="151.8" text-anchor="middle" class="corner-num">4</text>

    <!-- Turn 5 -->
    <circle cx="469.6" cy="231.5" r="10" fill="#27272a" stroke="#3b82f6" stroke-width="2"/>
    <text x="469.6" y="235.5" text-anchor="middle" class="corner-num">5</text>

    <!-- Turn 6 -->
    <circle cx="427.5" cy="234.2" r="10" fill="#27272a" stroke="#3b82f6" stroke-width="2"/>
    <text x="427.5" y="238.2" text-anchor="middle" class="corner-num">6</text>

    <!-- Turn 7 -->
    <circle cx="364.7" cy="300.5" r="10" fill="#27272a" stroke="#3b82f6" stroke-width="2"/>
    <text x="364.7" y="304.5" text-anchor="middle" class="corner-num">7</text>

    <!-- Turn 8 -->
    <circle cx="368.4" cy="165.6" r="10" fill="#27272a" stroke="#3b82f6" stroke-width="2"/>
    <text x="368.4" y="169.6" text-anchor="middle" class="corner-num">8</text>

    <!-- Turn 9 -->
    <circle cx="341.5" cy="147.8" r="10" fill="#27272a" stroke="#3b82f6" stroke-width="2"/>
    <text x="341.5" y="151.8" text-anchor="middle" class="corner-num">9</text>

    <!-- Turn 10 -->
    <circle cx="343.5" cy="413.0" r="10" fill="#27272a" stroke="#3b82f6" stroke-width="2"/>
    <text x="343.5" y="417.0" text-anchor="middle" class="corner-num">10</text>

    <!-- Turn 11 -->
    <circle cx="392.7" cy="383.1" r="10" fill="#27272a" stroke="#3b82f6" stroke-width="2"/>
    <text x="392.7" y="387.1" text-anchor="middle" class="corner-num">11</text>

    <!-- Turn 12 -->
    <circle cx="437.3" cy="329.8" r="10" fill="#27272a" stroke="#eab308" stroke-width="2"/>
    <text x="437.3" y="333.8" text-anchor="middle" class="corner-num">12</text>

    <!-- Turn 13 -->
    <circle cx="504.7" cy="356.2" r="10" fill="#27272a" stroke="#eab308" stroke-width="2"/>
    <text x="504.7" y="360.2" text-anchor="middle" class="corner-num">13</text>

    <!-- Turn 14 -->
    <circle cx="515.7" cy="376.3" r="10" fill="#27272a" stroke="#eab308" stroke-width="2"/>
    <text x="515.7" y="380.3" text-anchor="middle" class="corner-num">14</text>

    <!-- Turn 15 -->
    <circle cx="271.7" cy="519.8" r="10" fill="#27272a" stroke="#eab308" stroke-width="2"/>
    <text x="271.7" y="523.8" text-anchor="middle" class="corner-num">15</text>

  <!-- Legend -->
  <rect x="30" y="30" width="120" height="90" rx="6" fill="#27272a" stroke="#3f3f46"/>
  <line x1="45" y1="50" x2="75" y2="50" stroke="#ef4444" stroke-width="4"/>
  <text x="85" y="54" font-family="Arial, sans-serif" font-size="9px" fill="#ffffff">Sector 1</text>
  <line x1="45" y1="70" x2="75" y2="70" stroke="#3b82f6" stroke-width="4"/>
  <text x="85" y="74" font-family="Arial, sans-serif" font-size="9px" fill="#ffffff">Sector 2</text>
  <line x1="45" y1="90" x2="75" y2="90" stroke="#eab308" stroke-width="4"/>
  <text x="85" y="94" font-family="Arial, sans-serif" font-size="9px" fill="#ffffff">Sector 3</text>

  <!-- Circuit Name -->
  <text x="400" y="560" text-anchor="middle" font-family="Arial, sans-serif" font-size="18" font-weight="bold" fill="#ffffff">Bahrain International Circuit</text>
  <text x="400" y="580" text-anchor="middle" font-family="Arial, sans-serif" font-size="12" fill="#71717a">Sakhir • 5.412 km • 15 Turns</text>
</svg>