<svg xmlns="http://www.w3.org/2000/svg" viewBox="0 0 800 600" fill="none">
  <defs>
    <style>
      .sector1 { stroke: #ef4444; }
      .sector2 { stroke: #3b82f6; }
      .sector3 { stroke: #eab308; }
      .track { stroke-width: 8; stroke-linecap: round; stroke-linejoin: round; fill: none; }
      .corner-num { font-family: Arial, sans-serif; font-size: 12px; font-weight: bold; fill: #ffffff; }
      .start-finish { stroke: #ffffff; stroke-width: 3; }
    </style>
  </defs>

  <!-- Track Background -->
  <rect width="800" height="600" fill="#18181b"/>

  <!-- Sector 1 - Red -->
  <path class="track sector1" d="M 248.5,287.5 L 252.2,152.8 L 255.8,64.6 L 257.5,60.6 L 261.0,60.0 L 264.8,61.0 L 267.6,63.1 L 285.8,81.6 L 290.8,83.4 L 296.2,83.0 L 327.9,72.8 L 335.5,71.9 L 342.3,72.4 L 550.1,112.6 L 557.2,114.7 L 561.0,118.6 L 561.9,123.7 L 561.2,128.5 L 558.9,133.9 L 554.4,139.4 L 549.2,143.8 L 542.1,149.3 L 517.0,167.9 L 496.9,188.8 L 492.0,193.7 L 488.0,200.5"/>

  <!-- Sector 2 - Blue -->
  <path class="track sector2" d="M 488.0,200.5 L 479.0,220.9 L 475.9,225.3 L 471.2,228.4 L 466.4,230.9 L 458.9,231.8 L 436.2,228.0 L 430.0,228.2 L 423.7,229.5 L 418.4,232.2 L 412.1,238.1 L 366.0,296.5 L 361.5,300.5 L 355.1,301.5 L 351.1,298.4 L 349.7,292.1 L 349.9,282.5 L 361.0,216.3 L 367.4,174.8 L 368.3,166.6 L 367.1,159.1 L 365.5,153.4 L 362.2,147.8 L 343.3,131.4 L 340.7,130.2 L 337.8,131.0 L 336.2,133.9 L 329.3,185.1 L 327.5,219.2 L 324.1,280.6 L 321.8,344.7 L 319.4,403.2 L 320.3,412.8 L 324.1,418.5 L 330.0,421.6 L 338.3,423.3 L 346.8,422.7 L 357.4,420.6 L 368.3,415.3 L 377.5,408.8 L 386.5,399.6 L 392.0,390.6 L 402.1,364.2"/>

  <!-- Sector 3 - Yellow -->
  <path class="track sector3" d="M 402.1,364.2 L 407.8,353.1 L 413.2,346.6 L 420.3,340.7 L 428.9,335.5 L 440.7,332.6 L 453.7,332.3 L 462.9,334.5 L 475.2,340.3 L 507.6,356.4 L 514.2,361.3 L 519.9,366.9 L 522.7,372.2 L 526.2,378.0 L 526.2,383.3 L 523.4,388.7 L 517.7,394.2 L 509.9,400.0 L 264.5,537.5 L 260.1,539.8 L 253.0,540.0 L 249.9,537.1 L 239.0,514.0 L 238.1,504.8 L 238.3,487.4 L 241.4,392.1 L 248.5,287.5 L 248.5,287.5"/>

  <!-- Start/Finish Line -->
  <circle cx="248.5" cy="287.5" r="8" fill="#ffffff"/>

  <!-- Corner Numbers -->
  
    <!-- Turn 1 -->
    <circle cx="261.0" cy="60.0" r="12" fill="#27272a" stroke="#ef4444" stroke-width="3"/>
    <text x="261.0" y="65.0" text-anchor="middle" class="corner-num">1</text>

    <!-- Turn 2 -->
    <circle cx="296.2" cy="83.0" r="12" fill="#27272a" stroke="#ef4444" stroke-width="3"/>
    <text x="296.2" y="88.0" text-anchor="middle" class="corner-num">2</text>

    <!-- Turn 3 -->
    <circle cx="342.3" cy="72.4" r="12" fill="#27272a" stroke="#ef4444" stroke-width="3"/>
    <text x="342.3" y="77.4" text-anchor="middle" class="corner-num">3</text>

    <!-- Turn 4 -->
    <circle cx="558.9" cy="133.9" r="12" fill="#27272a" stroke="#ef4444" stroke-width="3"/>
    <text x="558.9" y="138.9" text-anchor="middle" class="corner-num">4</text>

    <!-- Turn 5 -->
    <circle cx="475.9" cy="225.3" r="12" fill="#27272a" stroke="#3b82f6" stroke-width="3"/>
    <text x="475.9" y="230.3" text-anchor="middle" class="corner-num">5</text>

    <!-- Turn 6 -->
    <circle cx="430.0" cy="228.2" r="12" fill="#27272a" stroke="#3b82f6" stroke-width="3"/>
    <text x="430.0" y="233.2" text-anchor="middle" class="corner-num">6</text>

    <!-- Turn 7 -->
    <circle cx="361.5" cy="300.5" r="12" fill="#27272a" stroke="#3b82f6" stroke-width="3"/>
    <text x="361.5" y="305.5" text-anchor="middle" class="corner-num">7</text>

    <!-- Turn 8 -->
    <circle cx="365.5" cy="153.4" r="12" fill="#27272a" stroke="#3b82f6" stroke-width="3"/>
    <text x="365.5" y="158.4" text-anchor="middle" class="corner-num">8</text>

    <!-- Turn 9 -->
    <circle cx="336.2" cy="133.9" r="12" fill="#27272a" stroke="#3b82f6" stroke-width="3"/>
    <text x="336.2" y="138.9" text-anchor="middle" class="corner-num">9</text>

    <!-- Turn 10 -->
    <circle cx="338.3" cy="423.3" r="12" fill="#27272a" stroke="#3b82f6" stroke-width="3"/>
    <text x="338.3" y="428.3" text-anchor="middle" class="corner-num">10</text>

    <!-- Turn 11 -->
    <circle cx="392.0" cy="390.6" r="12" fill="#27272a" stroke="#3b82f6" stroke-width="3"/>
    <text x="392.0" y="395.6" text-anchor="middle" class="corner-num">11</text>

    <!-- Turn 12 -->
    <circle cx="440.7" cy="332.6" r="12" fill="#27272a" stroke="#eab308" stroke-width="3"/>
    <text x="440.7" y="337.6" text-anchor="middle" class="corner-num">12</text>

    <!-- Turn 13 -->
    <circle cx="514.2" cy="361.3" r="12" fill="#27272a" stroke="#eab308" stroke-width="3"/>
    <text x="514.2" y="366.3" text-anchor="middle" class="corner-num">13</text>

    <!-- Turn 14 -->
    <circle cx="526.2" cy="383.3" r="12" fill="#27272a" stroke="#eab308" stroke-width="3"/>
    <text x="526.2" y="388.3" text-anchor="middle" class="corner-num">14</text>

    <!-- Turn 15 -->
    <circle cx="260.1" cy="539.8" r="12" fill="#27272a" stroke="#eab308" stroke-width="3"/>
    <text x="260.1" y="544.8" text-anchor="middle" class="corner-num">15</text>

  <!-- Circuit Name -->
  <text x="400" y="560" text-anchor="middle" font-family="Arial, sans-serif" font-size="18" font-weight="bold" fill="#ffffff">Bahrain International Circuit</text>
  <text x="400" y="580" text-anchor="middle" font-family="Arial, sans-serif" font-size="12" fill="#71717a">Sakhir • 5.412 km • 15 Turns</text>
</svg>