<svg xmlns="http://www.w3.org/2000/svg" viewBox="0 0 800 600" fill="none">
  <defs>
    <style>
      .sector1 { stroke: #ef4444; }
      .sector2 { stroke: #3b82f6; }
      .sector3 { stroke: #eab308; }
      .track { stroke-width: 10; stroke-linecap: round; stroke-linejoin: round; fill: none; }
      .corner-num { font-family: Arial, sans-serif; font-size: 10px; font-weight: bold; fill: #ffffff; }
      .start-finish { stroke: #ffffff; stroke-width: 3; }
    </style>
  </defs>

  <!-- Track Background -->
  <rect width="800" height="600" fill="#18181b"/>

  <!-- Sector 1 - Red -->
  <path class="track sector1" d="M 652.8,192.7 L 696.9,173.8 L 699.2,171.9 L 700.7,169.2 L 701.0,166.6 L 700.3,162.8 L 691.3,139.6 L 676.2,110.2 L 663.7,81.8 L 661.7,80.5 L 659.0,80.0 L 616.9,96.9 L 565.3,116.8 L 494.9,148.5 L 434.3,176.2 L 430.3,180.4 L 430.3,186.1 L 450.2,237.5 L 450.3,241.5 L 447.2,245.0 L 412.7,261.3 L 393.2,272.1 L 366.9,288.9 L 365.3,291.1 L 365.9,294.2 L 370.2,303.8 L 370.1,306.6 L 367.9,308.7 L 357.9,317.5"/>

  <!-- Sector 2 - Blue -->
  <path class="track sector2" d="M 357.9,317.5 L 298.0,363.9 L 287.9,373.1 L 283.6,376.0 L 279.3,375.8 L 275.8,372.0 L 259.9,325.3 L 258.0,323.3 L 255.1,322.7 L 251.3,322.7 L 245.5,319.2 L 242.0,318.3 L 238.4,318.4 L 234.8,318.7 L 231.0,317.2 L 229.1,314.3 L 225.7,303.2 L 224.1,301.2 L 221.8,299.7 L 218.2,299.5 L 193.0,308.3 L 152.7,328.0 L 126.1,343.9 L 120.9,348.2 L 116.7,353.7 L 112.9,361.6 L 99.9,405.9 L 99.0,411.9 L 103.2,473.2 L 104.5,477.0"/>

  <!-- Sector 3 - Yellow -->
  <path class="track sector3" d="M 104.5,477.0 L 107.8,480.8 L 162.3,509.4 L 177.6,516.2 L 185.9,519.3 L 190.6,520.0 L 196.0,519.1 L 199.9,516.5 L 202.4,513.7 L 218.8,483.3 L 222.6,476.3 L 227.0,470.6 L 273.9,427.9 L 277.7,422.5 L 279.6,417.3 L 283.7,389.2 L 285.5,383.7 L 289.0,378.4 L 293.1,374.8 L 360.6,322.4 L 369.7,316.4 L 379.9,310.9 L 389.5,306.3 L 419.9,293.6 L 446.9,281.0 L 512.9,252.7 L 539.6,240.6 L 608.1,211.4 L 652.8,192.7 L 652.8,192.7"/>

  <!-- Start/Finish Line -->
  <circle cx="652.8" cy="192.7" r="6" fill="#ffffff"/>

  <!-- Corner Numbers -->
  
    <!-- Turn 1 -->
    <circle cx="700.7" cy="169.2" r="10" fill="#27272a" stroke="#ef4444" stroke-width="2"/>
    <text x="700.7" y="173.2" text-anchor="middle" class="corner-num">1</text>

    <!-- Turn 2 -->
    <circle cx="691.3" cy="139.6" r="10" fill="#27272a" stroke="#ef4444" stroke-width="2"/>
    <text x="691.3" y="143.6" text-anchor="middle" class="corner-num">2</text>

    <!-- Turn 3 -->
    <circle cx="616.9" cy="96.9" r="10" fill="#27272a" stroke="#ef4444" stroke-width="2"/>
    <text x="616.9" y="100.9" text-anchor="middle" class="corner-num">3</text>

    <!-- Turn 4 -->
    <circle cx="430.3" cy="180.4" r="10" fill="#27272a" stroke="#ef4444" stroke-width="2"/>
    <text x="430.3" y="184.4" text-anchor="middle" class="corner-num">4</text>

    <!-- Turn 5 -->
    <circle cx="450.3" cy="241.5" r="10" fill="#27272a" stroke="#ef4444" stroke-width="2"/>
    <text x="450.3" y="245.5" text-anchor="middle" class="corner-num">5</text>

    <!-- Turn 6 -->
    <circle cx="366.9" cy="288.9" r="10" fill="#27272a" stroke="#ef4444" stroke-width="2"/>
    <text x="366.9" y="292.9" text-anchor="middle" class="corner-num">6</text>

    <!-- Turn 7 -->
    <circle cx="370.2" cy="303.8" r="10" fill="#27272a" stroke="#ef4444" stroke-width="2"/>
    <text x="370.2" y="307.8" text-anchor="middle" class="corner-num">7</text>

    <!-- Turn 8 -->
    <circle cx="279.3" cy="375.8" r="10" fill="#27272a" stroke="#3b82f6" stroke-width="2"/>
    <text x="279.3" y="379.8" text-anchor="middle" class="corner-num">8</text>

    <!-- Turn 9 -->
    <circle cx="251.3" cy="322.7" r="10" fill="#27272a" stroke="#3b82f6" stroke-width="2"/>
    <text x="251.3" y="326.7" text-anchor="middle" class="corner-num">9</text>

    <!-- Turn 10 -->
    <circle cx="231.0" cy="317.2" r="10" fill="#27272a" stroke="#3b82f6" stroke-width="2"/>
    <text x="231.0" y="321.2" text-anchor="middle" class="corner-num">10</text>

    <!-- Turn 11 -->
    <circle cx="224.1" cy="301.2" r="10" fill="#27272a" stroke="#3b82f6" stroke-width="2"/>
    <text x="224.1" y="305.2" text-anchor="middle" class="corner-num">11</text>

    <!-- Turn 12 -->
    <circle cx="152.7" cy="328.0" r="10" fill="#27272a" stroke="#3b82f6" stroke-width="2"/>
    <text x="152.7" y="332.0" text-anchor="middle" class="corner-num">12</text>

    <!-- Turn 13 -->
    <circle cx="116.7" cy="353.7" r="10" fill="#27272a" stroke="#3b82f6" stroke-width="2"/>
    <text x="116.7" y="357.7" text-anchor="middle" class="corner-num">13</text>

    <!-- Turn 14 -->
    <circle cx="103.2" cy="473.2" r="10" fill="#27272a" stroke="#3b82f6" stroke-width="2"/>
    <text x="103.2" y="477.2" text-anchor="middle" class="corner-num">14</text>

    <!-- Turn 15 -->
    <circle cx="185.9" cy="519.3" r="10" fill="#27272a" stroke="#eab308" stroke-width="2"/>
    <text x="185.9" y="523.3" text-anchor="middle" class="corner-num">15</text>

    <!-- Turn 16 -->
    <circle cx="218.8" cy="483.3" r="10" fill="#27272a" stroke="#eab308" stroke-width="2"/>
    <text x="218.8" y="487.3" text-anchor="middle" class="corner-num">16</text>

    <!-- Turn 17 -->
    <circle cx="279.6" cy="417.3" r="10" fill="#27272a" stroke="#eab308" stroke-width="2"/>
    <text x="279.6" y="421.3" text-anchor="middle" class="corner-num">17</text>

    <!-- Turn 18 -->
    <circle cx="289.0" cy="378.4" r="10" fill="#27272a" stroke="#eab308" stroke-width="2"/>
    <text x="289.0" y="382.4" text-anchor="middle" class="corner-num">18</text>

    <!-- Turn 19 -->
    <circle cx="379.9" cy="310.9" r="10" fill="#27272a" stroke="#eab308" stroke-width="2"/>
    <text x="379.9" y="314.9" text-anchor="middle" class="corner-num">19</text>

    <!-- Turn 20 -->
    <circle cx="512.9" cy="252.7" r="10" fill="#27272a" stroke="#eab308" stroke-width="2"/>
    <text x="512.9" y="256.7" text-anchor="middle" class="corner-num">20</text>

  <!-- Legend -->
  <rect x="30" y="30" width="120" height="90" rx="6" fill="#27272a" stroke="#3f3f46"/>
  <line x1="45" y1="50" x2="75" y2="50" stroke="#ef4444" stroke-width="4"/>
  <text x="85" y="54" font-family="Arial, sans-serif" font-size="9px" fill="#ffffff">Sector 1</text>
  <line x1="45" y1="70" x2="75" y2="70" stroke="#3b82f6" stroke-width="4"/>
  <text x="85" y="74" font-family="Arial, sans-serif" font-size="9px" fill="#ffffff">Sector 2</text>
  <line x1="45" y1="90" x2="75" y2="90" stroke="#eab308" stroke-width="4"/>
  <text x="85" y="94" font-family="Arial, sans-serif" font-size="9px" fill="#ffffff">Sector 3</text>

  <!-- Circuit Name -->
  <text x="400" y="560" text-anchor="middle" font-family="Arial, sans-serif" font-size="18" font-weight="bold" fill="#ffffff">Baku City Circuit</text>
  <text x="400" y="580" text-anchor="middle" font-family="Arial, sans-serif" font-size="12" fill="#71717a">Baku • 6.003 km • 20 Turns</text>
</svg>