<svg xmlns="http://www.w3.org/2000/svg" viewBox="0 0 800 600" fill="none">
  <defs>
    <style>
      .sector1 { stroke: #ef4444; }
      .sector2 { stroke: #3b82f6; }
      .sector3 { stroke: #eab308; }
      .track { stroke-width: 8; stroke-linecap: round; stroke-linejoin: round; fill: none; }
      .corner-num { font-family: Arial, sans-serif; font-size: 12px; font-weight: bold; fill: #ffffff; }
      .start-finish { stroke: #ffffff; stroke-width: 3; }
    </style>
  </defs>

  <!-- Track Background -->
  <rect width="800" height="600" fill="#18181b"/>

  <!-- Sector 1 - Red -->
  <path class="track sector1" d="M 675.8,182.9 L 723.9,162.3 L 726.5,160.3 L 728.1,157.3 L 728.4,154.4 L 727.6,150.3 L 717.8,125.0 L 701.3,93.0 L 687.7,62.0 L 685.4,60.5 L 682.6,60.0 L 636.6,78.4 L 580.3,100.2 L 503.6,134.7 L 437.4,165.0 L 433.1,169.5 L 433.1,175.7 L 454.7,231.8 L 454.9,236.2 L 451.5,240.0 L 413.9,257.8 L 392.6,269.5 L 363.9,287.9 L 362.1,290.3 L 362.8,293.7 L 367.5,304.2 L 367.4,307.2 L 365.0,309.5 L 354.1,319.1"/>

  <!-- Sector 2 - Blue -->
  <path class="track sector2" d="M 354.1,319.1 L 288.7,369.7 L 277.7,379.7 L 273.0,382.9 L 268.4,382.7 L 264.5,378.5 L 247.2,327.6 L 245.1,325.5 L 241.9,324.8 L 237.8,324.8 L 231.5,320.9 L 227.7,320.0 L 223.7,320.1 L 219.8,320.4 L 215.6,318.8 L 213.6,315.6 L 209.9,303.5 L 208.1,301.3 L 205.5,299.7 L 201.7,299.5 L 174.1,309.0 L 130.2,330.5 L 101.2,347.9 L 95.5,352.6 L 91.0,358.6 L 86.8,367.2 L 72.6,415.6 L 71.6,422.1 L 76.3,488.9 L 77.7,493.1"/>

  <!-- Sector 3 - Yellow -->
  <path class="track sector3" d="M 77.7,493.1 L 81.2,497.3 L 140.7,528.5 L 157.3,535.8 L 166.5,539.2 L 171.6,540.0 L 177.5,539.0 L 181.7,536.2 L 184.4,533.1 L 202.4,500.0 L 206.5,492.3 L 211.3,486.1 L 262.4,439.5 L 266.6,433.7 L 268.7,428.0 L 273.2,397.3 L 275.1,391.3 L 278.9,385.6 L 283.4,381.6 L 357.0,324.5 L 366.9,317.9 L 378.1,311.9 L 388.5,306.9 L 421.7,293.0 L 451.2,279.2 L 523.1,248.4 L 552.3,235.2 L 627.0,203.4 L 675.8,182.9 L 675.8,182.9"/>

  <!-- Start/Finish Line -->
  <circle cx="675.8" cy="182.9" r="8" fill="#ffffff"/>

  <!-- Corner Numbers -->
  
    <!-- Turn 1 -->
    <circle cx="728.1" cy="157.3" r="12" fill="#27272a" stroke="#ef4444" stroke-width="3"/>
    <text x="728.1" y="162.3" text-anchor="middle" class="corner-num">1</text>

    <!-- Turn 2 -->
    <circle cx="717.8" cy="125.0" r="12" fill="#27272a" stroke="#ef4444" stroke-width="3"/>
    <text x="717.8" y="130.0" text-anchor="middle" class="corner-num">2</text>

    <!-- Turn 3 -->
    <circle cx="636.6" cy="78.4" r="12" fill="#27272a" stroke="#ef4444" stroke-width="3"/>
    <text x="636.6" y="83.4" text-anchor="middle" class="corner-num">3</text>

    <!-- Turn 4 -->
    <circle cx="433.1" cy="169.5" r="12" fill="#27272a" stroke="#ef4444" stroke-width="3"/>
    <text x="433.1" y="174.5" text-anchor="middle" class="corner-num">4</text>

    <!-- Turn 5 -->
    <circle cx="454.9" cy="236.2" r="12" fill="#27272a" stroke="#ef4444" stroke-width="3"/>
    <text x="454.9" y="241.2" text-anchor="middle" class="corner-num">5</text>

    <!-- Turn 6 -->
    <circle cx="363.9" cy="287.9" r="12" fill="#27272a" stroke="#ef4444" stroke-width="3"/>
    <text x="363.9" y="292.9" text-anchor="middle" class="corner-num">6</text>

    <!-- Turn 7 -->
    <circle cx="367.5" cy="304.2" r="12" fill="#27272a" stroke="#ef4444" stroke-width="3"/>
    <text x="367.5" y="309.2" text-anchor="middle" class="corner-num">7</text>

    <!-- Turn 8 -->
    <circle cx="268.4" cy="382.7" r="12" fill="#27272a" stroke="#3b82f6" stroke-width="3"/>
    <text x="268.4" y="387.7" text-anchor="middle" class="corner-num">8</text>

    <!-- Turn 9 -->
    <circle cx="237.8" cy="324.8" r="12" fill="#27272a" stroke="#3b82f6" stroke-width="3"/>
    <text x="237.8" y="329.8" text-anchor="middle" class="corner-num">9</text>

    <!-- Turn 10 -->
    <circle cx="215.6" cy="318.8" r="12" fill="#27272a" stroke="#3b82f6" stroke-width="3"/>
    <text x="215.6" y="323.8" text-anchor="middle" class="corner-num">10</text>

    <!-- Turn 11 -->
    <circle cx="208.1" cy="301.3" r="12" fill="#27272a" stroke="#3b82f6" stroke-width="3"/>
    <text x="208.1" y="306.3" text-anchor="middle" class="corner-num">11</text>

    <!-- Turn 12 -->
    <circle cx="130.2" cy="330.5" r="12" fill="#27272a" stroke="#3b82f6" stroke-width="3"/>
    <text x="130.2" y="335.5" text-anchor="middle" class="corner-num">12</text>

    <!-- Turn 13 -->
    <circle cx="91.0" cy="358.6" r="12" fill="#27272a" stroke="#3b82f6" stroke-width="3"/>
    <text x="91.0" y="363.6" text-anchor="middle" class="corner-num">13</text>

    <!-- Turn 14 -->
    <circle cx="76.3" cy="488.9" r="12" fill="#27272a" stroke="#3b82f6" stroke-width="3"/>
    <text x="76.3" y="493.9" text-anchor="middle" class="corner-num">14</text>

    <!-- Turn 15 -->
    <circle cx="166.5" cy="539.2" r="12" fill="#27272a" stroke="#eab308" stroke-width="3"/>
    <text x="166.5" y="544.2" text-anchor="middle" class="corner-num">15</text>

    <!-- Turn 16 -->
    <circle cx="202.4" cy="500.0" r="12" fill="#27272a" stroke="#eab308" stroke-width="3"/>
    <text x="202.4" y="505.0" text-anchor="middle" class="corner-num">16</text>

    <!-- Turn 17 -->
    <circle cx="268.7" cy="428.0" r="12" fill="#27272a" stroke="#eab308" stroke-width="3"/>
    <text x="268.7" y="433.0" text-anchor="middle" class="corner-num">17</text>

    <!-- Turn 18 -->
    <circle cx="278.9" cy="385.6" r="12" fill="#27272a" stroke="#eab308" stroke-width="3"/>
    <text x="278.9" y="390.6" text-anchor="middle" class="corner-num">18</text>

    <!-- Turn 19 -->
    <circle cx="378.1" cy="311.9" r="12" fill="#27272a" stroke="#eab308" stroke-width="3"/>
    <text x="378.1" y="316.9" text-anchor="middle" class="corner-num">19</text>

    <!-- Turn 20 -->
    <circle cx="523.1" cy="248.4" r="12" fill="#27272a" stroke="#eab308" stroke-width="3"/>
    <text x="523.1" y="253.4" text-anchor="middle" class="corner-num">20</text>

  <!-- Circuit Name -->
  <text x="400" y="560" text-anchor="middle" font-family="Arial, sans-serif" font-size="18" font-weight="bold" fill="#ffffff">Baku City Circuit</text>
  <text x="400" y="580" text-anchor="middle" font-family="Arial, sans-serif" font-size="12" fill="#71717a">Baku • 6.003 km • 20 Turns</text>
</svg>