<svg xmlns="http://www.w3.org/2000/svg" viewBox="0 0 800 600" fill="none">
  <defs>
    <style>
      .sector1 { stroke: #ef4444; }
      .sector2 { stroke: #3b82f6; }
      .sector3 { stroke: #eab308; }
      .track { stroke-width: 8; stroke-linecap: round; stroke-linejoin: round; fill: none; }
      .corner-num { font-family: Arial, sans-serif; font-size: 12px; font-weight: bold; fill: #ffffff; }
      .start-finish { stroke: #ffffff; stroke-width: 3; }
    </style>
  </defs>

  <!-- Track Background -->
  <rect width="800" height="600" fill="#18181b"/>

  <!-- Sector 1 - Red -->
  <path class="track sector1" d="M 512.8,274.4 L 462.1,355.0 L 434.0,400.2 L 404.8,446.3 L 374.2,495.4 L 363.8,512.0 L 360.5,515.7 L 357.5,518.4 L 354.9,519.6 L 350.3,520.1 L 346.0,519.9 L 342.9,519.1 L 339.9,517.4 L 329.4,510.7 L 326.0,509.2 L 320.0,507.9 L 315.2,507.9 L 308.3,509.4 L 304.4,511.8 L 275.2,533.7 L 271.1,535.7 L 266.9,537.3 L 261.2,539.2 L 255.9,540.0 L 251.2,540.0 L 246.2,539.7 L 240.5,539.0 L 235.1,537.2 L 228.5,534.0 L 225.1,531.5 L 221.9,528.7 L 219.1,526.2 L 211.6,516.4 L 208.0,508.8 L 205.3,500.3 L 204.6,494.4 L 204.0,487.3 L 204.1,479.8 L 205.2,471.9 L 208.4,459.2 L 211.9,449.0 L 215.6,441.0 L 219.6,434.7 L 270.4,354.0 L 273.5,351.1 L 277.7,348.6 L 285.6,346.6 L 290.7,347.2 L 294.7,348.5 L 299.4,351.1"/>

  <!-- Sector 2 - Blue -->
  <path class="track sector2" d="M 299.4,351.1 L 304.7,355.4 L 308.1,359.2 L 312.2,367.4 L 313.7,373.6 L 314.1,383.2 L 313.7,388.9 L 312.3,395.3 L 309.6,401.7 L 304.5,411.4 L 267.6,469.1 L 266.6,473.0 L 266.5,476.4 L 267.4,480.5 L 269.1,483.3 L 271.0,485.7 L 273.9,487.7 L 277.5,489.0 L 280.4,489.5 L 285.1,488.6 L 287.2,487.7 L 342.6,462.6 L 350.3,457.9 L 358.0,452.0 L 365.7,444.7 L 371.1,438.1 L 393.2,403.5 L 395.5,398.3 L 396.5,394.8 L 395.6,389.1 L 392.8,384.0 L 388.5,379.9 L 378.4,374.0 L 372.9,369.5 L 369.9,366.1 L 366.9,361.8 L 365.2,358.8 L 351.4,325.7 L 335.6,288.5 L 334.4,282.1 L 334.4,275.5 L 335.0,270.5 L 336.0,265.6 L 339.1,260.0 L 341.5,256.2 L 346.6,250.6 L 351.7,246.6 L 528.1,156.1 L 534.3,152.6 L 537.5,149.2 L 539.1,145.9 L 539.5,141.9"/>

  <!-- Sector 3 - Yellow -->
  <path class="track sector3" d="M 539.5,141.9 L 538.2,137.4 L 536.2,133.9 L 533.2,131.0 L 528.8,127.6 L 521.8,124.6 L 517.4,123.5 L 511.4,122.7 L 506.2,122.5 L 501.0,122.8 L 495.4,124.2 L 487.5,128.1 L 482.1,131.2 L 474.5,137.8 L 467.0,143.2 L 461.9,145.5 L 453.9,146.1 L 449.1,145.1 L 443.5,142.1 L 438.9,138.3 L 436.1,133.9 L 433.8,128.9 L 433.1,123.4 L 432.9,120.8 L 434.4,113.5 L 437.2,108.3 L 441.6,104.1 L 483.6,69.5 L 487.8,66.0 L 493.0,62.9 L 497.8,61.2 L 504.4,60.2 L 510.9,60.0 L 516.9,61.2 L 521.8,63.3 L 531.7,69.6 L 542.8,76.8 L 552.4,83.4 L 558.6,87.0 L 579.5,100.3 L 584.5,103.8 L 587.7,107.2 L 590.6,111.1 L 592.9,115.6 L 594.9,121.6 L 596.0,127.2 L 596.0,135.2 L 594.9,142.4 L 589.1,153.9 L 512.8,274.4 L 512.8,274.4"/>

  <!-- Start/Finish Line -->
  <circle cx="512.8" cy="274.4" r="8" fill="#ffffff"/>

  <!-- Corner Numbers -->
  
    <!-- Turn 1 -->
    <circle cx="357.5" cy="518.4" r="12" fill="#27272a" stroke="#ef4444" stroke-width="3"/>
    <text x="357.5" y="523.4" text-anchor="middle" class="corner-num">1</text>

    <!-- Turn 2 -->
    <circle cx="326.0" cy="509.2" r="12" fill="#27272a" stroke="#ef4444" stroke-width="3"/>
    <text x="326.0" y="514.2" text-anchor="middle" class="corner-num">2</text>

    <!-- Turn 3 -->
    <circle cx="240.5" cy="539.0" r="12" fill="#27272a" stroke="#ef4444" stroke-width="3"/>
    <text x="240.5" y="544.0" text-anchor="middle" class="corner-num">3</text>

    <!-- Turn 4 -->
    <circle cx="204.6" cy="494.4" r="12" fill="#27272a" stroke="#ef4444" stroke-width="3"/>
    <text x="204.6" y="499.4" text-anchor="middle" class="corner-num">4</text>

    <!-- Turn 5 -->
    <circle cx="290.7" cy="347.2" r="12" fill="#27272a" stroke="#ef4444" stroke-width="3"/>
    <text x="290.7" y="352.2" text-anchor="middle" class="corner-num">5</text>

    <!-- Turn 6 -->
    <circle cx="267.6" cy="469.1" r="12" fill="#27272a" stroke="#3b82f6" stroke-width="3"/>
    <text x="267.6" y="474.1" text-anchor="middle" class="corner-num">6</text>

    <!-- Turn 7 -->
    <circle cx="350.3" cy="457.9" r="12" fill="#27272a" stroke="#3b82f6" stroke-width="3"/>
    <text x="350.3" y="462.9" text-anchor="middle" class="corner-num">7</text>

    <!-- Turn 8 -->
    <circle cx="388.5" cy="379.9" r="12" fill="#27272a" stroke="#3b82f6" stroke-width="3"/>
    <text x="388.5" y="384.9" text-anchor="middle" class="corner-num">8</text>

    <!-- Turn 9 -->
    <circle cx="339.1" cy="260.0" r="12" fill="#27272a" stroke="#3b82f6" stroke-width="3"/>
    <text x="339.1" y="265.0" text-anchor="middle" class="corner-num">9</text>

    <!-- Turn 10 - La Caixa -->
    <circle cx="511.4" cy="122.7" r="12" fill="#27272a" stroke="#eab308" stroke-width="3"/>
    <text x="511.4" y="127.7" text-anchor="middle" class="corner-num">10</text>

    <!-- Turn 11 -->
    <circle cx="453.9" cy="146.1" r="12" fill="#27272a" stroke="#eab308" stroke-width="3"/>
    <text x="453.9" y="151.1" text-anchor="middle" class="corner-num">11</text>

    <!-- Turn 12 -->
    <circle cx="437.2" cy="108.3" r="12" fill="#27272a" stroke="#eab308" stroke-width="3"/>
    <text x="437.2" y="113.3" text-anchor="middle" class="corner-num">12</text>

    <!-- Turn 13 -->
    <circle cx="521.8" cy="63.3" r="12" fill="#27272a" stroke="#eab308" stroke-width="3"/>
    <text x="521.8" y="68.3" text-anchor="middle" class="corner-num">13</text>

    <!-- Turn 14 -->
    <circle cx="592.9" cy="115.6" r="12" fill="#27272a" stroke="#eab308" stroke-width="3"/>
    <text x="592.9" y="120.6" text-anchor="middle" class="corner-num">14</text>

  <!-- Circuit Name -->
  <text x="400" y="560" text-anchor="middle" font-family="Arial, sans-serif" font-size="18" font-weight="bold" fill="#ffffff">Circuit de Barcelona-Catalunya</text>
  <text x="400" y="580" text-anchor="middle" font-family="Arial, sans-serif" font-size="12" fill="#71717a">Montmelo • 4.657 km • 14 Turns</text>
</svg>