<svg xmlns="http://www.w3.org/2000/svg" viewBox="0 0 800 600" fill="none">
  <defs>
    <style>
      .sector1 { stroke: #ef4444; }
      .sector2 { stroke: #3b82f6; }
      .sector3 { stroke: #eab308; }
      .track { stroke-width: 10; stroke-linecap: round; stroke-linejoin: round; fill: none; }
      .corner-num { font-family: Arial, sans-serif; font-size: 10px; font-weight: bold; fill: #ffffff; }
      .start-finish { stroke: #ffffff; stroke-width: 3; }
    </style>
  </defs>

  <!-- Track Background -->
  <rect width="800" height="600" fill="#18181b"/>

  <!-- Sector 1 - Red -->
  <path class="track sector1" d="M 503.4,276.5 L 456.9,350.4 L 431.1,391.9 L 404.4,434.1 L 376.4,479.1 L 366.8,494.3 L 363.7,497.8 L 361.0,500.2 L 358.6,501.3 L 354.4,501.8 L 350.5,501.6 L 347.7,500.8 L 344.9,499.3 L 335.2,493.1 L 332.2,491.8 L 326.7,490.6 L 322.3,490.6 L 316.0,491.9 L 312.4,494.2 L 285.6,514.2 L 281.8,516.1 L 278.0,517.5 L 272.8,519.3 L 267.9,520.0 L 263.6,520.0 L 259.0,519.8 L 253.8,519.1 L 248.8,517.5 L 242.8,514.5 L 239.6,512.2 L 236.8,509.7 L 234.2,507.3 L 227.3,498.3 L 224.0,491.4 L 221.5,483.6 L 220.9,478.2 L 220.3,471.7 L 220.5,464.8 L 221.5,457.5 L 224.4,446.0 L 227.6,436.6 L 231.0,429.3 L 234.7,423.5 L 281.2,349.5 L 284.0,346.8 L 287.9,344.5 L 295.2,342.8 L 299.8,343.3 L 303.5,344.4 L 307.8,346.8"/>

  <!-- Sector 2 - Blue -->
  <path class="track sector2" d="M 307.8,346.8 L 312.7,350.7 L 315.8,354.3 L 319.5,361.8 L 320.9,367.4 L 321.2,376.2 L 320.9,381.5 L 319.6,387.4 L 317.1,393.2 L 312.4,402.1 L 278.6,455.0 L 277.7,458.6 L 277.6,461.7 L 278.5,465.4 L 280.0,468.0 L 281.7,470.2 L 284.4,472.1 L 287.8,473.2 L 290.4,473.7 L 294.6,472.9 L 296.6,472.1 L 347.4,449.1 L 354.5,444.7 L 361.5,439.3 L 368.5,432.7 L 373.5,426.6 L 393.7,394.9 L 395.9,390.1 L 396.8,386.9 L 396.0,381.6 L 393.4,377.0 L 389.4,373.3 L 380.2,367.8 L 375.2,363.7 L 372.4,360.6 L 369.7,356.6 L 368.1,353.9 L 355.4,323.6 L 341.0,289.4 L 339.8,283.6 L 339.8,277.6 L 340.4,273.0 L 341.4,268.5 L 344.2,263.3 L 346.4,259.8 L 351.1,254.7 L 355.7,251.1 L 517.4,168.1 L 523.1,164.9 L 526.1,161.8 L 527.5,158.7 L 527.9,155.0"/>

  <!-- Sector 3 - Yellow -->
  <path class="track sector3" d="M 527.9,155.0 L 526.7,151.0 L 524.8,147.7 L 522.1,145.1 L 518.1,142.0 L 511.6,139.2 L 507.6,138.2 L 502.1,137.5 L 497.4,137.3 L 492.6,137.6 L 487.4,138.9 L 480.2,142.4 L 475.2,145.3 L 468.3,151.3 L 461.5,156.3 L 456.7,158.4 L 449.4,158.9 L 445.0,158.0 L 439.8,155.3 L 435.7,151.8 L 433.1,147.7 L 431.0,143.1 L 430.3,138.1 L 430.1,135.7 L 431.6,129.1 L 434.1,124.3 L 438.1,120.4 L 476.7,88.7 L 480.5,85.5 L 485.3,82.7 L 489.6,81.1 L 495.7,80.2 L 501.7,80.0 L 507.2,81.1 L 511.7,83.0 L 520.8,88.8 L 530.9,95.4 L 539.7,101.4 L 545.4,104.7 L 564.5,116.9 L 569.1,120.1 L 572.1,123.2 L 574.7,126.8 L 576.9,130.9 L 578.6,136.4 L 579.6,141.6 L 579.7,148.9 L 578.6,155.5 L 573.3,166.1 L 503.4,276.5 L 503.4,276.5"/>

  <!-- Start/Finish Line -->
  <circle cx="503.4" cy="276.5" r="6" fill="#ffffff"/>

  <!-- Corner Numbers -->
  
    <!-- Turn 1 -->
    <circle cx="361.0" cy="500.2" r="10" fill="#27272a" stroke="#ef4444" stroke-width="2"/>
    <text x="361.0" y="504.2" text-anchor="middle" class="corner-num">1</text>

    <!-- Turn 2 -->
    <circle cx="332.2" cy="491.8" r="10" fill="#27272a" stroke="#ef4444" stroke-width="2"/>
    <text x="332.2" y="495.8" text-anchor="middle" class="corner-num">2</text>

    <!-- Turn 3 -->
    <circle cx="253.8" cy="519.1" r="10" fill="#27272a" stroke="#ef4444" stroke-width="2"/>
    <text x="253.8" y="523.1" text-anchor="middle" class="corner-num">3</text>

    <!-- Turn 4 -->
    <circle cx="220.9" cy="478.2" r="10" fill="#27272a" stroke="#ef4444" stroke-width="2"/>
    <text x="220.9" y="482.2" text-anchor="middle" class="corner-num">4</text>

    <!-- Turn 5 -->
    <circle cx="299.8" cy="343.3" r="10" fill="#27272a" stroke="#ef4444" stroke-width="2"/>
    <text x="299.8" y="347.3" text-anchor="middle" class="corner-num">5</text>

    <!-- Turn 6 -->
    <circle cx="278.6" cy="455.0" r="10" fill="#27272a" stroke="#3b82f6" stroke-width="2"/>
    <text x="278.6" y="459.0" text-anchor="middle" class="corner-num">6</text>

    <!-- Turn 7 -->
    <circle cx="354.5" cy="444.7" r="10" fill="#27272a" stroke="#3b82f6" stroke-width="2"/>
    <text x="354.5" y="448.7" text-anchor="middle" class="corner-num">7</text>

    <!-- Turn 8 -->
    <circle cx="389.4" cy="373.3" r="10" fill="#27272a" stroke="#3b82f6" stroke-width="2"/>
    <text x="389.4" y="377.3" text-anchor="middle" class="corner-num">8</text>

    <!-- Turn 9 -->
    <circle cx="344.2" cy="263.3" r="10" fill="#27272a" stroke="#3b82f6" stroke-width="2"/>
    <text x="344.2" y="267.3" text-anchor="middle" class="corner-num">9</text>

    <!-- Turn 10 -->
    <circle cx="502.1" cy="137.5" r="10" fill="#27272a" stroke="#eab308" stroke-width="2"/>
    <text x="502.1" y="141.5" text-anchor="middle" class="corner-num">10</text>

    <!-- Turn 11 -->
    <circle cx="449.4" cy="158.9" r="10" fill="#27272a" stroke="#eab308" stroke-width="2"/>
    <text x="449.4" y="162.9" text-anchor="middle" class="corner-num">11</text>

    <!-- Turn 12 -->
    <circle cx="434.1" cy="124.3" r="10" fill="#27272a" stroke="#eab308" stroke-width="2"/>
    <text x="434.1" y="128.3" text-anchor="middle" class="corner-num">12</text>

    <!-- Turn 13 -->
    <circle cx="511.7" cy="83.0" r="10" fill="#27272a" stroke="#eab308" stroke-width="2"/>
    <text x="511.7" y="87.0" text-anchor="middle" class="corner-num">13</text>

    <!-- Turn 14 -->
    <circle cx="576.9" cy="130.9" r="10" fill="#27272a" stroke="#eab308" stroke-width="2"/>
    <text x="576.9" y="134.9" text-anchor="middle" class="corner-num">14</text>

  <!-- Legend -->
  <rect x="30" y="30" width="120" height="90" rx="6" fill="#27272a" stroke="#3f3f46"/>
  <line x1="45" y1="50" x2="75" y2="50" stroke="#ef4444" stroke-width="4"/>
  <text x="85" y="54" font-family="Arial, sans-serif" font-size="9px" fill="#ffffff">Sector 1</text>
  <line x1="45" y1="70" x2="75" y2="70" stroke="#3b82f6" stroke-width="4"/>
  <text x="85" y="74" font-family="Arial, sans-serif" font-size="9px" fill="#ffffff">Sector 2</text>
  <line x1="45" y1="90" x2="75" y2="90" stroke="#eab308" stroke-width="4"/>
  <text x="85" y="94" font-family="Arial, sans-serif" font-size="9px" fill="#ffffff">Sector 3</text>

  <!-- Circuit Name -->
  <text x="400" y="560" text-anchor="middle" font-family="Arial, sans-serif" font-size="18" font-weight="bold" fill="#ffffff">Circuit de Barcelona-Catalunya</text>
  <text x="400" y="580" text-anchor="middle" font-family="Arial, sans-serif" font-size="12" fill="#71717a">Montmelo • 4.657 km • 14 Turns</text>
</svg>