<svg xmlns="http://www.w3.org/2000/svg" viewBox="0 0 800 600" fill="none">
  <defs>
    <style>
      .sector1 { stroke: #ef4444; }
      .sector2 { stroke: #3b82f6; }
      .sector3 { stroke: #eab308; }
      .track { stroke-width: 8; stroke-linecap: round; stroke-linejoin: round; fill: none; }
      .corner-num { font-family: Arial, sans-serif; font-size: 12px; font-weight: bold; fill: #ffffff; }
      .start-finish { stroke: #ffffff; stroke-width: 3; }
    </style>
  </defs>

  <!-- Track Background -->
  <rect width="800" height="600" fill="#18181b"/>

  <!-- Sector 1 - Red -->
  <path class="track sector1" d="M 196.4,423.4 L 257.8,472.3 L 274.8,484.2 L 287.9,492.0 L 292.7,494.3 L 294.6,494.9 L 296.8,494.5 L 298.7,493.4 L 299.9,491.4 L 300.6,489.6 L 300.4,487.5 L 287.0,449.1 L 281.1,431.4 L 280.0,425.9 L 279.8,421.2 L 280.0,415.8 L 281.1,410.7 L 283.0,404.3 L 286.0,398.8 L 289.1,393.9 L 293.6,388.8 L 298.4,385.3 L 305.0,381.2 L 340.8,359.0 L 355.4,349.8 L 358.6,346.7 L 361.3,343.0 L 363.7,339.9 L 365.6,335.6 L 367.1,331.9 L 370.9,321.2 L 373.4,317.7 L 376.6,313.6 L 380.8,310.8 L 384.2,309.1 L 392.7,305.8 L 399.3,302.4 L 403.1,299.5 L 405.4,296.6 L 407.5,292.7 L 408.4,288.0 L 409.6,280.0 L 410.3,274.9 L 411.5,269.3 L 413.3,265.2 L 415.4,261.3 L 418.1,257.4 L 421.1,253.9 L 425.5,250.0 L 430.6,246.3 L 436.1,243.2 L 442.0,240.6"/>

  <!-- Sector 2 - Blue -->
  <path class="track sector2" d="M 442.0,240.6 L 447.1,239.4 L 451.4,239.3 L 454.8,239.4 L 460.3,241.0 L 495.4,257.2 L 498.8,258.5 L 502.4,258.5 L 505.1,257.4 L 512.2,253.1 L 520.4,246.5 L 526.3,240.4 L 532.3,232.4 L 536.7,227.2 L 540.7,224.0 L 545.2,222.1 L 548.6,221.3 L 553.4,221.3 L 559.0,222.9 L 563.2,225.2 L 566.6,228.6 L 568.5,230.9 L 570.4,233.8 L 572.1,237.1 L 574.6,239.8 L 577.6,241.0 L 580.5,241.0 L 643.9,227.0 L 647.9,225.6 L 650.4,224.2 L 652.3,222.5 L 689.4,177.5 L 722.0,138.0 L 734.5,122.1 L 739.6,112.7 L 740.0,110.4 L 739.4,108.2 L 737.9,107.0 L 736.0,105.7 L 733.9,105.1 L 731.6,105.3 L 728.4,106.1 L 660.6,127.7 L 613.4,141.0 L 561.3,153.6 L 499.0,166.1 L 460.1,172.6 L 424.0,177.8 L 317.9,189.5 L 306.1,191.7 L 304.6,192.6 L 303.9,194.6 L 304.2,196.2 L 305.7,198.3 L 312.6,206.1 L 336.8,239.3 L 347.4,256.4 L 348.0,259.0 L 347.4,262.6 L 345.9,265.2 L 343.1,267.2 L 340.8,267.7 L 336.4,268.3 L 316.7,266.7 L 314.8,265.8 L 313.1,264.2 L 311.4,262.3 L 309.9,259.5 L 305.9,248.6"/>

  <!-- Sector 3 - Yellow -->
  <path class="track sector3" d="M 305.9,248.6 L 304.2,244.3 L 301.4,240.4 L 288.5,227.2 L 286.6,225.6 L 284.3,224.6 L 281.9,224.2 L 269.2,223.1 L 266.7,223.3 L 265.2,224.2 L 263.7,226.0 L 263.1,228.3 L 263.9,231.1 L 288.5,273.4 L 298.4,292.1 L 299.3,297.2 L 299.1,302.2 L 298.3,306.3 L 297.2,310.4 L 294.4,318.0 L 290.6,326.4 L 288.1,329.7 L 283.8,332.8 L 279.0,335.2 L 258.9,344.4 L 254.8,345.3 L 250.8,345.6 L 243.4,345.0 L 236.4,344.0 L 229.6,341.8 L 222.2,338.9 L 215.6,335.0 L 211.2,331.7 L 208.2,326.6 L 185.2,294.2 L 167.2,271.6 L 164.8,269.3 L 162.1,268.1 L 158.5,267.4 L 155.3,267.5 L 150.8,268.7 L 145.6,270.5 L 141.1,272.2 L 66.8,304.8 L 62.5,307.7 L 60.9,310.4 L 60.0,313.4 L 60.9,315.5 L 62.5,317.5 L 64.7,319.4 L 103.6,350.8 L 196.4,423.4 L 196.4,423.4"/>

  <!-- Start/Finish Line -->
  <circle cx="196.4" cy="423.4" r="8" fill="#ffffff"/>

  <!-- Corner Numbers -->
  
    <!-- Turn 1 -->
    <circle cx="296.8" cy="494.5" r="12" fill="#27272a" stroke="#ef4444" stroke-width="3"/>
    <text x="296.8" y="499.5" text-anchor="middle" class="corner-num">1</text>

    <!-- Turn 2 -->
    <circle cx="280.0" cy="425.9" r="12" fill="#27272a" stroke="#ef4444" stroke-width="3"/>
    <text x="280.0" y="430.9" text-anchor="middle" class="corner-num">2</text>

    <!-- Turn 3 -->
    <circle cx="293.6" cy="388.8" r="12" fill="#27272a" stroke="#ef4444" stroke-width="3"/>
    <text x="293.6" y="393.8" text-anchor="middle" class="corner-num">3</text>

    <!-- Turn 4 -->
    <circle cx="363.7" cy="339.9" r="12" fill="#27272a" stroke="#ef4444" stroke-width="3"/>
    <text x="363.7" y="344.9" text-anchor="middle" class="corner-num">4</text>

    <!-- Turn 5 -->
    <circle cx="384.2" cy="309.1" r="12" fill="#27272a" stroke="#ef4444" stroke-width="3"/>
    <text x="384.2" y="314.1" text-anchor="middle" class="corner-num">5</text>

    <!-- Turn 6 -->
    <circle cx="408.4" cy="288.0" r="12" fill="#27272a" stroke="#ef4444" stroke-width="3"/>
    <text x="408.4" y="293.0" text-anchor="middle" class="corner-num">6</text>

    <!-- Turn 7 -->
    <circle cx="421.1" cy="253.9" r="12" fill="#27272a" stroke="#ef4444" stroke-width="3"/>
    <text x="421.1" y="258.9" text-anchor="middle" class="corner-num">7</text>

    <!-- Turn 8 -->
    <circle cx="454.8" cy="239.4" r="12" fill="#27272a" stroke="#3b82f6" stroke-width="3"/>
    <text x="454.8" y="244.4" text-anchor="middle" class="corner-num">8</text>

    <!-- Turn 9 -->
    <circle cx="536.7" cy="227.2" r="12" fill="#27272a" stroke="#3b82f6" stroke-width="3"/>
    <text x="536.7" y="232.2" text-anchor="middle" class="corner-num">9</text>

    <!-- Turn 10 -->
    <circle cx="572.1" cy="237.1" r="12" fill="#27272a" stroke="#3b82f6" stroke-width="3"/>
    <text x="572.1" y="242.1" text-anchor="middle" class="corner-num">10</text>

    <!-- Turn 11 -->
    <circle cx="739.6" cy="112.7" r="12" fill="#27272a" stroke="#3b82f6" stroke-width="3"/>
    <text x="739.6" y="117.7" text-anchor="middle" class="corner-num">11</text>

    <!-- Turn 12 -->
    <circle cx="561.3" cy="153.6" r="12" fill="#27272a" stroke="#3b82f6" stroke-width="3"/>
    <text x="561.3" y="158.6" text-anchor="middle" class="corner-num">12</text>

    <!-- Turn 13 -->
    <circle cx="312.6" cy="206.1" r="12" fill="#27272a" stroke="#3b82f6" stroke-width="3"/>
    <text x="312.6" y="211.1" text-anchor="middle" class="corner-num">13</text>

    <!-- Turn 14 -->
    <circle cx="314.8" cy="265.8" r="12" fill="#27272a" stroke="#3b82f6" stroke-width="3"/>
    <text x="314.8" y="270.8" text-anchor="middle" class="corner-num">14</text>

    <!-- Turn 15 -->
    <circle cx="281.9" cy="224.2" r="12" fill="#27272a" stroke="#eab308" stroke-width="3"/>
    <text x="281.9" y="229.2" text-anchor="middle" class="corner-num">15</text>

    <!-- Turn 16 -->
    <circle cx="298.3" cy="306.3" r="12" fill="#27272a" stroke="#eab308" stroke-width="3"/>
    <text x="298.3" y="311.3" text-anchor="middle" class="corner-num">16</text>

    <!-- Turn 17 -->
    <circle cx="279.0" cy="335.2" r="12" fill="#27272a" stroke="#eab308" stroke-width="3"/>
    <text x="279.0" y="340.2" text-anchor="middle" class="corner-num">17</text>

    <!-- Turn 18 -->
    <circle cx="222.2" cy="338.9" r="12" fill="#27272a" stroke="#eab308" stroke-width="3"/>
    <text x="222.2" y="343.9" text-anchor="middle" class="corner-num">18</text>

    <!-- Turn 19 -->
    <circle cx="162.1" cy="268.1" r="12" fill="#27272a" stroke="#eab308" stroke-width="3"/>
    <text x="162.1" y="273.1" text-anchor="middle" class="corner-num">19</text>

    <!-- Turn 20 -->
    <circle cx="62.5" cy="307.7" r="12" fill="#27272a" stroke="#eab308" stroke-width="3"/>
    <text x="62.5" y="312.7" text-anchor="middle" class="corner-num">20</text>

  <!-- Circuit Name -->
  <text x="400" y="560" text-anchor="middle" font-family="Arial, sans-serif" font-size="18" font-weight="bold" fill="#ffffff">Circuit of The Americas</text>
  <text x="400" y="580" text-anchor="middle" font-family="Arial, sans-serif" font-size="12" fill="#71717a">Austin • 5.513 km • 20 Turns</text>
</svg>