<svg xmlns="http://www.w3.org/2000/svg" viewBox="0 0 800 600" fill="none">
  <defs>
    <style>
      .sector1 { stroke: #ef4444; }
      .sector2 { stroke: #3b82f6; }
      .sector3 { stroke: #eab308; }
      .track { stroke-width: 10; stroke-linecap: round; stroke-linejoin: round; fill: none; }
      .corner-num { font-family: Arial, sans-serif; font-size: 10px; font-weight: bold; fill: #ffffff; }
      .start-finish { stroke: #ffffff; stroke-width: 3; }
    </style>
  </defs>

  <!-- Track Background -->
  <rect width="800" height="600" fill="#18181b"/>

  <!-- Sector 1 - Red -->
  <path class="track sector1" d="M 208.4,416.1 L 266.2,462.2 L 282.1,473.4 L 294.5,480.7 L 299.1,482.9 L 300.8,483.4 L 302.8,483.1 L 304.6,482.0 L 305.8,480.2 L 306.4,478.5 L 306.2,476.5 L 293.7,440.3 L 288.1,423.6 L 287.1,418.5 L 286.9,414.1 L 287.1,408.9 L 288.1,404.2 L 289.9,398.1 L 292.7,393.0 L 295.7,388.4 L 299.8,383.6 L 304.4,380.3 L 310.6,376.4 L 344.3,355.5 L 358.1,346.9 L 361.0,344.0 L 363.6,340.5 L 365.8,337.5 L 367.6,333.5 L 369.0,330.0 L 372.6,319.9 L 375.0,316.6 L 378.0,312.8 L 382.0,310.2 L 385.2,308.5 L 393.1,305.4 L 399.3,302.3 L 402.9,299.5 L 405.1,296.8 L 407.1,293.1 L 407.9,288.7 L 409.1,281.2 L 409.7,276.4 L 410.9,271.1 L 412.5,267.3 L 414.5,263.6 L 417.1,259.9 L 419.9,256.6 L 424.0,252.9 L 428.8,249.4 L 434.0,246.5 L 439.6,244.1"/>

  <!-- Sector 2 - Blue -->
  <path class="track sector2" d="M 439.6,244.1 L 444.4,243.0 L 448.3,242.8 L 451.5,243.0 L 456.7,244.5 L 489.8,259.7 L 493.0,261.0 L 496.4,261.0 L 499.0,259.9 L 505.6,255.8 L 513.3,249.6 L 518.9,243.9 L 524.5,236.4 L 528.7,231.5 L 532.5,228.5 L 536.6,226.7 L 539.8,225.9 L 544.4,225.9 L 549.6,227.4 L 553.6,229.6 L 556.8,232.8 L 558.6,234.9 L 560.3,237.7 L 562.0,240.8 L 564.4,243.4 L 567.1,244.5 L 569.9,244.5 L 629.5,231.3 L 633.3,230.0 L 635.7,228.7 L 637.5,227.0 L 672.4,184.7 L 703.1,147.6 L 714.8,132.5 L 719.6,123.7 L 720.0,121.5 L 719.4,119.5 L 718.0,118.4 L 716.2,117.1 L 714.2,116.6 L 712.1,116.7 L 709.1,117.5 L 645.3,137.9 L 600.8,150.3 L 551.8,162.2 L 493.2,174.0 L 456.5,180.1 L 422.6,185.0 L 322.8,196.0 L 311.6,198.1 L 310.2,199.0 L 309.6,200.8 L 309.8,202.3 L 311.2,204.3 L 317.8,211.6 L 340.5,242.8 L 350.5,259.0 L 351.1,261.4 L 350.5,264.8 L 349.1,267.3 L 346.5,269.1 L 344.3,269.6 L 340.1,270.2 L 321.6,268.7 L 319.8,267.8 L 318.2,266.3 L 316.6,264.5 L 315.2,261.9 L 311.4,251.6"/>

  <!-- Sector 3 - Yellow -->
  <path class="track sector3" d="M 311.4,251.6 L 309.8,247.6 L 307.2,243.9 L 295.1,231.5 L 293.3,230.0 L 291.1,229.1 L 288.9,228.7 L 276.9,227.6 L 274.5,227.8 L 273.1,228.7 L 271.7,230.3 L 271.1,232.6 L 271.9,235.1 L 295.1,275.0 L 304.4,292.6 L 305.2,297.4 L 305.0,302.1 L 304.2,306.0 L 303.2,309.8 L 300.6,317.0 L 297.0,324.9 L 294.6,328.0 L 290.7,330.9 L 286.1,333.1 L 267.2,341.7 L 263.4,342.7 L 259.6,342.9 L 252.6,342.3 L 246.0,341.4 L 239.7,339.4 L 232.7,336.6 L 226.5,332.9 L 222.3,329.8 L 219.5,325.1 L 197.8,294.6 L 180.9,273.3 L 178.7,271.1 L 176.1,270.0 L 172.7,269.3 L 169.7,269.4 L 165.5,270.6 L 160.5,272.2 L 156.3,273.8 L 86.4,304.5 L 82.4,307.2 L 80.8,309.8 L 80.0,312.6 L 80.8,314.6 L 82.4,316.4 L 84.4,318.3 L 121.1,347.8 L 208.4,416.1 L 208.4,416.1"/>

  <!-- Start/Finish Line -->
  <circle cx="208.4" cy="416.1" r="6" fill="#ffffff"/>

  <!-- Corner Numbers -->
  
    <!-- Turn 1 -->
    <circle cx="302.8" cy="483.1" r="10" fill="#27272a" stroke="#ef4444" stroke-width="2"/>
    <text x="302.8" y="487.1" text-anchor="middle" class="corner-num">1</text>

    <!-- Turn 2 -->
    <circle cx="287.1" cy="418.5" r="10" fill="#27272a" stroke="#ef4444" stroke-width="2"/>
    <text x="287.1" y="422.5" text-anchor="middle" class="corner-num">2</text>

    <!-- Turn 3 -->
    <circle cx="299.8" cy="383.6" r="10" fill="#27272a" stroke="#ef4444" stroke-width="2"/>
    <text x="299.8" y="387.6" text-anchor="middle" class="corner-num">3</text>

    <!-- Turn 4 -->
    <circle cx="365.8" cy="337.5" r="10" fill="#27272a" stroke="#ef4444" stroke-width="2"/>
    <text x="365.8" y="341.5" text-anchor="middle" class="corner-num">4</text>

    <!-- Turn 5 -->
    <circle cx="385.2" cy="308.5" r="10" fill="#27272a" stroke="#ef4444" stroke-width="2"/>
    <text x="385.2" y="312.5" text-anchor="middle" class="corner-num">5</text>

    <!-- Turn 6 -->
    <circle cx="407.9" cy="288.7" r="10" fill="#27272a" stroke="#ef4444" stroke-width="2"/>
    <text x="407.9" y="292.7" text-anchor="middle" class="corner-num">6</text>

    <!-- Turn 7 -->
    <circle cx="419.9" cy="256.6" r="10" fill="#27272a" stroke="#ef4444" stroke-width="2"/>
    <text x="419.9" y="260.6" text-anchor="middle" class="corner-num">7</text>

    <!-- Turn 8 -->
    <circle cx="451.5" cy="243.0" r="10" fill="#27272a" stroke="#3b82f6" stroke-width="2"/>
    <text x="451.5" y="247.0" text-anchor="middle" class="corner-num">8</text>

    <!-- Turn 9 -->
    <circle cx="528.7" cy="231.5" r="10" fill="#27272a" stroke="#3b82f6" stroke-width="2"/>
    <text x="528.7" y="235.5" text-anchor="middle" class="corner-num">9</text>

    <!-- Turn 10 -->
    <circle cx="562.0" cy="240.8" r="10" fill="#27272a" stroke="#3b82f6" stroke-width="2"/>
    <text x="562.0" y="244.8" text-anchor="middle" class="corner-num">10</text>

    <!-- Turn 11 -->
    <circle cx="719.6" cy="123.7" r="10" fill="#27272a" stroke="#3b82f6" stroke-width="2"/>
    <text x="719.6" y="127.7" text-anchor="middle" class="corner-num">11</text>

    <!-- Turn 12 -->
    <circle cx="551.8" cy="162.2" r="10" fill="#27272a" stroke="#3b82f6" stroke-width="2"/>
    <text x="551.8" y="166.2" text-anchor="middle" class="corner-num">12</text>

    <!-- Turn 13 -->
    <circle cx="317.8" cy="211.6" r="10" fill="#27272a" stroke="#3b82f6" stroke-width="2"/>
    <text x="317.8" y="215.6" text-anchor="middle" class="corner-num">13</text>

    <!-- Turn 14 -->
    <circle cx="319.8" cy="267.8" r="10" fill="#27272a" stroke="#3b82f6" stroke-width="2"/>
    <text x="319.8" y="271.8" text-anchor="middle" class="corner-num">14</text>

    <!-- Turn 15 -->
    <circle cx="288.9" cy="228.7" r="10" fill="#27272a" stroke="#eab308" stroke-width="2"/>
    <text x="288.9" y="232.7" text-anchor="middle" class="corner-num">15</text>

    <!-- Turn 16 -->
    <circle cx="304.2" cy="306.0" r="10" fill="#27272a" stroke="#eab308" stroke-width="2"/>
    <text x="304.2" y="310.0" text-anchor="middle" class="corner-num">16</text>

    <!-- Turn 17 -->
    <circle cx="286.1" cy="333.1" r="10" fill="#27272a" stroke="#eab308" stroke-width="2"/>
    <text x="286.1" y="337.1" text-anchor="middle" class="corner-num">17</text>

    <!-- Turn 18 -->
    <circle cx="232.7" cy="336.6" r="10" fill="#27272a" stroke="#eab308" stroke-width="2"/>
    <text x="232.7" y="340.6" text-anchor="middle" class="corner-num">18</text>

    <!-- Turn 19 -->
    <circle cx="176.1" cy="270.0" r="10" fill="#27272a" stroke="#eab308" stroke-width="2"/>
    <text x="176.1" y="274.0" text-anchor="middle" class="corner-num">19</text>

    <!-- Turn 20 -->
    <circle cx="82.4" cy="307.2" r="10" fill="#27272a" stroke="#eab308" stroke-width="2"/>
    <text x="82.4" y="311.2" text-anchor="middle" class="corner-num">20</text>

  <!-- Legend -->
  <rect x="30" y="30" width="120" height="90" rx="6" fill="#27272a" stroke="#3f3f46"/>
  <line x1="45" y1="50" x2="75" y2="50" stroke="#ef4444" stroke-width="4"/>
  <text x="85" y="54" font-family="Arial, sans-serif" font-size="9px" fill="#ffffff">Sector 1</text>
  <line x1="45" y1="70" x2="75" y2="70" stroke="#3b82f6" stroke-width="4"/>
  <text x="85" y="74" font-family="Arial, sans-serif" font-size="9px" fill="#ffffff">Sector 2</text>
  <line x1="45" y1="90" x2="75" y2="90" stroke="#eab308" stroke-width="4"/>
  <text x="85" y="94" font-family="Arial, sans-serif" font-size="9px" fill="#ffffff">Sector 3</text>

  <!-- Circuit Name -->
  <text x="400" y="560" text-anchor="middle" font-family="Arial, sans-serif" font-size="18" font-weight="bold" fill="#ffffff">Circuit of The Americas</text>
  <text x="400" y="580" text-anchor="middle" font-family="Arial, sans-serif" font-size="12" fill="#71717a">Austin • 5.513 km • 20 Turns</text>
</svg>