<svg xmlns="http://www.w3.org/2000/svg" viewBox="0 0 800 600" fill="none">
  <defs>
    <style>
      .sector1 { stroke: #ef4444; }
      .sector2 { stroke: #3b82f6; }
      .sector3 { stroke: #eab308; }
      .track { stroke-width: 8; stroke-linecap: round; stroke-linejoin: round; fill: none; }
      .corner-num { font-family: Arial, sans-serif; font-size: 12px; font-weight: bold; fill: #ffffff; }
      .start-finish { stroke: #ffffff; stroke-width: 3; }
    </style>
  </defs>

  <!-- Track Background -->
  <rect width="800" height="600" fill="#18181b"/>

  <!-- Sector 1 - Red -->
  <path class="track sector1" d="M 293.7,421.6 L 214.7,358.4 L 191.3,340.1 L 189.2,336.6 L 187.9,333.1 L 188.3,329.1 L 189.9,326.0 L 192.1,324.0 L 195.1,322.5 L 199.5,321.9 L 206.0,321.9 L 224.2,322.3 L 236.3,324.4 L 247.4,327.7 L 259.0,332.2 L 267.8,337.2 L 274.4,341.8 L 338.9,392.9 L 343.7,395.3 L 348.2,396.4 L 352.8,396.4 L 356.5,395.1 L 360.5,393.7 L 363.7,391.2 L 366.3,388.3 L 368.1,385.6 L 369.7,381.9 L 370.2,376.7 L 370.0,373.8 L 368.6,369.8 L 367.4,365.9 L 348.9,334.5 L 347.0,328.7 L 346.7,324.1 L 347.7,320.2 L 349.1,315.3 L 350.9,310.7 L 371.3,270.0 L 407.5,196.7 L 414.0,185.1 L 421.5,174.9 L 431.0,163.9 L 432.9,160.9"/>

  <!-- Sector 2 - Blue -->
  <path class="track sector2" d="M 432.9,160.9 L 434.4,157.7 L 434.7,154.2 L 433.7,150.3 L 417.1,88.0 L 416.8,83.2 L 417.3,78.7 L 418.5,74.1 L 420.5,69.7 L 424.0,66.2 L 428.2,63.1 L 432.6,60.8 L 437.0,60.0 L 442.4,60.2 L 447.7,61.5 L 454.1,64.1 L 461.2,68.7 L 466.4,72.2 L 472.3,76.6 L 478.6,81.6 L 486.6,89.8 L 520.3,126.4 L 521.9,129.9 L 522.4,132.6 L 522.2,135.5 L 520.5,138.0 L 517.7,140.7 L 515.4,143.0 L 514.5,145.1 L 514.7,148.8 L 515.6,152.9 L 527.9,199.2 L 530.5,205.5 L 532.4,208.0 L 534.4,210.2 L 537.0,212.3 L 540.2,213.3 L 546.1,214.6 L 571.6,218.3 L 576.9,220.4 L 580.2,222.7 L 583.1,225.0 L 585.5,228.9 L 586.4,232.4 L 587.5,236.6 L 587.5,241.2 L 586.6,246.1 L 580.2,290.7 L 580.1,298.7 L 580.6,303.6 L 582.0,308.8 L 583.9,313.8 L 608.9,353.6 L 611.4,359.6 L 611.9,363.8 L 612.1,367.7 L 611.5,371.9"/>

  <!-- Sector 3 - Yellow -->
  <path class="track sector3" d="M 611.5,371.9 L 610.6,376.1 L 608.9,379.8 L 606.1,383.5 L 563.2,431.7 L 525.1,475.9 L 512.1,490.4 L 508.9,492.2 L 505.9,492.7 L 503.1,492.2 L 500.6,490.8 L 498.2,488.5 L 472.1,459.0 L 467.9,454.9 L 448.1,438.7 L 444.6,436.9 L 441.1,435.4 L 436.8,434.8 L 433.1,435.2 L 428.2,437.5 L 425.2,440.8 L 423.1,444.3 L 421.9,447.4 L 421.5,451.6 L 422.0,455.7 L 423.8,459.7 L 426.1,462.8 L 465.3,494.3 L 472.5,501.0 L 474.6,504.5 L 476.2,509.5 L 476.9,515.3 L 476.4,520.7 L 474.6,525.3 L 472.5,529.6 L 469.2,533.4 L 463.7,536.9 L 458.1,539.2 L 452.0,540.0 L 445.4,539.2 L 439.6,536.9 L 434.2,533.1 L 293.7,421.6 L 293.7,421.6"/>

  <!-- Start/Finish Line -->
  <circle cx="293.7" cy="421.6" r="8" fill="#ffffff"/>

  <!-- Corner Numbers -->
  
    <!-- Turn 1 -->
    <circle cx="192.1" cy="324.0" r="12" fill="#27272a" stroke="#ef4444" stroke-width="3"/>
    <text x="192.1" y="329.0" text-anchor="middle" class="corner-num">1</text>

    <!-- Turn 2 -->
    <circle cx="274.4" cy="341.8" r="12" fill="#27272a" stroke="#ef4444" stroke-width="3"/>
    <text x="274.4" y="346.8" text-anchor="middle" class="corner-num">2</text>

    <!-- Turn 3 -->
    <circle cx="370.0" cy="373.8" r="12" fill="#27272a" stroke="#ef4444" stroke-width="3"/>
    <text x="370.0" y="378.8" text-anchor="middle" class="corner-num">3</text>

    <!-- Turn 4 -->
    <circle cx="414.0" cy="185.1" r="12" fill="#27272a" stroke="#ef4444" stroke-width="3"/>
    <text x="414.0" y="190.1" text-anchor="middle" class="corner-num">4</text>

    <!-- Turn 5 -->
    <circle cx="420.5" cy="69.7" r="12" fill="#27272a" stroke="#3b82f6" stroke-width="3"/>
    <text x="420.5" y="74.7" text-anchor="middle" class="corner-num">5</text>

    <!-- Turn 6 -->
    <circle cx="478.6" cy="81.6" r="12" fill="#27272a" stroke="#3b82f6" stroke-width="3"/>
    <text x="478.6" y="86.6" text-anchor="middle" class="corner-num">6</text>

    <!-- Turn 7 -->
    <circle cx="515.6" cy="152.9" r="12" fill="#27272a" stroke="#3b82f6" stroke-width="3"/>
    <text x="515.6" y="157.9" text-anchor="middle" class="corner-num">7</text>

    <!-- Turn 8 -->
    <circle cx="576.9" cy="220.4" r="12" fill="#27272a" stroke="#3b82f6" stroke-width="3"/>
    <text x="576.9" y="225.4" text-anchor="middle" class="corner-num">8</text>

    <!-- Turn 9 -->
    <circle cx="580.2" cy="290.7" r="12" fill="#27272a" stroke="#3b82f6" stroke-width="3"/>
    <text x="580.2" y="295.7" text-anchor="middle" class="corner-num">9</text>

    <!-- Turn 10 -->
    <circle cx="611.5" cy="371.9" r="12" fill="#27272a" stroke="#3b82f6" stroke-width="3"/>
    <text x="611.5" y="376.9" text-anchor="middle" class="corner-num">10</text>

    <!-- Turn 11 -->
    <circle cx="498.2" cy="488.5" r="12" fill="#27272a" stroke="#eab308" stroke-width="3"/>
    <text x="498.2" y="493.5" text-anchor="middle" class="corner-num">11</text>

    <!-- Turn 12 -->
    <circle cx="428.2" cy="437.5" r="12" fill="#27272a" stroke="#eab308" stroke-width="3"/>
    <text x="428.2" y="442.5" text-anchor="middle" class="corner-num">12</text>

    <!-- Turn 13 -->
    <circle cx="472.5" cy="501.0" r="12" fill="#27272a" stroke="#eab308" stroke-width="3"/>
    <text x="472.5" y="506.0" text-anchor="middle" class="corner-num">13</text>

    <!-- Turn 14 -->
    <circle cx="463.7" cy="536.9" r="12" fill="#27272a" stroke="#eab308" stroke-width="3"/>
    <text x="463.7" y="541.9" text-anchor="middle" class="corner-num">14</text>

  <!-- Circuit Name -->
  <text x="400" y="560" text-anchor="middle" font-family="Arial, sans-serif" font-size="18" font-weight="bold" fill="#ffffff">Hungaroring</text>
  <text x="400" y="580" text-anchor="middle" font-family="Arial, sans-serif" font-size="12" fill="#71717a">Budapest • 4.381 km • 14 Turns</text>
</svg>