<svg xmlns="http://www.w3.org/2000/svg" viewBox="0 0 800 600" fill="none">
  <defs>
    <style>
      .sector1 { stroke: #ef4444; }
      .sector2 { stroke: #3b82f6; }
      .sector3 { stroke: #eab308; }
      .track { stroke-width: 10; stroke-linecap: round; stroke-linejoin: round; fill: none; }
      .corner-num { font-family: Arial, sans-serif; font-size: 10px; font-weight: bold; fill: #ffffff; }
      .start-finish { stroke: #ffffff; stroke-width: 3; }
    </style>
  </defs>

  <!-- Track Background -->
  <rect width="800" height="600" fill="#18181b"/>

  <!-- Sector 1 - Red -->
  <path class="track sector1" d="M 302.6,411.5 L 230.1,353.5 L 208.7,336.8 L 206.7,333.6 L 205.6,330.3 L 205.9,326.7 L 207.4,323.9 L 209.5,322.0 L 212.2,320.6 L 216.2,320.0 L 222.2,320.0 L 238.8,320.4 L 249.9,322.3 L 260.1,325.4 L 270.7,329.6 L 278.8,334.1 L 284.9,338.3 L 344.0,385.1 L 348.3,387.4 L 352.5,388.4 L 356.7,388.4 L 360.1,387.2 L 363.8,385.9 L 366.7,383.6 L 369.1,380.9 L 370.8,378.5 L 372.2,375.0 L 372.7,370.3 L 372.5,367.6 L 371.2,364.0 L 370.1,360.4 L 353.2,331.7 L 351.4,326.3 L 351.1,322.1 L 352.1,318.5 L 353.4,314.0 L 355.0,309.8 L 373.7,272.5 L 406.8,205.3 L 412.8,194.7 L 419.7,185.4 L 428.4,175.3 L 430.2,172.5"/>

  <!-- Sector 2 - Blue -->
  <path class="track sector2" d="M 430.2,172.5 L 431.5,169.6 L 431.8,166.4 L 430.9,162.7 L 415.7,105.7 L 415.4,101.3 L 415.9,97.1 L 417.0,92.9 L 418.8,88.9 L 422.0,85.7 L 425.8,82.8 L 429.9,80.8 L 433.9,80.0 L 438.9,80.2 L 443.7,81.3 L 449.6,83.8 L 456.1,88.0 L 460.8,91.2 L 466.3,95.2 L 472.1,99.8 L 479.4,107.4 L 510.3,140.9 L 511.7,144.1 L 512.2,146.6 L 512.1,149.3 L 510.4,151.5 L 507.9,154.0 L 505.8,156.1 L 505.0,158.0 L 505.1,161.4 L 505.9,165.2 L 517.2,207.6 L 519.6,213.3 L 521.4,215.6 L 523.2,217.7 L 525.6,219.6 L 528.5,220.6 L 534.0,221.7 L 557.3,225.1 L 562.2,227.0 L 565.2,229.1 L 567.8,231.2 L 570.1,234.8 L 570.9,238.1 L 571.8,241.9 L 571.8,246.1 L 571.0,250.6 L 565.2,291.5 L 565.1,298.8 L 565.5,303.3 L 566.8,308.1 L 568.6,312.7 L 591.5,349.2 L 593.7,354.7 L 594.2,358.5 L 594.4,362.1 L 593.9,365.9"/>

  <!-- Sector 3 - Yellow -->
  <path class="track sector3" d="M 593.9,365.9 L 593.1,369.7 L 591.5,373.1 L 588.9,376.5 L 549.6,420.7 L 514.6,461.2 L 502.7,474.5 L 499.8,476.2 L 497.1,476.6 L 494.5,476.2 L 492.2,474.9 L 490.0,472.8 L 466.1,445.8 L 462.3,442.0 L 444.1,427.1 L 440.8,425.4 L 437.6,424.1 L 433.7,423.5 L 430.4,423.9 L 425.8,426.0 L 423.1,429.0 L 421.2,432.3 L 420.0,435.1 L 419.7,439.0 L 420.2,442.8 L 421.8,446.4 L 423.9,449.2 L 459.8,478.2 L 466.5,484.2 L 468.4,487.5 L 469.8,492.0 L 470.5,497.4 L 470.0,502.3 L 468.4,506.5 L 466.5,510.5 L 463.4,513.9 L 458.4,517.1 L 453.3,519.2 L 447.6,520.0 L 441.7,519.2 L 436.3,517.1 L 431.3,513.7 L 302.6,411.5 L 302.6,411.5"/>

  <!-- Start/Finish Line -->
  <circle cx="302.6" cy="411.5" r="6" fill="#ffffff"/>

  <!-- Corner Numbers -->
  
    <!-- Turn 1 -->
    <circle cx="209.5" cy="322.0" r="10" fill="#27272a" stroke="#ef4444" stroke-width="2"/>
    <text x="209.5" y="326.0" text-anchor="middle" class="corner-num">1</text>

    <!-- Turn 2 -->
    <circle cx="284.9" cy="338.3" r="10" fill="#27272a" stroke="#ef4444" stroke-width="2"/>
    <text x="284.9" y="342.3" text-anchor="middle" class="corner-num">2</text>

    <!-- Turn 3 -->
    <circle cx="372.5" cy="367.6" r="10" fill="#27272a" stroke="#ef4444" stroke-width="2"/>
    <text x="372.5" y="371.6" text-anchor="middle" class="corner-num">3</text>

    <!-- Turn 4 -->
    <circle cx="412.8" cy="194.7" r="10" fill="#27272a" stroke="#ef4444" stroke-width="2"/>
    <text x="412.8" y="198.7" text-anchor="middle" class="corner-num">4</text>

    <!-- Turn 5 -->
    <circle cx="418.8" cy="88.9" r="10" fill="#27272a" stroke="#3b82f6" stroke-width="2"/>
    <text x="418.8" y="92.9" text-anchor="middle" class="corner-num">5</text>

    <!-- Turn 6 -->
    <circle cx="472.1" cy="99.8" r="10" fill="#27272a" stroke="#3b82f6" stroke-width="2"/>
    <text x="472.1" y="103.8" text-anchor="middle" class="corner-num">6</text>

    <!-- Turn 7 -->
    <circle cx="505.9" cy="165.2" r="10" fill="#27272a" stroke="#3b82f6" stroke-width="2"/>
    <text x="505.9" y="169.2" text-anchor="middle" class="corner-num">7</text>

    <!-- Turn 8 -->
    <circle cx="562.2" cy="227.0" r="10" fill="#27272a" stroke="#3b82f6" stroke-width="2"/>
    <text x="562.2" y="231.0" text-anchor="middle" class="corner-num">8</text>

    <!-- Turn 9 -->
    <circle cx="565.2" cy="291.5" r="10" fill="#27272a" stroke="#3b82f6" stroke-width="2"/>
    <text x="565.2" y="295.5" text-anchor="middle" class="corner-num">9</text>

    <!-- Turn 10 -->
    <circle cx="593.9" cy="365.9" r="10" fill="#27272a" stroke="#3b82f6" stroke-width="2"/>
    <text x="593.9" y="369.9" text-anchor="middle" class="corner-num">10</text>

    <!-- Turn 11 -->
    <circle cx="490.0" cy="472.8" r="10" fill="#27272a" stroke="#eab308" stroke-width="2"/>
    <text x="490.0" y="476.8" text-anchor="middle" class="corner-num">11</text>

    <!-- Turn 12 -->
    <circle cx="425.8" cy="426.0" r="10" fill="#27272a" stroke="#eab308" stroke-width="2"/>
    <text x="425.8" y="430.0" text-anchor="middle" class="corner-num">12</text>

    <!-- Turn 13 -->
    <circle cx="466.5" cy="484.2" r="10" fill="#27272a" stroke="#eab308" stroke-width="2"/>
    <text x="466.5" y="488.2" text-anchor="middle" class="corner-num">13</text>

    <!-- Turn 14 -->
    <circle cx="458.4" cy="517.1" r="10" fill="#27272a" stroke="#eab308" stroke-width="2"/>
    <text x="458.4" y="521.1" text-anchor="middle" class="corner-num">14</text>

  <!-- Legend -->
  <rect x="30" y="30" width="120" height="90" rx="6" fill="#27272a" stroke="#3f3f46"/>
  <line x1="45" y1="50" x2="75" y2="50" stroke="#ef4444" stroke-width="4"/>
  <text x="85" y="54" font-family="Arial, sans-serif" font-size="9px" fill="#ffffff">Sector 1</text>
  <line x1="45" y1="70" x2="75" y2="70" stroke="#3b82f6" stroke-width="4"/>
  <text x="85" y="74" font-family="Arial, sans-serif" font-size="9px" fill="#ffffff">Sector 2</text>
  <line x1="45" y1="90" x2="75" y2="90" stroke="#eab308" stroke-width="4"/>
  <text x="85" y="94" font-family="Arial, sans-serif" font-size="9px" fill="#ffffff">Sector 3</text>

  <!-- Circuit Name -->
  <text x="400" y="560" text-anchor="middle" font-family="Arial, sans-serif" font-size="18" font-weight="bold" fill="#ffffff">Hungaroring</text>
  <text x="400" y="580" text-anchor="middle" font-family="Arial, sans-serif" font-size="12" fill="#71717a">Budapest • 4.381 km • 14 Turns</text>
</svg>