<svg xmlns="http://www.w3.org/2000/svg" viewBox="0 0 800 600" fill="none">
  <defs>
    <style>
      .sector1 { stroke: #ef4444; }
      .sector2 { stroke: #3b82f6; }
      .sector3 { stroke: #eab308; }
      .track { stroke-width: 10; stroke-linecap: round; stroke-linejoin: round; fill: none; }
      .corner-num { font-family: Arial, sans-serif; font-size: 10px; font-weight: bold; fill: #ffffff; }
      .start-finish { stroke: #ffffff; stroke-width: 3; }
    </style>
  </defs>

  <!-- Track Background -->
  <rect width="800" height="600" fill="#18181b"/>

  <!-- Sector 1 - Red -->
  <path class="track sector1" d="M 486.0,173.3 L 474.7,173.1 L 403.9,157.9 L 378.6,155.2 L 363.9,155.1 L 290.0,161.7 L 253.7,170.3 L 249.2,173.3 L 247.0,175.9 L 246.4,178.4 L 243.7,190.0 L 241.8,193.7 L 237.3,196.8 L 203.9,213.8 L 198.9,219.3 L 145.0,352.9 L 144.4,356.4 L 144.5,360.8 L 150.2,381.5 L 150.2,384.8 L 148.3,388.8 L 146.3,391.6 L 82.5,446.1 L 80.7,449.3 L 80.0,453.0 L 80.8,457.0 L 83.2,461.7 L 86.2,464.3"/>

  <!-- Sector 2 - Blue -->
  <path class="track sector2" d="M 86.2,464.3 L 89.7,465.4 L 95.0,465.3 L 197.8,451.9 L 209.5,451.1 L 226.8,452.1 L 239.3,453.9 L 256.4,457.2 L 273.9,460.4 L 283.0,462.2 L 288.7,461.0 L 293.1,458.8 L 298.7,453.4 L 304.4,443.2 L 313.0,421.5 L 315.0,412.0 L 315.7,401.3 L 314.0,390.3 L 301.5,331.0 L 301.6,327.2 L 303.4,323.0 L 310.7,311.5 L 320.2,296.6 L 323.0,295.2 L 326.7,294.8 L 329.3,295.9 L 343.5,301.6 L 347.8,302.2 L 496.1,301.2 L 498.0,302.1"/>

  <!-- Sector 3 - Yellow -->
  <path class="track sector3" d="M 498.0,302.1 L 499.8,306.5 L 501.2,310.3 L 502.8,311.3 L 506.0,311.4 L 565.2,287.0 L 572.6,282.8 L 597.3,265.8 L 611.4,252.9 L 625.1,239.2 L 658.5,206.5 L 665.2,201.7 L 672.6,198.1 L 716.2,178.7 L 719.5,175.5 L 720.0,170.4 L 719.1,166.4 L 705.9,138.5 L 702.9,135.9 L 699.5,134.8 L 694.8,134.6 L 691.0,135.6 L 632.3,157.9 L 611.4,165.9 L 600.1,170.0 L 590.2,172.3 L 583.5,173.5 L 486.0,173.3 L 486.0,173.3"/>

  <!-- Start/Finish Line -->
  <circle cx="486.0" cy="173.3" r="6" fill="#ffffff"/>

  <!-- Corner Numbers -->
  
    <!-- Turn 1 -->
    <circle cx="363.9" cy="155.1" r="10" fill="#27272a" stroke="#ef4444" stroke-width="2"/>
    <text x="363.9" y="159.1" text-anchor="middle" class="corner-num">1</text>

    <!-- Turn 2 -->
    <circle cx="247.0" cy="175.9" r="10" fill="#27272a" stroke="#ef4444" stroke-width="2"/>
    <text x="247.0" y="179.9" text-anchor="middle" class="corner-num">2</text>

    <!-- Turn 3 -->
    <circle cx="203.9" cy="213.8" r="10" fill="#27272a" stroke="#ef4444" stroke-width="2"/>
    <text x="203.9" y="217.8" text-anchor="middle" class="corner-num">3</text>

    <!-- Turn 4 -->
    <circle cx="150.2" cy="381.5" r="10" fill="#27272a" stroke="#ef4444" stroke-width="2"/>
    <text x="150.2" y="385.5" text-anchor="middle" class="corner-num">4</text>

    <!-- Turn 5 -->
    <circle cx="80.7" cy="449.3" r="10" fill="#27272a" stroke="#ef4444" stroke-width="2"/>
    <text x="80.7" y="453.3" text-anchor="middle" class="corner-num">5</text>

    <!-- Turn 6 -->
    <circle cx="89.7" cy="465.4" r="10" fill="#27272a" stroke="#3b82f6" stroke-width="2"/>
    <text x="89.7" y="469.4" text-anchor="middle" class="corner-num">6</text>

    <!-- Turn 7 -->
    <circle cx="239.3" cy="453.9" r="10" fill="#27272a" stroke="#3b82f6" stroke-width="2"/>
    <text x="239.3" y="457.9" text-anchor="middle" class="corner-num">7</text>

    <!-- Turn 8 -->
    <circle cx="293.1" cy="458.8" r="10" fill="#27272a" stroke="#3b82f6" stroke-width="2"/>
    <text x="293.1" y="462.8" text-anchor="middle" class="corner-num">8</text>

    <!-- Turn 9 -->
    <circle cx="315.7" cy="401.3" r="10" fill="#27272a" stroke="#3b82f6" stroke-width="2"/>
    <text x="315.7" y="405.3" text-anchor="middle" class="corner-num">9</text>

    <!-- Turn 10 -->
    <circle cx="310.7" cy="311.5" r="10" fill="#27272a" stroke="#3b82f6" stroke-width="2"/>
    <text x="310.7" y="315.5" text-anchor="middle" class="corner-num">10</text>

    <!-- Turn 11 -->
    <circle cx="343.5" cy="301.6" r="10" fill="#27272a" stroke="#3b82f6" stroke-width="2"/>
    <text x="343.5" y="305.6" text-anchor="middle" class="corner-num">11</text>

    <!-- Turn 12 -->
    <circle cx="501.2" cy="310.3" r="10" fill="#27272a" stroke="#eab308" stroke-width="2"/>
    <text x="501.2" y="314.3" text-anchor="middle" class="corner-num">12</text>

    <!-- Turn 13 -->
    <circle cx="597.3" cy="265.8" r="10" fill="#27272a" stroke="#eab308" stroke-width="2"/>
    <text x="597.3" y="269.8" text-anchor="middle" class="corner-num">13</text>

    <!-- Turn 14 -->
    <circle cx="672.6" cy="198.1" r="10" fill="#27272a" stroke="#eab308" stroke-width="2"/>
    <text x="672.6" y="202.1" text-anchor="middle" class="corner-num">14</text>

    <!-- Turn 15 -->
    <circle cx="720.0" cy="170.4" r="10" fill="#27272a" stroke="#eab308" stroke-width="2"/>
    <text x="720.0" y="174.4" text-anchor="middle" class="corner-num">15</text>

    <!-- Turn 16 -->
    <circle cx="702.9" cy="135.9" r="10" fill="#27272a" stroke="#eab308" stroke-width="2"/>
    <text x="702.9" y="139.9" text-anchor="middle" class="corner-num">16</text>

    <!-- Turn 17 -->
    <circle cx="691.0" cy="135.6" r="10" fill="#27272a" stroke="#eab308" stroke-width="2"/>
    <text x="691.0" y="139.6" text-anchor="middle" class="corner-num">17</text>

    <!-- Turn 18 -->
    <circle cx="611.4" cy="165.9" r="10" fill="#27272a" stroke="#eab308" stroke-width="2"/>
    <text x="611.4" y="169.9" text-anchor="middle" class="corner-num">18</text>

    <!-- Turn 19 -->
    <circle cx="590.2" cy="172.3" r="10" fill="#27272a" stroke="#eab308" stroke-width="2"/>
    <text x="590.2" y="176.3" text-anchor="middle" class="corner-num">19</text>

  <!-- Legend -->
  <rect x="30" y="30" width="120" height="90" rx="6" fill="#27272a" stroke="#3f3f46"/>
  <line x1="45" y1="50" x2="75" y2="50" stroke="#ef4444" stroke-width="4"/>
  <text x="85" y="54" font-family="Arial, sans-serif" font-size="9px" fill="#ffffff">Sector 1</text>
  <line x1="45" y1="70" x2="75" y2="70" stroke="#3b82f6" stroke-width="4"/>
  <text x="85" y="74" font-family="Arial, sans-serif" font-size="9px" fill="#ffffff">Sector 2</text>
  <line x1="45" y1="90" x2="75" y2="90" stroke="#eab308" stroke-width="4"/>
  <text x="85" y="94" font-family="Arial, sans-serif" font-size="9px" fill="#ffffff">Sector 3</text>

  <!-- Circuit Name -->
  <text x="400" y="560" text-anchor="middle" font-family="Arial, sans-serif" font-size="18" font-weight="bold" fill="#ffffff">Autodromo Enzo e Dino Ferrari</text>
  <text x="400" y="580" text-anchor="middle" font-family="Arial, sans-serif" font-size="12" fill="#71717a">Imola • 4.909 km • 19 Turns</text>
</svg>