<svg xmlns="http://www.w3.org/2000/svg" viewBox="0 0 800 600" fill="none">
  <defs>
    <style>
      .sector1 { stroke: #ef4444; }
      .sector2 { stroke: #3b82f6; }
      .sector3 { stroke: #eab308; }
      .track { stroke-width: 10; stroke-linecap: round; stroke-linejoin: round; fill: none; }
      .corner-num { font-family: Arial, sans-serif; font-size: 10px; font-weight: bold; fill: #ffffff; }
      .start-finish { stroke: #ffffff; stroke-width: 3; }
    </style>
  </defs>

  <!-- Track Background -->
  <rect width="800" height="600" fill="#18181b"/>

  <!-- Sector 1 - Red -->
  <path class="track sector1" d="M 288.0,395.8 L 312.6,491.1 L 315.2,501.1 L 317.8,506.9 L 323.7,515.7 L 326.8,518.2 L 331.1,520.0 L 335.4,520.0 L 340.2,519.0 L 342.7,517.7 L 350.4,510.6 L 357.8,502.3 L 360.8,500.1 L 364.6,498.8 L 368.5,498.5 L 374.2,500.3 L 386.1,507.7 L 395.6,511.6 L 402.7,513.4 L 409.1,514.3 L 415.0,514.6 L 423.7,513.6 L 430.3,512.1 L 438.5,509.2 L 446.1,504.7 L 453.7,498.8 L 459.8,492.4 L 464.6,485.5 L 468.2,479.1 L 471.2,471.8 L 482.9,433.1 L 487.9,413.7 L 496.4,380.8 L 506.7,338.7 L 524.9,269.7 L 531.4,244.8 L 536.0,227.3 L 538.2,219.2 L 539.0,214.1 L 538.5,209.3 L 537.3,206.0 L 534.7,202.1 L 530.0,198.8 L 524.5,196.6 L 516.6,194.9 L 492.9,190.3 L 483.7,189.2 L 478.0,189.6 L 471.0,190.6 L 464.3,192.6 L 458.5,196.0 L 452.9,199.3 L 447.4,203.9 L 442.0,209.8 L 434.7,219.1 L 410.7,251.5 L 396.6,271.5"/>

  <!-- Sector 2 - Blue -->
  <path class="track sector2" d="M 396.6,271.5 L 384.6,288.6 L 371.4,305.9 L 364.5,315.5 L 359.2,322.7 L 355.4,326.8 L 351.3,329.4 L 345.4,331.5 L 338.9,332.3 L 329.2,332.1 L 322.7,331.0 L 317.5,329.4 L 312.9,327.3 L 305.0,323.0 L 301.0,319.5 L 298.4,316.1 L 295.9,311.1 L 294.0,304.3 L 291.6,294.3 L 289.6,285.2 L 287.0,268.4 L 286.5,261.4 L 286.6,254.3 L 288.3,249.0 L 290.9,246.3 L 292.8,245.3 L 295.2,244.5 L 298.4,244.1 L 301.8,245.0 L 305.3,246.4 L 314.9,253.6 L 318.7,255.9 L 321.7,257.2 L 324.9,257.8 L 327.9,258.1 L 331.1,257.7 L 335.6,256.0 L 340.8,251.7 L 343.8,247.3 L 345.4,242.5 L 345.6,238.4 L 345.0,233.6 L 343.2,229.9 L 339.1,223.9 L 335.4,220.1 L 322.2,207.3 L 315.5,199.5 L 310.8,192.6 L 307.4,183.4 L 304.8,171.9 L 303.6,165.0 L 303.0,158.7 L 303.4,153.6 L 305.4,150.1 L 307.1,148.0 L 309.8,147.1 L 312.0,146.5 L 314.9,147.0 L 318.2,148.3"/>

  <!-- Sector 3 - Yellow -->
  <path class="track sector3" d="M 318.2,148.3 L 334.2,166.6 L 348.1,181.9 L 350.5,183.9 L 355.7,187.5 L 360.4,189.6 L 364.3,190.7 L 369.2,191.5 L 373.6,192.0 L 378.8,192.1 L 386.9,190.9 L 393.1,188.9 L 399.7,185.1 L 406.4,179.7 L 410.1,174.8 L 414.1,169.3 L 424.7,152.5 L 436.5,132.8 L 449.8,111.3 L 450.6,108.8 L 450.8,105.8 L 450.0,102.9 L 448.5,99.7 L 445.5,96.9 L 438.6,93.3 L 428.4,89.6 L 407.9,81.9 L 403.9,80.8 L 398.7,80.0 L 388.4,81.1 L 379.3,82.7 L 359.5,86.9 L 352.9,89.1 L 339.8,94.6 L 333.4,97.5 L 318.0,105.8 L 311.9,109.9 L 306.7,114.6 L 301.4,119.5 L 297.1,124.6 L 293.2,130.6 L 289.7,138.2 L 286.9,146.3 L 282.4,162.9 L 277.6,183.7 L 274.4,203.4 L 268.9,224.3 L 265.3,240.1 L 262.3,251.0 L 261.2,259.0 L 261.0,269.8 L 261.6,282.5 L 263.0,292.1 L 265.4,303.3 L 269.6,319.3 L 281.7,370.2 L 288.0,395.8 L 288.0,395.8"/>

  <!-- Start/Finish Line -->
  <circle cx="288.0" cy="395.8" r="6" fill="#ffffff"/>

  <!-- Corner Numbers -->
  
    <!-- Turn 1 -->
    <circle cx="340.2" cy="519.0" r="10" fill="#27272a" stroke="#ef4444" stroke-width="2"/>
    <text x="340.2" y="523.0" text-anchor="middle" class="corner-num">1</text>

    <!-- Turn 2 -->
    <circle cx="395.6" cy="511.6" r="10" fill="#27272a" stroke="#ef4444" stroke-width="2"/>
    <text x="395.6" y="515.6" text-anchor="middle" class="corner-num">2</text>

    <!-- Turn 3 -->
    <circle cx="464.6" cy="485.5" r="10" fill="#27272a" stroke="#ef4444" stroke-width="2"/>
    <text x="464.6" y="489.5" text-anchor="middle" class="corner-num">3</text>

    <!-- Turn 4 -->
    <circle cx="537.3" cy="206.0" r="10" fill="#27272a" stroke="#ef4444" stroke-width="2"/>
    <text x="537.3" y="210.0" text-anchor="middle" class="corner-num">4</text>

    <!-- Turn 5 -->
    <circle cx="434.7" cy="219.1" r="10" fill="#27272a" stroke="#ef4444" stroke-width="2"/>
    <text x="434.7" y="223.1" text-anchor="middle" class="corner-num">5</text>

    <!-- Turn 6 -->
    <circle cx="312.9" cy="327.3" r="10" fill="#27272a" stroke="#3b82f6" stroke-width="2"/>
    <text x="312.9" y="331.3" text-anchor="middle" class="corner-num">6</text>

    <!-- Turn 7 -->
    <circle cx="292.8" cy="245.3" r="10" fill="#27272a" stroke="#3b82f6" stroke-width="2"/>
    <text x="292.8" y="249.3" text-anchor="middle" class="corner-num">7</text>

    <!-- Turn 8 -->
    <circle cx="345.4" cy="242.5" r="10" fill="#27272a" stroke="#3b82f6" stroke-width="2"/>
    <text x="345.4" y="246.5" text-anchor="middle" class="corner-num">8</text>

    <!-- Turn 9 -->
    <circle cx="304.8" cy="171.9" r="10" fill="#27272a" stroke="#3b82f6" stroke-width="2"/>
    <text x="304.8" y="175.9" text-anchor="middle" class="corner-num">9</text>

    <!-- Turn 10 -->
    <circle cx="334.2" cy="166.6" r="10" fill="#27272a" stroke="#eab308" stroke-width="2"/>
    <text x="334.2" y="170.6" text-anchor="middle" class="corner-num">10</text>

    <!-- Turn 11 -->
    <circle cx="393.1" cy="188.9" r="10" fill="#27272a" stroke="#eab308" stroke-width="2"/>
    <text x="393.1" y="192.9" text-anchor="middle" class="corner-num">11</text>

    <!-- Turn 12 -->
    <circle cx="448.5" cy="99.7" r="10" fill="#27272a" stroke="#eab308" stroke-width="2"/>
    <text x="448.5" y="103.7" text-anchor="middle" class="corner-num">12</text>

    <!-- Turn 13 -->
    <circle cx="352.9" cy="89.1" r="10" fill="#27272a" stroke="#eab308" stroke-width="2"/>
    <text x="352.9" y="93.1" text-anchor="middle" class="corner-num">13</text>

    <!-- Turn 14 -->
    <circle cx="286.9" cy="146.3" r="10" fill="#27272a" stroke="#eab308" stroke-width="2"/>
    <text x="286.9" y="150.3" text-anchor="middle" class="corner-num">14</text>

    <!-- Turn 15 -->
    <circle cx="261.0" cy="269.8" r="10" fill="#27272a" stroke="#eab308" stroke-width="2"/>
    <text x="261.0" y="273.8" text-anchor="middle" class="corner-num">15</text>

  <!-- Legend -->
  <rect x="30" y="30" width="120" height="90" rx="6" fill="#27272a" stroke="#3f3f46"/>
  <line x1="45" y1="50" x2="75" y2="50" stroke="#ef4444" stroke-width="4"/>
  <text x="85" y="54" font-family="Arial, sans-serif" font-size="9px" fill="#ffffff">Sector 1</text>
  <line x1="45" y1="70" x2="75" y2="70" stroke="#3b82f6" stroke-width="4"/>
  <text x="85" y="74" font-family="Arial, sans-serif" font-size="9px" fill="#ffffff">Sector 2</text>
  <line x1="45" y1="90" x2="75" y2="90" stroke="#eab308" stroke-width="4"/>
  <text x="85" y="94" font-family="Arial, sans-serif" font-size="9px" fill="#ffffff">Sector 3</text>

  <!-- Circuit Name -->
  <text x="400" y="560" text-anchor="middle" font-family="Arial, sans-serif" font-size="18" font-weight="bold" fill="#ffffff">Autodromo Jose Carlos Pace</text>
  <text x="400" y="580" text-anchor="middle" font-family="Arial, sans-serif" font-size="12" fill="#71717a">Sao Paulo • 4.309 km • 15 Turns</text>
</svg>