<svg xmlns="http://www.w3.org/2000/svg" viewBox="0 0 800 600" fill="none">
  <defs>
    <style>
      .sector1 { stroke: #ef4444; }
      .sector2 { stroke: #3b82f6; }
      .sector3 { stroke: #eab308; }
      .track { stroke-width: 8; stroke-linecap: round; stroke-linejoin: round; fill: none; }
      .corner-num { font-family: Arial, sans-serif; font-size: 12px; font-weight: bold; fill: #ffffff; }
      .start-finish { stroke: #ffffff; stroke-width: 3; }
    </style>
  </defs>

  <!-- Track Background -->
  <rect width="800" height="600" fill="#18181b"/>

  <!-- Sector 1 - Red -->
  <path class="track sector1" d="M 277.8,404.5 L 304.7,508.5 L 307.5,519.4 L 310.4,525.7 L 316.8,535.3 L 320.1,538.0 L 324.9,539.9 L 329.6,540.0 L 334.7,538.9 L 337.4,537.5 L 345.8,529.8 L 354.0,520.7 L 357.2,518.3 L 361.4,516.8 L 365.7,516.6 L 371.8,518.6 L 384.9,526.6 L 395.2,530.8 L 402.9,532.8 L 410.0,533.7 L 416.4,534.1 L 425.9,533.0 L 433.1,531.4 L 442.0,528.2 L 450.3,523.3 L 458.6,516.9 L 465.3,509.9 L 470.5,502.4 L 474.4,495.3 L 477.7,487.4 L 490.5,445.2 L 495.9,424.0 L 505.1,388.1 L 516.4,342.2 L 536.2,266.9 L 543.4,239.8 L 548.4,220.7 L 550.7,211.9 L 551.6,206.3 L 551.1,201.0 L 549.7,197.4 L 546.9,193.2 L 541.8,189.6 L 535.8,187.2 L 527.2,185.4 L 501.4,180.3 L 491.3,179.2 L 485.1,179.6 L 477.4,180.7 L 470.2,182.8 L 463.8,186.6 L 457.7,190.2 L 451.7,195.1 L 445.9,201.6 L 437.9,211.8 L 411.7,247.1 L 396.3,268.9"/>

  <!-- Sector 2 - Blue -->
  <path class="track sector2" d="M 396.3,268.9 L 383.2,287.6 L 368.8,306.4 L 361.3,316.9 L 355.4,324.8 L 351.4,329.3 L 346.9,332.1 L 340.4,334.4 L 333.3,335.3 L 322.7,335.0 L 315.6,333.9 L 310.0,332.1 L 304.9,329.8 L 296.3,325.1 L 292.0,321.3 L 289.2,317.5 L 286.4,312.1 L 284.3,304.7 L 281.7,293.8 L 279.6,283.8 L 276.7,265.5 L 276.1,257.9 L 276.3,250.2 L 278.1,244.3 L 281.0,241.4 L 283.1,240.3 L 285.6,239.5 L 289.1,239.0 L 292.8,240.0 L 296.7,241.5 L 307.1,249.4 L 311.3,251.9 L 314.6,253.3 L 318.1,254.0 L 321.3,254.3 L 324.9,253.8 L 329.7,252.0 L 335.4,247.3 L 338.7,242.5 L 340.4,237.3 L 340.7,232.8 L 340.0,227.6 L 338.0,223.5 L 333.5,216.9 L 329.5,212.9 L 315.2,198.9 L 307.8,190.4 L 302.7,182.9 L 299.0,172.8 L 296.2,160.3 L 294.9,152.7 L 294.2,145.9 L 294.6,140.3 L 296.8,136.4 L 298.7,134.1 L 301.6,133.2 L 304.0,132.6 L 307.1,133.1 L 310.8,134.6"/>

  <!-- Sector 3 - Yellow -->
  <path class="track sector3" d="M 310.8,134.6 L 328.3,154.5 L 343.4,171.2 L 346.0,173.3 L 351.6,177.2 L 356.8,179.5 L 361.1,180.8 L 366.4,181.7 L 371.3,182.2 L 376.9,182.3 L 385.8,181.0 L 392.5,178.8 L 399.7,174.7 L 407.0,168.8 L 411.0,163.4 L 415.4,157.4 L 427.0,139.1 L 439.8,117.6 L 454.3,94.2 L 455.2,91.4 L 455.5,88.2 L 454.6,85.0 L 452.9,81.5 L 449.7,78.5 L 442.1,74.5 L 431.0,70.5 L 408.6,62.0 L 404.2,60.9 L 398.6,60.0 L 387.3,61.2 L 377.5,62.9 L 355.8,67.5 L 348.6,70.0 L 334.4,75.9 L 327.3,79.0 L 310.5,88.1 L 303.9,92.6 L 298.2,97.7 L 292.4,103.1 L 287.7,108.6 L 283.5,115.1 L 279.7,123.5 L 276.6,132.3 L 271.8,150.4 L 266.5,173.2 L 263.0,194.6 L 257.0,217.5 L 253.1,234.7 L 249.7,246.6 L 248.6,255.2 L 248.4,267.0 L 249.0,281.0 L 250.6,291.4 L 253.2,303.6 L 257.7,321.1 L 270.9,376.6 L 277.8,404.5 L 277.8,404.5"/>

  <!-- Start/Finish Line -->
  <circle cx="277.8" cy="404.5" r="8" fill="#ffffff"/>

  <!-- Corner Numbers -->
  
    <!-- Turn 1 - Senna S -->
    <circle cx="334.7" cy="538.9" r="12" fill="#27272a" stroke="#ef4444" stroke-width="3"/>
    <text x="334.7" y="543.9" text-anchor="middle" class="corner-num">1</text>

    <!-- Turn 2 -->
    <circle cx="395.2" cy="530.8" r="12" fill="#27272a" stroke="#ef4444" stroke-width="3"/>
    <text x="395.2" y="535.8" text-anchor="middle" class="corner-num">2</text>

    <!-- Turn 3 -->
    <circle cx="470.5" cy="502.4" r="12" fill="#27272a" stroke="#ef4444" stroke-width="3"/>
    <text x="470.5" y="507.4" text-anchor="middle" class="corner-num">3</text>

    <!-- Turn 4 -->
    <circle cx="549.7" cy="197.4" r="12" fill="#27272a" stroke="#ef4444" stroke-width="3"/>
    <text x="549.7" y="202.4" text-anchor="middle" class="corner-num">4</text>

    <!-- Turn 5 -->
    <circle cx="437.9" cy="211.8" r="12" fill="#27272a" stroke="#ef4444" stroke-width="3"/>
    <text x="437.9" y="216.8" text-anchor="middle" class="corner-num">5</text>

    <!-- Turn 6 -->
    <circle cx="304.9" cy="329.8" r="12" fill="#27272a" stroke="#3b82f6" stroke-width="3"/>
    <text x="304.9" y="334.8" text-anchor="middle" class="corner-num">6</text>

    <!-- Turn 7 -->
    <circle cx="283.1" cy="240.3" r="12" fill="#27272a" stroke="#3b82f6" stroke-width="3"/>
    <text x="283.1" y="245.3" text-anchor="middle" class="corner-num">7</text>

    <!-- Turn 8 -->
    <circle cx="340.4" cy="237.3" r="12" fill="#27272a" stroke="#3b82f6" stroke-width="3"/>
    <text x="340.4" y="242.3" text-anchor="middle" class="corner-num">8</text>

    <!-- Turn 9 -->
    <circle cx="296.2" cy="160.3" r="12" fill="#27272a" stroke="#3b82f6" stroke-width="3"/>
    <text x="296.2" y="165.3" text-anchor="middle" class="corner-num">9</text>

    <!-- Turn 10 -->
    <circle cx="328.3" cy="154.5" r="12" fill="#27272a" stroke="#eab308" stroke-width="3"/>
    <text x="328.3" y="159.5" text-anchor="middle" class="corner-num">10</text>

    <!-- Turn 11 -->
    <circle cx="392.5" cy="178.8" r="12" fill="#27272a" stroke="#eab308" stroke-width="3"/>
    <text x="392.5" y="183.8" text-anchor="middle" class="corner-num">11</text>

    <!-- Turn 12 - Juncao -->
    <circle cx="452.9" cy="81.5" r="12" fill="#27272a" stroke="#eab308" stroke-width="3"/>
    <text x="452.9" y="86.5" text-anchor="middle" class="corner-num">12</text>

    <!-- Turn 13 -->
    <circle cx="348.6" cy="70.0" r="12" fill="#27272a" stroke="#eab308" stroke-width="3"/>
    <text x="348.6" y="75.0" text-anchor="middle" class="corner-num">13</text>

    <!-- Turn 14 -->
    <circle cx="276.6" cy="132.3" r="12" fill="#27272a" stroke="#eab308" stroke-width="3"/>
    <text x="276.6" y="137.3" text-anchor="middle" class="corner-num">14</text>

    <!-- Turn 15 -->
    <circle cx="248.4" cy="267.0" r="12" fill="#27272a" stroke="#eab308" stroke-width="3"/>
    <text x="248.4" y="272.0" text-anchor="middle" class="corner-num">15</text>

  <!-- Circuit Name -->
  <text x="400" y="560" text-anchor="middle" font-family="Arial, sans-serif" font-size="18" font-weight="bold" fill="#ffffff">Autodromo Jose Carlos Pace</text>
  <text x="400" y="580" text-anchor="middle" font-family="Arial, sans-serif" font-size="12" fill="#71717a">Sao Paulo • 4.309 km • 15 Turns</text>
</svg>