<svg xmlns="http://www.w3.org/2000/svg" viewBox="0 0 800 600" fill="none">
  <defs>
    <style>
      .sector1 { stroke: #ef4444; }
      .sector2 { stroke: #3b82f6; }
      .sector3 { stroke: #eab308; }
      .track { stroke-width: 10; stroke-linecap: round; stroke-linejoin: round; fill: none; }
      .corner-num { font-family: Arial, sans-serif; font-size: 10px; font-weight: bold; fill: #ffffff; }
      .start-finish { stroke: #ffffff; stroke-width: 3; }
    </style>
  </defs>

  <!-- Track Background -->
  <rect width="800" height="600" fill="#18181b"/>

  <!-- Sector 1 - Red -->
  <path class="track sector1" d="M 422.6,418.8 L 400.2,353.1 L 398.9,352.0 L 397.8,351.8 L 392.6,353.5 L 391.2,353.1 L 390.0,352.5 L 389.0,351.2 L 388.5,349.4 L 389.4,344.3 L 393.2,332.5 L 393.6,330.8 L 393.7,327.4 L 392.2,318.0 L 387.2,288.5 L 386.7,282.5 L 385.7,280.6 L 380.5,278.5 L 378.0,277.0 L 376.1,275.3 L 373.4,271.1 L 372.0,266.9 L 371.8,261.9 L 372.5,257.9 L 373.6,255.6 L 377.2,250.1 L 378.5,247.2 L 379.1,244.0 L 378.8,239.3 L 376.9,231.3 L 374.6,227.7 L 373.2,226.5 L 369.7,224.1 L 368.0,222.8 L 366.7,221.4 L 365.8,217.7 L 366.0,202.3 L 366.6,199.0 L 369.9,194.7 L 372.5,192.9 L 378.7,190.7 L 380.5,189.7 L 382.6,186.3 L 383.8,179.4 L 384.9,174.0 L 387.2,166.3 L 389.0,161.5 L 390.3,153.5 L 390.7,148.1 L 390.5,142.1 L 389.7,118.2"/>

  <!-- Sector 2 - Blue -->
  <path class="track sector2" d="M 389.7,118.2 L 387.9,87.3 L 387.2,85.3 L 385.4,82.8 L 383.1,81.2 L 379.6,80.0 L 376.1,80.6 L 373.8,81.8 L 371.4,83.4 L 369.4,87.1 L 368.4,92.2 L 368.7,96.8 L 369.6,100.5 L 374.9,109.7 L 377.7,114.1 L 380.0,120.4 L 380.9,124.4 L 381.6,130.0 L 381.4,134.3 L 380.9,139.4 L 379.1,144.7 L 377.1,149.2 L 374.3,154.6 L 372.1,159.7 L 371.1,165.4 L 371.1,169.3 L 371.1,172.3 L 370.1,174.5 L 368.4,176.5 L 365.9,177.9 L 360.4,179.5 L 356.6,182.8 L 354.8,185.7 L 354.1,188.2 L 353.2,193.2 L 353.0,198.9 L 353.0,202.8 L 353.3,207.1 L 354.0,211.8 L 355.9,217.5 L 360.9,228.2 L 364.2,236.3 L 366.0,243.3 L 366.8,249.5 L 366.5,255.4 L 366.2,259.1 L 366.2,266.9 L 366.7,269.1 L 367.2,272.7 L 369.3,279.1 L 371.2,283.2 L 373.8,287.6"/>

  <!-- Sector 3 - Yellow -->
  <path class="track sector3" d="M 373.8,287.6 L 378.0,294.2 L 380.8,299.3 L 382.9,304.7 L 385.2,312.8 L 385.9,318.8 L 386.2,325.6 L 386.0,331.8 L 385.3,337.4 L 384.0,344.9 L 383.2,347.5 L 382.5,349.9 L 382.6,352.0 L 383.2,354.2 L 384.9,356.6 L 386.6,358.2 L 390.8,361.6 L 392.9,364.2 L 394.8,367.7 L 397.6,380.5 L 397.6,383.9 L 396.4,387.7 L 393.7,392.8 L 384.7,410.3 L 382.6,415.6 L 380.8,421.9 L 380.2,426.3 L 379.9,430.3 L 380.7,439.4 L 383.0,448.4 L 384.5,454.0 L 386.1,459.3 L 388.1,465.9 L 391.1,472.9 L 395.7,481.2 L 398.8,485.7 L 402.8,490.9 L 408.4,497.4 L 415.7,503.8 L 422.5,508.4 L 436.7,518.4 L 440.7,520.0 L 443.3,519.3 L 445.6,517.8 L 447.0,515.3 L 446.9,512.6 L 443.2,496.0 L 436.0,461.6 L 432.3,448.4 L 428.8,437.5 L 422.6,418.8 L 422.6,418.8"/>

  <!-- Start/Finish Line -->
  <circle cx="422.6" cy="418.8" r="6" fill="#ffffff"/>

  <!-- Corner Numbers -->
  
    <!-- Turn 1 -->
    <circle cx="392.6" cy="353.5" r="10" fill="#27272a" stroke="#ef4444" stroke-width="2"/>
    <text x="392.6" y="357.5" text-anchor="middle" class="corner-num">1</text>

    <!-- Turn 2 -->
    <circle cx="389.4" cy="344.3" r="10" fill="#27272a" stroke="#ef4444" stroke-width="2"/>
    <text x="389.4" y="348.3" text-anchor="middle" class="corner-num">2</text>

    <!-- Turn 3 -->
    <circle cx="392.2" cy="318.0" r="10" fill="#27272a" stroke="#ef4444" stroke-width="2"/>
    <text x="392.2" y="322.0" text-anchor="middle" class="corner-num">3</text>

    <!-- Turn 4 -->
    <circle cx="376.1" cy="275.3" r="10" fill="#27272a" stroke="#ef4444" stroke-width="2"/>
    <text x="376.1" y="279.3" text-anchor="middle" class="corner-num">4</text>

    <!-- Turn 5 -->
    <circle cx="373.6" cy="255.6" r="10" fill="#27272a" stroke="#ef4444" stroke-width="2"/>
    <text x="373.6" y="259.6" text-anchor="middle" class="corner-num">5</text>

    <!-- Turn 6 -->
    <circle cx="378.8" cy="239.3" r="10" fill="#27272a" stroke="#ef4444" stroke-width="2"/>
    <text x="378.8" y="243.3" text-anchor="middle" class="corner-num">6</text>

    <!-- Turn 7 -->
    <circle cx="368.0" cy="222.8" r="10" fill="#27272a" stroke="#ef4444" stroke-width="2"/>
    <text x="368.0" y="226.8" text-anchor="middle" class="corner-num">7</text>

    <!-- Turn 8 -->
    <circle cx="366.6" cy="199.0" r="10" fill="#27272a" stroke="#ef4444" stroke-width="2"/>
    <text x="366.6" y="203.0" text-anchor="middle" class="corner-num">8</text>

    <!-- Turn 9 -->
    <circle cx="382.6" cy="186.3" r="10" fill="#27272a" stroke="#ef4444" stroke-width="2"/>
    <text x="382.6" y="190.3" text-anchor="middle" class="corner-num">9</text>

    <!-- Turn 10 -->
    <circle cx="389.0" cy="161.5" r="10" fill="#27272a" stroke="#ef4444" stroke-width="2"/>
    <text x="389.0" y="165.5" text-anchor="middle" class="corner-num">10</text>

    <!-- Turn 11 -->
    <circle cx="387.2" cy="85.3" r="10" fill="#27272a" stroke="#3b82f6" stroke-width="2"/>
    <text x="387.2" y="89.3" text-anchor="middle" class="corner-num">11</text>

    <!-- Turn 12 -->
    <circle cx="373.8" cy="81.8" r="10" fill="#27272a" stroke="#3b82f6" stroke-width="2"/>
    <text x="373.8" y="85.8" text-anchor="middle" class="corner-num">12</text>

    <!-- Turn 13 -->
    <circle cx="374.9" cy="109.7" r="10" fill="#27272a" stroke="#3b82f6" stroke-width="2"/>
    <text x="374.9" y="113.7" text-anchor="middle" class="corner-num">13</text>

    <!-- Turn 14 -->
    <circle cx="380.9" cy="139.4" r="10" fill="#27272a" stroke="#3b82f6" stroke-width="2"/>
    <text x="380.9" y="143.4" text-anchor="middle" class="corner-num">14</text>

    <!-- Turn 15 -->
    <circle cx="371.1" cy="169.3" r="10" fill="#27272a" stroke="#3b82f6" stroke-width="2"/>
    <text x="371.1" y="173.3" text-anchor="middle" class="corner-num">15</text>

    <!-- Turn 16 -->
    <circle cx="356.6" cy="182.8" r="10" fill="#27272a" stroke="#3b82f6" stroke-width="2"/>
    <text x="356.6" y="186.8" text-anchor="middle" class="corner-num">16</text>

    <!-- Turn 17 -->
    <circle cx="353.3" cy="207.1" r="10" fill="#27272a" stroke="#3b82f6" stroke-width="2"/>
    <text x="353.3" y="211.1" text-anchor="middle" class="corner-num">17</text>

    <!-- Turn 18 -->
    <circle cx="366.8" cy="249.5" r="10" fill="#27272a" stroke="#3b82f6" stroke-width="2"/>
    <text x="366.8" y="253.5" text-anchor="middle" class="corner-num">18</text>

    <!-- Turn 19 -->
    <circle cx="369.3" cy="279.1" r="10" fill="#27272a" stroke="#3b82f6" stroke-width="2"/>
    <text x="369.3" y="283.1" text-anchor="middle" class="corner-num">19</text>

    <!-- Turn 20 -->
    <circle cx="385.2" cy="312.8" r="10" fill="#27272a" stroke="#eab308" stroke-width="2"/>
    <text x="385.2" y="316.8" text-anchor="middle" class="corner-num">20</text>

    <!-- Turn 21 -->
    <circle cx="383.2" cy="347.5" r="10" fill="#27272a" stroke="#eab308" stroke-width="2"/>
    <text x="383.2" y="351.5" text-anchor="middle" class="corner-num">21</text>

    <!-- Turn 22 -->
    <circle cx="390.8" cy="361.6" r="10" fill="#27272a" stroke="#eab308" stroke-width="2"/>
    <text x="390.8" y="365.6" text-anchor="middle" class="corner-num">22</text>

    <!-- Turn 23 -->
    <circle cx="393.7" cy="392.8" r="10" fill="#27272a" stroke="#eab308" stroke-width="2"/>
    <text x="393.7" y="396.8" text-anchor="middle" class="corner-num">23</text>

    <!-- Turn 24 -->
    <circle cx="380.7" cy="439.4" r="10" fill="#27272a" stroke="#eab308" stroke-width="2"/>
    <text x="380.7" y="443.4" text-anchor="middle" class="corner-num">24</text>

    <!-- Turn 25 -->
    <circle cx="395.7" cy="481.2" r="10" fill="#27272a" stroke="#eab308" stroke-width="2"/>
    <text x="395.7" y="485.2" text-anchor="middle" class="corner-num">25</text>

    <!-- Turn 26 -->
    <circle cx="436.7" cy="518.4" r="10" fill="#27272a" stroke="#eab308" stroke-width="2"/>
    <text x="436.7" y="522.4" text-anchor="middle" class="corner-num">26</text>

    <!-- Turn 27 -->
    <circle cx="446.9" cy="512.6" r="10" fill="#27272a" stroke="#eab308" stroke-width="2"/>
    <text x="446.9" y="516.6" text-anchor="middle" class="corner-num">27</text>

  <!-- Legend -->
  <rect x="30" y="30" width="120" height="90" rx="6" fill="#27272a" stroke="#3f3f46"/>
  <line x1="45" y1="50" x2="75" y2="50" stroke="#ef4444" stroke-width="4"/>
  <text x="85" y="54" font-family="Arial, sans-serif" font-size="9px" fill="#ffffff">Sector 1</text>
  <line x1="45" y1="70" x2="75" y2="70" stroke="#3b82f6" stroke-width="4"/>
  <text x="85" y="74" font-family="Arial, sans-serif" font-size="9px" fill="#ffffff">Sector 2</text>
  <line x1="45" y1="90" x2="75" y2="90" stroke="#eab308" stroke-width="4"/>
  <text x="85" y="94" font-family="Arial, sans-serif" font-size="9px" fill="#ffffff">Sector 3</text>

  <!-- Circuit Name -->
  <text x="400" y="560" text-anchor="middle" font-family="Arial, sans-serif" font-size="18" font-weight="bold" fill="#ffffff">Jeddah Corniche Circuit</text>
  <text x="400" y="580" text-anchor="middle" font-family="Arial, sans-serif" font-size="12" fill="#71717a">Jeddah • 6.174 km • 27 Turns</text>
</svg>