<svg xmlns="http://www.w3.org/2000/svg" viewBox="0 0 800 600" fill="none">
  <defs>
    <style>
      .sector1 { stroke: #ef4444; }
      .sector2 { stroke: #3b82f6; }
      .sector3 { stroke: #eab308; }
      .track { stroke-width: 8; stroke-linecap: round; stroke-linejoin: round; fill: none; }
      .corner-num { font-family: Arial, sans-serif; font-size: 12px; font-weight: bold; fill: #ffffff; }
      .start-finish { stroke: #ffffff; stroke-width: 3; }
    </style>
  </defs>

  <!-- Track Background -->
  <rect width="800" height="600" fill="#18181b"/>

  <!-- Sector 1 - Red -->
  <path class="track sector1" d="M 519.8,486.1 L 533.3,471.0 L 536.2,467.8 L 538.2,464.3 L 538.9,460.2 L 537.2,456.5 L 534.3,454.1 L 529.2,452.2 L 524.3,451.4 L 519.7,451.7 L 515.3,453.0 L 505.7,458.8 L 496.8,467.6 L 493.4,469.8 L 485.9,471.5 L 481.9,471.4 L 474.6,468.9 L 470.6,466.7 L 466.8,463.5 L 460.6,455.1 L 458.1,448.0 L 456.4,237.3 L 457.7,234.1 L 460.2,232.5 L 503.7,233.3 L 516.7,233.2 L 523.5,231.6 L 526.3,229.3 L 534.0,221.8 L 537.4,216.9 L 540.1,211.6 L 542.0,207.0 L 543.1,201.0 L 543.9,193.9"/>

  <!-- Sector 2 - Blue -->
  <path class="track sector2" d="M 543.9,193.9 L 543.7,189.7 L 541.3,188.2 L 535.0,187.5 L 532.8,186.1 L 530.9,183.2 L 530.2,178.6 L 530.5,175.3 L 536.6,164.8 L 537.7,162.0 L 540.2,157.1 L 539.3,152.0 L 534.4,148.7 L 525.2,147.7 L 456.3,146.0 L 430.8,142.3 L 422.4,138.2 L 413.1,128.6 L 405.1,112.7 L 392.9,84.0 L 385.1,75.8 L 377.0,70.2 L 368.7,67.1 L 355.8,62.9 L 341.1,60.0 L 339.1,60.5 L 337.2,62.0 L 335.7,67.0 L 334.2,70.4 L 319.0,100.1 L 309.5,117.8 L 304.6,126.8 L 299.5,135.4 L 290.8,150.6 L 281.8,171.0"/>

  <!-- Sector 3 - Yellow -->
  <path class="track sector3" d="M 281.8,171.0 L 277.0,186.5 L 271.8,204.2 L 268.3,216.9 L 265.7,229.5 L 263.6,242.4 L 261.4,261.1 L 260.8,272.1 L 260.3,285.1 L 260.5,320.5 L 260.6,340.7 L 260.7,356.0 L 257.8,436.1 L 256.9,477.1 L 256.9,497.6 L 256.1,522.3 L 257.5,524.3 L 259.4,525.0 L 263.9,524.9 L 267.2,526.2 L 274.8,533.7 L 281.4,537.5 L 290.1,539.2 L 328.3,540.0 L 378.2,539.4 L 419.2,539.6 L 439.3,539.4 L 455.7,537.1 L 472.9,533.8 L 477.4,531.8 L 481.0,529.5 L 483.9,526.8 L 519.8,486.1 L 519.8,486.1"/>

  <!-- Start/Finish Line -->
  <circle cx="519.8" cy="486.1" r="8" fill="#ffffff"/>

  <!-- Corner Numbers -->
  
    <!-- Turn 1 -->
    <circle cx="538.9" cy="460.2" r="12" fill="#27272a" stroke="#ef4444" stroke-width="3"/>
    <text x="538.9" y="465.2" text-anchor="middle" class="corner-num">1</text>

    <!-- Turn 2 -->
    <circle cx="519.7" cy="451.7" r="12" fill="#27272a" stroke="#ef4444" stroke-width="3"/>
    <text x="519.7" y="456.7" text-anchor="middle" class="corner-num">2</text>

    <!-- Turn 3 -->
    <circle cx="485.9" cy="471.5" r="12" fill="#27272a" stroke="#ef4444" stroke-width="3"/>
    <text x="485.9" y="476.5" text-anchor="middle" class="corner-num">3</text>

    <!-- Turn 4 -->
    <circle cx="460.6" cy="455.1" r="12" fill="#27272a" stroke="#ef4444" stroke-width="3"/>
    <text x="460.6" y="460.1" text-anchor="middle" class="corner-num">4</text>

    <!-- Turn 5 -->
    <circle cx="526.3" cy="229.3" r="12" fill="#27272a" stroke="#ef4444" stroke-width="3"/>
    <text x="526.3" y="234.3" text-anchor="middle" class="corner-num">5</text>

    <!-- Turn 6 -->
    <circle cx="543.9" cy="193.9" r="12" fill="#27272a" stroke="#3b82f6" stroke-width="3"/>
    <text x="543.9" y="198.9" text-anchor="middle" class="corner-num">6</text>

    <!-- Turn 7 -->
    <circle cx="530.2" cy="178.6" r="12" fill="#27272a" stroke="#3b82f6" stroke-width="3"/>
    <text x="530.2" y="183.6" text-anchor="middle" class="corner-num">7</text>

    <!-- Turn 8 -->
    <circle cx="534.4" cy="148.7" r="12" fill="#27272a" stroke="#3b82f6" stroke-width="3"/>
    <text x="534.4" y="153.7" text-anchor="middle" class="corner-num">8</text>

    <!-- Turn 9 -->
    <circle cx="405.1" cy="112.7" r="12" fill="#27272a" stroke="#3b82f6" stroke-width="3"/>
    <text x="405.1" y="117.7" text-anchor="middle" class="corner-num">9</text>

    <!-- Turn 10 -->
    <circle cx="341.1" cy="60.0" r="12" fill="#27272a" stroke="#3b82f6" stroke-width="3"/>
    <text x="341.1" y="65.0" text-anchor="middle" class="corner-num">10</text>

    <!-- Turn 11 -->
    <circle cx="309.5" cy="117.8" r="12" fill="#27272a" stroke="#3b82f6" stroke-width="3"/>
    <text x="309.5" y="122.8" text-anchor="middle" class="corner-num">11</text>

    <!-- Turn 12 -->
    <circle cx="271.8" cy="204.2" r="12" fill="#27272a" stroke="#eab308" stroke-width="3"/>
    <text x="271.8" y="209.2" text-anchor="middle" class="corner-num">12</text>

    <!-- Turn 13 -->
    <circle cx="260.3" cy="285.1" r="12" fill="#27272a" stroke="#eab308" stroke-width="3"/>
    <text x="260.3" y="290.1" text-anchor="middle" class="corner-num">13</text>

    <!-- Turn 14 -->
    <circle cx="256.9" cy="497.6" r="12" fill="#27272a" stroke="#eab308" stroke-width="3"/>
    <text x="256.9" y="502.6" text-anchor="middle" class="corner-num">14</text>

    <!-- Turn 15 -->
    <circle cx="274.8" cy="533.7" r="12" fill="#27272a" stroke="#eab308" stroke-width="3"/>
    <text x="274.8" y="538.7" text-anchor="middle" class="corner-num">15</text>

    <!-- Turn 16 -->
    <circle cx="378.2" cy="539.4" r="12" fill="#27272a" stroke="#eab308" stroke-width="3"/>
    <text x="378.2" y="544.4" text-anchor="middle" class="corner-num">16</text>

    <!-- Turn 17 -->
    <circle cx="477.4" cy="531.8" r="12" fill="#27272a" stroke="#eab308" stroke-width="3"/>
    <text x="477.4" y="536.8" text-anchor="middle" class="corner-num">17</text>

  <!-- Circuit Name -->
  <text x="400" y="560" text-anchor="middle" font-family="Arial, sans-serif" font-size="18" font-weight="bold" fill="#ffffff">Las Vegas Strip Circuit</text>
  <text x="400" y="580" text-anchor="middle" font-family="Arial, sans-serif" font-size="12" fill="#71717a">Las Vegas • 6.201 km • 17 Turns</text>
</svg>