<svg xmlns="http://www.w3.org/2000/svg" viewBox="0 0 800 600" fill="none">
  <defs>
    <style>
      .sector1 { stroke: #ef4444; }
      .sector2 { stroke: #3b82f6; }
      .sector3 { stroke: #eab308; }
      .track { stroke-width: 10; stroke-linecap: round; stroke-linejoin: round; fill: none; }
      .corner-num { font-family: Arial, sans-serif; font-size: 10px; font-weight: bold; fill: #ffffff; }
      .start-finish { stroke: #ffffff; stroke-width: 3; }
    </style>
  </defs>

  <!-- Track Background -->
  <rect width="800" height="600" fill="#18181b"/>

  <!-- Sector 1 - Red -->
  <path class="track sector1" d="M 509.8,470.6 L 522.2,456.7 L 524.8,453.8 L 526.7,450.6 L 527.3,446.8 L 525.7,443.5 L 523.1,441.3 L 518.4,439.5 L 514.0,438.8 L 509.7,439.0 L 505.7,440.2 L 496.9,445.5 L 488.7,453.6 L 485.6,455.7 L 478.8,457.2 L 475.1,457.1 L 468.4,454.9 L 464.7,452.8 L 461.3,449.9 L 455.6,442.2 L 453.3,435.7 L 451.7,242.5 L 452.9,239.6 L 455.2,238.1 L 495.1,238.9 L 507.0,238.8 L 513.2,237.3 L 515.8,235.2 L 522.8,228.3 L 526.0,223.8 L 528.4,219.0 L 530.2,214.8 L 531.2,209.3 L 531.9,202.7"/>

  <!-- Sector 2 - Blue -->
  <path class="track sector2" d="M 531.9,202.7 L 531.7,198.9 L 529.5,197.5 L 523.8,196.9 L 521.8,195.6 L 520.0,192.9 L 519.3,188.8 L 519.7,185.7 L 525.2,176.0 L 526.2,173.5 L 528.6,169.0 L 527.7,164.3 L 523.2,161.3 L 514.7,160.4 L 451.6,158.8 L 428.2,155.4 L 420.5,151.7 L 412.0,142.9 L 404.7,128.3 L 393.5,102.0 L 386.3,94.4 L 378.9,89.3 L 371.3,86.5 L 359.5,82.7 L 346.0,80.0 L 344.2,80.4 L 342.4,81.8 L 341.1,86.4 L 339.7,89.5 L 325.7,116.8 L 317.1,133.0 L 312.5,141.2 L 307.9,149.2 L 299.9,163.1 L 291.6,181.8"/>

  <!-- Sector 3 - Yellow -->
  <path class="track sector3" d="M 291.6,181.8 L 287.3,195.9 L 282.5,212.2 L 279.3,223.8 L 276.9,235.4 L 275.0,247.2 L 272.9,264.4 L 272.4,274.4 L 271.9,286.4 L 272.1,318.8 L 272.2,337.3 L 272.3,351.3 L 269.6,424.7 L 268.8,462.4 L 268.8,481.2 L 268.1,503.8 L 269.3,505.6 L 271.1,506.2 L 275.2,506.1 L 278.3,507.3 L 285.2,514.2 L 291.2,517.7 L 299.3,519.3 L 334.2,520.0 L 380.0,519.5 L 417.6,519.7 L 436.0,519.4 L 451.1,517.3 L 466.8,514.3 L 470.9,512.5 L 474.2,510.4 L 476.9,507.9 L 509.8,470.6 L 509.8,470.6"/>

  <!-- Start/Finish Line -->
  <circle cx="509.8" cy="470.6" r="6" fill="#ffffff"/>

  <!-- Corner Numbers -->
  
    <!-- Turn 1 -->
    <circle cx="527.3" cy="446.8" r="10" fill="#27272a" stroke="#ef4444" stroke-width="2"/>
    <text x="527.3" y="450.8" text-anchor="middle" class="corner-num">1</text>

    <!-- Turn 2 -->
    <circle cx="509.7" cy="439.0" r="10" fill="#27272a" stroke="#ef4444" stroke-width="2"/>
    <text x="509.7" y="443.0" text-anchor="middle" class="corner-num">2</text>

    <!-- Turn 3 -->
    <circle cx="478.8" cy="457.2" r="10" fill="#27272a" stroke="#ef4444" stroke-width="2"/>
    <text x="478.8" y="461.2" text-anchor="middle" class="corner-num">3</text>

    <!-- Turn 4 -->
    <circle cx="455.6" cy="442.2" r="10" fill="#27272a" stroke="#ef4444" stroke-width="2"/>
    <text x="455.6" y="446.2" text-anchor="middle" class="corner-num">4</text>

    <!-- Turn 5 -->
    <circle cx="515.8" cy="235.2" r="10" fill="#27272a" stroke="#ef4444" stroke-width="2"/>
    <text x="515.8" y="239.2" text-anchor="middle" class="corner-num">5</text>

    <!-- Turn 6 -->
    <circle cx="531.9" cy="202.7" r="10" fill="#27272a" stroke="#3b82f6" stroke-width="2"/>
    <text x="531.9" y="206.7" text-anchor="middle" class="corner-num">6</text>

    <!-- Turn 7 -->
    <circle cx="519.3" cy="188.8" r="10" fill="#27272a" stroke="#3b82f6" stroke-width="2"/>
    <text x="519.3" y="192.8" text-anchor="middle" class="corner-num">7</text>

    <!-- Turn 8 -->
    <circle cx="523.2" cy="161.3" r="10" fill="#27272a" stroke="#3b82f6" stroke-width="2"/>
    <text x="523.2" y="165.3" text-anchor="middle" class="corner-num">8</text>

    <!-- Turn 9 -->
    <circle cx="404.7" cy="128.3" r="10" fill="#27272a" stroke="#3b82f6" stroke-width="2"/>
    <text x="404.7" y="132.3" text-anchor="middle" class="corner-num">9</text>

    <!-- Turn 10 -->
    <circle cx="346.0" cy="80.0" r="10" fill="#27272a" stroke="#3b82f6" stroke-width="2"/>
    <text x="346.0" y="84.0" text-anchor="middle" class="corner-num">10</text>

    <!-- Turn 11 -->
    <circle cx="317.1" cy="133.0" r="10" fill="#27272a" stroke="#3b82f6" stroke-width="2"/>
    <text x="317.1" y="137.0" text-anchor="middle" class="corner-num">11</text>

    <!-- Turn 12 -->
    <circle cx="282.5" cy="212.2" r="10" fill="#27272a" stroke="#eab308" stroke-width="2"/>
    <text x="282.5" y="216.2" text-anchor="middle" class="corner-num">12</text>

    <!-- Turn 13 -->
    <circle cx="271.9" cy="286.4" r="10" fill="#27272a" stroke="#eab308" stroke-width="2"/>
    <text x="271.9" y="290.4" text-anchor="middle" class="corner-num">13</text>

    <!-- Turn 14 -->
    <circle cx="268.8" cy="481.2" r="10" fill="#27272a" stroke="#eab308" stroke-width="2"/>
    <text x="268.8" y="485.2" text-anchor="middle" class="corner-num">14</text>

    <!-- Turn 15 -->
    <circle cx="285.2" cy="514.2" r="10" fill="#27272a" stroke="#eab308" stroke-width="2"/>
    <text x="285.2" y="518.2" text-anchor="middle" class="corner-num">15</text>

    <!-- Turn 16 -->
    <circle cx="380.0" cy="519.5" r="10" fill="#27272a" stroke="#eab308" stroke-width="2"/>
    <text x="380.0" y="523.5" text-anchor="middle" class="corner-num">16</text>

    <!-- Turn 17 -->
    <circle cx="470.9" cy="512.5" r="10" fill="#27272a" stroke="#eab308" stroke-width="2"/>
    <text x="470.9" y="516.5" text-anchor="middle" class="corner-num">17</text>

  <!-- Legend -->
  <rect x="30" y="30" width="120" height="90" rx="6" fill="#27272a" stroke="#3f3f46"/>
  <line x1="45" y1="50" x2="75" y2="50" stroke="#ef4444" stroke-width="4"/>
  <text x="85" y="54" font-family="Arial, sans-serif" font-size="9px" fill="#ffffff">Sector 1</text>
  <line x1="45" y1="70" x2="75" y2="70" stroke="#3b82f6" stroke-width="4"/>
  <text x="85" y="74" font-family="Arial, sans-serif" font-size="9px" fill="#ffffff">Sector 2</text>
  <line x1="45" y1="90" x2="75" y2="90" stroke="#eab308" stroke-width="4"/>
  <text x="85" y="94" font-family="Arial, sans-serif" font-size="9px" fill="#ffffff">Sector 3</text>

  <!-- Circuit Name -->
  <text x="400" y="560" text-anchor="middle" font-family="Arial, sans-serif" font-size="18" font-weight="bold" fill="#ffffff">Las Vegas Strip Circuit</text>
  <text x="400" y="580" text-anchor="middle" font-family="Arial, sans-serif" font-size="12" fill="#71717a">Las Vegas • 6.201 km • 17 Turns</text>
</svg>