<svg xmlns="http://www.w3.org/2000/svg" viewBox="0 0 800 600" fill="none">
  <defs>
    <style>
      .sector1 { stroke: #ef4444; }
      .sector2 { stroke: #3b82f6; }
      .sector3 { stroke: #eab308; }
      .track { stroke-width: 10; stroke-linecap: round; stroke-linejoin: round; fill: none; }
      .corner-num { font-family: Arial, sans-serif; font-size: 10px; font-weight: bold; fill: #ffffff; }
      .start-finish { stroke: #ffffff; stroke-width: 3; }
    </style>
  </defs>

  <!-- Track Background -->
  <rect width="800" height="600" fill="#18181b"/>

  <!-- Sector 1 - Red -->
  <path class="track sector1" d="M 279.1,346.3 L 232.9,261.9 L 214.8,229.1 L 213.6,223.0 L 214.4,216.6 L 216.7,211.7 L 220.3,208.1 L 225.9,204.8 L 232.3,203.8 L 238.3,204.9 L 284.3,232.8 L 288.7,234.1 L 294.5,234.3 L 301.2,232.3 L 306.6,227.3 L 309.7,221.8 L 310.4,216.2 L 309.4,176.1 L 310.0,170.6 L 311.7,165.9 L 313.9,161.4 L 317.0,157.7 L 382.7,84.9 L 386.3,82.0 L 391.9,80.4 L 397.3,80.0 L 402.8,81.4 L 407.0,83.9 L 426.5,102.6 L 428.7,106.5 L 429.7,111.9 L 429.5,116.6 L 428.2,121.2 L 425.3,125.4 L 382.7,172.2 L 380.8,175.6"/>

  <!-- Sector 2 - Blue -->
  <path class="track sector2" d="M 380.8,175.6 L 380.7,179.3 L 381.7,182.6 L 383.8,185.0 L 386.9,187.0 L 391.1,187.5 L 394.1,186.7 L 397.9,184.9 L 472.4,155.1 L 477.3,154.6 L 483.3,155.4 L 488.4,157.7 L 492.3,161.7 L 494.7,166.7 L 495.7,171.7 L 495.6,176.1 L 494.2,180.3 L 491.1,185.1 L 488.6,187.5 L 482.8,192.2 L 476.3,199.6 L 470.9,207.1 L 466.5,215.0 L 462.8,224.4 L 460.8,230.7 L 458.6,241.9 L 456.7,246.7 L 453.5,250.7 L 450.1,253.2 L 445.5,255.3 L 403.2,265.6 L 399.5,267.8 L 396.7,270.3 L 395.0,274.5 L 394.3,278.5 L 395.1,284.6 L 399.7,290.7"/>

  <!-- Sector 3 - Yellow -->
  <path class="track sector3" d="M 399.7,290.7 L 407.6,298.6 L 419.8,307.9 L 432.5,315.1 L 445.4,319.7 L 458.3,322.5 L 470.9,323.6 L 484.7,322.3 L 548.0,315.2 L 553.8,316.5 L 560.5,319.6 L 565.7,323.6 L 570.5,330.2 L 585.2,357.5 L 586.4,362.2 L 586.4,366.4 L 585.7,370.9 L 582.6,376.6 L 559.9,413.4 L 557.0,416.1 L 552.7,418.1 L 548.3,419.4 L 542.4,419.2 L 469.7,404.5 L 464.5,404.5 L 459.3,406.0 L 455.0,409.0 L 451.9,412.8 L 401.2,511.4 L 397.2,516.1 L 392.6,518.9 L 385.9,520.0 L 380.8,519.4 L 375.9,517.3 L 370.9,513.0 L 279.1,346.3 L 279.1,346.3"/>

  <!-- Start/Finish Line -->
  <circle cx="279.1" cy="346.3" r="6" fill="#ffffff"/>

  <!-- Corner Numbers -->
  
    <!-- Turn 1 -->
    <circle cx="216.7" cy="211.7" r="10" fill="#27272a" stroke="#ef4444" stroke-width="2"/>
    <text x="216.7" y="215.7" text-anchor="middle" class="corner-num">1</text>

    <!-- Turn 2 -->
    <circle cx="294.5" cy="234.3" r="10" fill="#27272a" stroke="#ef4444" stroke-width="2"/>
    <text x="294.5" y="238.3" text-anchor="middle" class="corner-num">2</text>

    <!-- Turn 3 -->
    <circle cx="311.7" cy="165.9" r="10" fill="#27272a" stroke="#ef4444" stroke-width="2"/>
    <text x="311.7" y="169.9" text-anchor="middle" class="corner-num">3</text>

    <!-- Turn 4 -->
    <circle cx="397.3" cy="80.0" r="10" fill="#27272a" stroke="#ef4444" stroke-width="2"/>
    <text x="397.3" y="84.0" text-anchor="middle" class="corner-num">4</text>

    <!-- Turn 5 -->
    <circle cx="429.5" cy="116.6" r="10" fill="#27272a" stroke="#ef4444" stroke-width="2"/>
    <text x="429.5" y="120.6" text-anchor="middle" class="corner-num">5</text>

    <!-- Turn 6 -->
    <circle cx="391.1" cy="187.5" r="10" fill="#27272a" stroke="#3b82f6" stroke-width="2"/>
    <text x="391.1" y="191.5" text-anchor="middle" class="corner-num">6</text>

    <!-- Turn 7 -->
    <circle cx="488.4" cy="157.7" r="10" fill="#27272a" stroke="#3b82f6" stroke-width="2"/>
    <text x="488.4" y="161.7" text-anchor="middle" class="corner-num">7</text>

    <!-- Turn 8 -->
    <circle cx="488.6" cy="187.5" r="10" fill="#27272a" stroke="#3b82f6" stroke-width="2"/>
    <text x="488.6" y="191.5" text-anchor="middle" class="corner-num">8</text>

    <!-- Turn 9 -->
    <circle cx="460.8" cy="230.7" r="10" fill="#27272a" stroke="#3b82f6" stroke-width="2"/>
    <text x="460.8" y="234.7" text-anchor="middle" class="corner-num">9</text>

    <!-- Turn 10 -->
    <circle cx="403.2" cy="265.6" r="10" fill="#27272a" stroke="#3b82f6" stroke-width="2"/>
    <text x="403.2" y="269.6" text-anchor="middle" class="corner-num">10</text>

    <!-- Turn 11 -->
    <circle cx="407.6" cy="298.6" r="10" fill="#27272a" stroke="#eab308" stroke-width="2"/>
    <text x="407.6" y="302.6" text-anchor="middle" class="corner-num">11</text>

    <!-- Turn 12 -->
    <circle cx="484.7" cy="322.3" r="10" fill="#27272a" stroke="#eab308" stroke-width="2"/>
    <text x="484.7" y="326.3" text-anchor="middle" class="corner-num">12</text>

    <!-- Turn 13 -->
    <circle cx="585.2" cy="357.5" r="10" fill="#27272a" stroke="#eab308" stroke-width="2"/>
    <text x="585.2" y="361.5" text-anchor="middle" class="corner-num">13</text>

    <!-- Turn 14 -->
    <circle cx="552.7" cy="418.1" r="10" fill="#27272a" stroke="#eab308" stroke-width="2"/>
    <text x="552.7" y="422.1" text-anchor="middle" class="corner-num">14</text>

    <!-- Turn 15 -->
    <circle cx="455.0" cy="409.0" r="10" fill="#27272a" stroke="#eab308" stroke-width="2"/>
    <text x="455.0" y="413.0" text-anchor="middle" class="corner-num">15</text>

    <!-- Turn 16 -->
    <circle cx="385.9" cy="520.0" r="10" fill="#27272a" stroke="#eab308" stroke-width="2"/>
    <text x="385.9" y="524.0" text-anchor="middle" class="corner-num">16</text>

  <!-- Legend -->
  <rect x="30" y="30" width="120" height="90" rx="6" fill="#27272a" stroke="#3f3f46"/>
  <line x1="45" y1="50" x2="75" y2="50" stroke="#ef4444" stroke-width="4"/>
  <text x="85" y="54" font-family="Arial, sans-serif" font-size="9px" fill="#ffffff">Sector 1</text>
  <line x1="45" y1="70" x2="75" y2="70" stroke="#3b82f6" stroke-width="4"/>
  <text x="85" y="74" font-family="Arial, sans-serif" font-size="9px" fill="#ffffff">Sector 2</text>
  <line x1="45" y1="90" x2="75" y2="90" stroke="#eab308" stroke-width="4"/>
  <text x="85" y="94" font-family="Arial, sans-serif" font-size="9px" fill="#ffffff">Sector 3</text>

  <!-- Circuit Name -->
  <text x="400" y="560" text-anchor="middle" font-family="Arial, sans-serif" font-size="18" font-weight="bold" fill="#ffffff">Lusail International Circuit</text>
  <text x="400" y="580" text-anchor="middle" font-family="Arial, sans-serif" font-size="12" fill="#71717a">Lusail • 5.419 km • 16 Turns</text>
</svg>