<svg xmlns="http://www.w3.org/2000/svg" viewBox="0 0 800 600" fill="none">
  <defs>
    <style>
      .sector1 { stroke: #ef4444; }
      .sector2 { stroke: #3b82f6; }
      .sector3 { stroke: #eab308; }
      .track { stroke-width: 10; stroke-linecap: round; stroke-linejoin: round; fill: none; }
      .corner-num { font-family: Arial, sans-serif; font-size: 10px; font-weight: bold; fill: #ffffff; }
      .start-finish { stroke: #ffffff; stroke-width: 3; }
    </style>
  </defs>

  <!-- Track Background -->
  <rect width="800" height="600" fill="#18181b"/>

  <!-- Sector 1 - Red -->
  <path class="track sector1" d="M 706.0,250.5 L 718.8,347.8 L 720.0,360.3 L 718.8,366.6 L 715.3,372.0 L 699.5,396.1 L 696.7,400.0 L 693.7,401.5 L 689.9,401.9 L 681.3,401.5 L 641.3,399.3 L 579.7,392.7 L 571.9,390.7 L 567.0,387.7 L 563.1,383.4 L 559.9,375.0 L 559.4,366.6 L 559.7,361.6 L 558.1,359.1 L 549.5,358.5 L 540.6,358.3 L 495.1,355.7 L 367.2,348.9 L 351.7,347.0 L 340.9,344.1 L 329.7,338.5 L 284.4,298.7 L 265.0,282.1 L 261.7,279.5 L 257.1,278.8 L 251.3,279.8 L 247.0,282.7 L 244.2,285.5 L 235.9,310.5 L 231.6,329.2 L 220.8,385.8 L 198.4,499.8 L 197.2,502.2 L 195.5,504.3"/>

  <!-- Sector 2 - Blue -->
  <path class="track sector2" d="M 195.5,504.3 L 192.5,506.5 L 188.8,507.4 L 184.2,507.3 L 182.2,506.4 L 176.9,499.8 L 171.7,492.4 L 167.8,484.0 L 163.6,479.8 L 143.9,464.1 L 134.1,455.0 L 128.0,449.1 L 124.2,443.8 L 120.4,430.8 L 121.0,424.7 L 122.0,420.1 L 124.7,414.7 L 123.3,411.3 L 118.4,409.6 L 109.2,406.5 L 101.3,401.5 L 91.7,394.7 L 84.2,388.1 L 81.5,382.6 L 80.3,374.8 L 80.0,368.0 L 87.6,355.1 L 118.1,300.5 L 157.3,230.0 L 164.3,217.3 L 170.8,211.2 L 173.5,209.0 L 182.5,207.3 L 190.4,212.1 L 200.4,219.1 L 241.5,262.2 L 245.2,264.1 L 248.2,263.4 L 251.1,258.0 L 267.3,226.3"/>

  <!-- Sector 3 - Yellow -->
  <path class="track sector3" d="M 267.3,226.3 L 289.0,189.5 L 293.0,183.6 L 296.8,182.2 L 303.7,185.3 L 307.7,187.6 L 423.1,254.4 L 442.0,261.7 L 455.1,264.1 L 617.9,273.7 L 624.2,272.5 L 632.4,268.6 L 639.2,263.8 L 643.5,255.9 L 644.6,248.4 L 643.4,230.5 L 638.7,206.3 L 624.6,167.0 L 620.7,158.7 L 618.1,151.8 L 616.8,143.3 L 616.8,132.4 L 619.1,108.3 L 623.3,98.8 L 628.9,93.1 L 633.7,92.6 L 638.0,93.8 L 642.8,99.3 L 645.4,102.7 L 647.9,106.1 L 652.4,109.9 L 662.7,115.0 L 671.3,117.4 L 682.2,116.3 L 687.8,118.6 L 690.6,122.5 L 692.2,128.9 L 696.6,182.5 L 706.0,250.5 L 706.0,250.5"/>

  <!-- Start/Finish Line -->
  <circle cx="706.0" cy="250.5" r="6" fill="#ffffff"/>

  <!-- Corner Numbers -->
  
    <!-- Turn 1 -->
    <circle cx="715.3" cy="372.0" r="10" fill="#27272a" stroke="#ef4444" stroke-width="2"/>
    <text x="715.3" y="376.0" text-anchor="middle" class="corner-num">1</text>

    <!-- Turn 2 -->
    <circle cx="681.3" cy="401.5" r="10" fill="#27272a" stroke="#ef4444" stroke-width="2"/>
    <text x="681.3" y="405.5" text-anchor="middle" class="corner-num">2</text>

    <!-- Turn 3 -->
    <circle cx="567.0" cy="387.7" r="10" fill="#27272a" stroke="#ef4444" stroke-width="2"/>
    <text x="567.0" y="391.7" text-anchor="middle" class="corner-num">3</text>

    <!-- Turn 4 -->
    <circle cx="558.1" cy="359.1" r="10" fill="#27272a" stroke="#ef4444" stroke-width="2"/>
    <text x="558.1" y="363.1" text-anchor="middle" class="corner-num">4</text>

    <!-- Turn 5 -->
    <circle cx="329.7" cy="338.5" r="10" fill="#27272a" stroke="#ef4444" stroke-width="2"/>
    <text x="329.7" y="342.5" text-anchor="middle" class="corner-num">5</text>

    <!-- Turn 6 -->
    <circle cx="244.2" cy="285.5" r="10" fill="#27272a" stroke="#ef4444" stroke-width="2"/>
    <text x="244.2" y="289.5" text-anchor="middle" class="corner-num">6</text>

    <!-- Turn 7 -->
    <circle cx="192.5" cy="506.5" r="10" fill="#27272a" stroke="#3b82f6" stroke-width="2"/>
    <text x="192.5" y="510.5" text-anchor="middle" class="corner-num">7</text>

    <!-- Turn 8 -->
    <circle cx="163.6" cy="479.8" r="10" fill="#27272a" stroke="#3b82f6" stroke-width="2"/>
    <text x="163.6" y="483.8" text-anchor="middle" class="corner-num">8</text>

    <!-- Turn 9 -->
    <circle cx="121.0" cy="424.7" r="10" fill="#27272a" stroke="#3b82f6" stroke-width="2"/>
    <text x="121.0" y="428.7" text-anchor="middle" class="corner-num">9</text>

    <!-- Turn 10 -->
    <circle cx="91.7" cy="394.7" r="10" fill="#27272a" stroke="#3b82f6" stroke-width="2"/>
    <text x="91.7" y="398.7" text-anchor="middle" class="corner-num">10</text>

    <!-- Turn 11 -->
    <circle cx="87.6" cy="355.1" r="10" fill="#27272a" stroke="#3b82f6" stroke-width="2"/>
    <text x="87.6" y="359.1" text-anchor="middle" class="corner-num">11</text>

    <!-- Turn 12 -->
    <circle cx="173.5" cy="209.0" r="10" fill="#27272a" stroke="#3b82f6" stroke-width="2"/>
    <text x="173.5" y="213.0" text-anchor="middle" class="corner-num">12</text>

    <!-- Turn 13 -->
    <circle cx="248.2" cy="263.4" r="10" fill="#27272a" stroke="#3b82f6" stroke-width="2"/>
    <text x="248.2" y="267.4" text-anchor="middle" class="corner-num">13</text>

    <!-- Turn 14 -->
    <circle cx="307.7" cy="187.6" r="10" fill="#27272a" stroke="#eab308" stroke-width="2"/>
    <text x="307.7" y="191.6" text-anchor="middle" class="corner-num">14</text>

    <!-- Turn 15 -->
    <circle cx="639.2" cy="263.8" r="10" fill="#27272a" stroke="#eab308" stroke-width="2"/>
    <text x="639.2" y="267.8" text-anchor="middle" class="corner-num">15</text>

    <!-- Turn 16 -->
    <circle cx="618.1" cy="151.8" r="10" fill="#27272a" stroke="#eab308" stroke-width="2"/>
    <text x="618.1" y="155.8" text-anchor="middle" class="corner-num">16</text>

    <!-- Turn 17 -->
    <circle cx="628.9" cy="93.1" r="10" fill="#27272a" stroke="#eab308" stroke-width="2"/>
    <text x="628.9" y="97.1" text-anchor="middle" class="corner-num">17</text>

    <!-- Turn 18 -->
    <circle cx="645.4" cy="102.7" r="10" fill="#27272a" stroke="#eab308" stroke-width="2"/>
    <text x="645.4" y="106.7" text-anchor="middle" class="corner-num">18</text>

    <!-- Turn 19 -->
    <circle cx="682.2" cy="116.3" r="10" fill="#27272a" stroke="#eab308" stroke-width="2"/>
    <text x="682.2" y="120.3" text-anchor="middle" class="corner-num">19</text>

  <!-- Legend -->
  <rect x="30" y="30" width="120" height="90" rx="6" fill="#27272a" stroke="#3f3f46"/>
  <line x1="45" y1="50" x2="75" y2="50" stroke="#ef4444" stroke-width="4"/>
  <text x="85" y="54" font-family="Arial, sans-serif" font-size="9px" fill="#ffffff">Sector 1</text>
  <line x1="45" y1="70" x2="75" y2="70" stroke="#3b82f6" stroke-width="4"/>
  <text x="85" y="74" font-family="Arial, sans-serif" font-size="9px" fill="#ffffff">Sector 2</text>
  <line x1="45" y1="90" x2="75" y2="90" stroke="#eab308" stroke-width="4"/>
  <text x="85" y="94" font-family="Arial, sans-serif" font-size="9px" fill="#ffffff">Sector 3</text>

  <!-- Circuit Name -->
  <text x="400" y="560" text-anchor="middle" font-family="Arial, sans-serif" font-size="18" font-weight="bold" fill="#ffffff">Marina Bay Street Circuit</text>
  <text x="400" y="580" text-anchor="middle" font-family="Arial, sans-serif" font-size="12" fill="#71717a">Singapore • 4.940 km • 19 Turns</text>
</svg>