<svg xmlns="http://www.w3.org/2000/svg" viewBox="0 0 800 600" fill="none">
  <defs>
    <style>
      .sector1 { stroke: #ef4444; }
      .sector2 { stroke: #3b82f6; }
      .sector3 { stroke: #eab308; }
      .track { stroke-width: 8; stroke-linecap: round; stroke-linejoin: round; fill: none; }
      .corner-num { font-family: Arial, sans-serif; font-size: 12px; font-weight: bold; fill: #ffffff; }
      .start-finish { stroke: #ffffff; stroke-width: 3; }
    </style>
  </defs>

  <!-- Track Background -->
  <rect width="800" height="600" fill="#18181b"/>

  <!-- Sector 1 - Red -->
  <path class="track sector1" d="M 725.1,247.4 L 738.7,350.7 L 740.0,364.1 L 738.7,370.7 L 735.0,376.5 L 718.3,402.1 L 715.3,406.3 L 712.1,407.8 L 708.1,408.3 L 698.9,407.8 L 656.4,405.5 L 591.0,398.5 L 582.7,396.3 L 577.4,393.2 L 573.3,388.7 L 569.9,379.7 L 569.4,370.8 L 569.7,365.5 L 568.0,362.7 L 558.8,362.1 L 549.4,361.9 L 501.1,359.1 L 365.2,351.9 L 348.7,349.9 L 337.2,346.8 L 325.3,341.0 L 277.1,298.6 L 256.5,281.0 L 253.1,278.2 L 248.2,277.4 L 242.0,278.6 L 237.4,281.6 L 234.4,284.6 L 225.7,311.1 L 221.1,331.0 L 209.6,391.2 L 185.8,512.3 L 184.5,514.8 L 182.8,517.1"/>

  <!-- Sector 2 - Blue -->
  <path class="track sector2" d="M 182.8,517.1 L 179.5,519.4 L 175.6,520.3 L 170.8,520.2 L 168.5,519.3 L 163.0,512.3 L 157.4,504.4 L 153.3,495.5 L 148.9,491.1 L 127.9,474.3 L 117.5,464.7 L 111.0,458.4 L 107.0,452.8 L 102.9,438.9 L 103.5,432.5 L 104.7,427.6 L 107.5,421.9 L 106.0,418.3 L 100.8,416.5 L 91.0,413.1 L 82.7,407.8 L 72.4,400.6 L 64.5,393.6 L 61.6,387.8 L 60.3,379.5 L 60.0,372.3 L 68.0,358.6 L 100.4,300.6 L 142.2,225.6 L 149.6,212.1 L 156.5,205.7 L 159.3,203.4 L 168.9,201.5 L 177.3,206.6 L 187.9,214.0 L 231.6,259.9 L 235.5,261.9 L 238.7,261.1 L 241.8,255.4 L 259.0,221.7"/>

  <!-- Sector 3 - Yellow -->
  <path class="track sector3" d="M 259.0,221.7 L 282.0,182.6 L 286.3,176.3 L 290.3,174.9 L 297.7,178.1 L 301.9,180.6 L 424.6,251.6 L 444.6,259.3 L 458.5,261.8 L 631.5,272.1 L 638.2,270.7 L 647.0,266.7 L 654.1,261.6 L 658.7,253.2 L 659.9,245.2 L 658.6,226.2 L 653.6,200.4 L 638.6,158.7 L 634.5,149.8 L 631.8,142.5 L 630.3,133.5 L 630.3,122.0 L 632.8,96.3 L 637.2,86.2 L 643.2,80.1 L 648.3,79.7 L 652.9,80.9 L 658.0,86.8 L 660.7,90.3 L 663.4,94.0 L 668.2,98.0 L 679.1,103.4 L 688.3,105.9 L 699.8,104.8 L 705.7,107.2 L 708.8,111.4 L 710.5,118.2 L 715.2,175.1 L 725.1,247.4 L 725.1,247.4"/>

  <!-- Start/Finish Line -->
  <circle cx="725.1" cy="247.4" r="8" fill="#ffffff"/>

  <!-- Corner Numbers -->
  
    <!-- Turn 1 -->
    <circle cx="735.0" cy="376.5" r="12" fill="#27272a" stroke="#ef4444" stroke-width="3"/>
    <text x="735.0" y="381.5" text-anchor="middle" class="corner-num">1</text>

    <!-- Turn 2 -->
    <circle cx="698.9" cy="407.8" r="12" fill="#27272a" stroke="#ef4444" stroke-width="3"/>
    <text x="698.9" y="412.8" text-anchor="middle" class="corner-num">2</text>

    <!-- Turn 3 -->
    <circle cx="577.4" cy="393.2" r="12" fill="#27272a" stroke="#ef4444" stroke-width="3"/>
    <text x="577.4" y="398.2" text-anchor="middle" class="corner-num">3</text>

    <!-- Turn 4 -->
    <circle cx="568.0" cy="362.7" r="12" fill="#27272a" stroke="#ef4444" stroke-width="3"/>
    <text x="568.0" y="367.7" text-anchor="middle" class="corner-num">4</text>

    <!-- Turn 5 -->
    <circle cx="325.3" cy="341.0" r="12" fill="#27272a" stroke="#ef4444" stroke-width="3"/>
    <text x="325.3" y="346.0" text-anchor="middle" class="corner-num">5</text>

    <!-- Turn 6 -->
    <circle cx="234.4" cy="284.6" r="12" fill="#27272a" stroke="#ef4444" stroke-width="3"/>
    <text x="234.4" y="289.6" text-anchor="middle" class="corner-num">6</text>

    <!-- Turn 7 -->
    <circle cx="179.5" cy="519.4" r="12" fill="#27272a" stroke="#3b82f6" stroke-width="3"/>
    <text x="179.5" y="524.4" text-anchor="middle" class="corner-num">7</text>

    <!-- Turn 8 -->
    <circle cx="148.9" cy="491.1" r="12" fill="#27272a" stroke="#3b82f6" stroke-width="3"/>
    <text x="148.9" y="496.1" text-anchor="middle" class="corner-num">8</text>

    <!-- Turn 9 -->
    <circle cx="103.5" cy="432.5" r="12" fill="#27272a" stroke="#3b82f6" stroke-width="3"/>
    <text x="103.5" y="437.5" text-anchor="middle" class="corner-num">9</text>

    <!-- Turn 10 -->
    <circle cx="72.4" cy="400.6" r="12" fill="#27272a" stroke="#3b82f6" stroke-width="3"/>
    <text x="72.4" y="405.6" text-anchor="middle" class="corner-num">10</text>

    <!-- Turn 11 -->
    <circle cx="68.0" cy="358.6" r="12" fill="#27272a" stroke="#3b82f6" stroke-width="3"/>
    <text x="68.0" y="363.6" text-anchor="middle" class="corner-num">11</text>

    <!-- Turn 12 -->
    <circle cx="159.3" cy="203.4" r="12" fill="#27272a" stroke="#3b82f6" stroke-width="3"/>
    <text x="159.3" y="208.4" text-anchor="middle" class="corner-num">12</text>

    <!-- Turn 13 -->
    <circle cx="238.7" cy="261.1" r="12" fill="#27272a" stroke="#3b82f6" stroke-width="3"/>
    <text x="238.7" y="266.1" text-anchor="middle" class="corner-num">13</text>

    <!-- Turn 14 -->
    <circle cx="301.9" cy="180.6" r="12" fill="#27272a" stroke="#eab308" stroke-width="3"/>
    <text x="301.9" y="185.6" text-anchor="middle" class="corner-num">14</text>

    <!-- Turn 15 -->
    <circle cx="654.1" cy="261.6" r="12" fill="#27272a" stroke="#eab308" stroke-width="3"/>
    <text x="654.1" y="266.6" text-anchor="middle" class="corner-num">15</text>

    <!-- Turn 16 -->
    <circle cx="631.8" cy="142.5" r="12" fill="#27272a" stroke="#eab308" stroke-width="3"/>
    <text x="631.8" y="147.5" text-anchor="middle" class="corner-num">16</text>

    <!-- Turn 17 -->
    <circle cx="643.2" cy="80.1" r="12" fill="#27272a" stroke="#eab308" stroke-width="3"/>
    <text x="643.2" y="85.1" text-anchor="middle" class="corner-num">17</text>

    <!-- Turn 18 -->
    <circle cx="660.7" cy="90.3" r="12" fill="#27272a" stroke="#eab308" stroke-width="3"/>
    <text x="660.7" y="95.3" text-anchor="middle" class="corner-num">18</text>

    <!-- Turn 19 -->
    <circle cx="699.8" cy="104.8" r="12" fill="#27272a" stroke="#eab308" stroke-width="3"/>
    <text x="699.8" y="109.8" text-anchor="middle" class="corner-num">19</text>

  <!-- Circuit Name -->
  <text x="400" y="560" text-anchor="middle" font-family="Arial, sans-serif" font-size="18" font-weight="bold" fill="#ffffff">Marina Bay Street Circuit</text>
  <text x="400" y="580" text-anchor="middle" font-family="Arial, sans-serif" font-size="12" fill="#71717a">Singapore • 4.940 km • 19 Turns</text>
</svg>