<svg xmlns="http://www.w3.org/2000/svg" viewBox="0 0 800 600" fill="none">
  <defs>
    <style>
      .sector1 { stroke: #ef4444; }
      .sector2 { stroke: #3b82f6; }
      .sector3 { stroke: #eab308; }
      .track { stroke-width: 8; stroke-linecap: round; stroke-linejoin: round; fill: none; }
      .corner-num { font-family: Arial, sans-serif; font-size: 12px; font-weight: bold; fill: #ffffff; }
      .start-finish { stroke: #ffffff; stroke-width: 3; }
    </style>
  </defs>

  <!-- Track Background -->
  <rect width="800" height="600" fill="#18181b"/>

  <!-- Sector 1 - Red -->
  <path class="track sector1" d="M 395.6,240.3 L 488.5,298.3 L 490.1,302.5 L 489.4,306.5 L 486.6,311.8 L 466.8,326.5 L 460.7,333.2 L 458.7,345.1 L 460.7,357.8 L 458.7,373.5 L 454.0,383.5 L 436.1,397.9 L 415.6,404.9 L 402.4,407.9 L 382.8,408.3 L 367.5,405.6 L 349.5,397.5 L 258.3,342.8 L 245.2,334.9 L 238.5,333.8 L 230.8,333.2 L 223.1,334.2 L 213.3,337.2 L 205.1,341.9 L 196.7,348.7 L 187.9,354.5 L 176.4,356.4 L 166.0,355.5 L 154.9,350.1 L 144.4,340.7 L 134.9,331.3 L 124.2,326.0 L 113.2,323.8"/>

  <!-- Sector 2 - Blue -->
  <path class="track sector2" d="M 113.2,323.8 L 100.0,326.1 L 87.8,329.9 L 77.6,334.8 L 70.0,341.8 L 62.8,353.1 L 60.0,365.0 L 60.3,375.1 L 62.5,381.8 L 66.2,386.4 L 73.7,390.5 L 82.7,390.5 L 93.8,388.0 L 106.3,388.1 L 131.9,393.5 L 178.9,403.1 L 227.5,401.6 L 301.7,398.6 L 322.2,405.1 L 347.5,414.1 L 368.0,421.3 L 395.4,430.0 L 423.9,434.8 L 452.6,435.2 L 482.7,430.2 L 510.2,420.6 L 573.0,397.7 L 609.4,383.8 L 627.0,376.0 L 671.9,352.1 L 696.1,336.6 L 700.9,330.1 L 699.3,324.6 L 695.0,320.4 L 683.9,313.7 L 676.1,307.9 L 671.9,299.5 L 671.0,290.7 L 673.5,279.9"/>

  <!-- Sector 3 - Yellow -->
  <path class="track sector3" d="M 673.5,279.9 L 679.5,273.9 L 686.5,271.1 L 707.3,272.4 L 717.6,271.0 L 722.2,268.0 L 729.2,261.2 L 740.0,241.9 L 739.3,237.6 L 734.0,235.5 L 729.3,232.0 L 729.1,224.8 L 737.7,197.0 L 737.0,192.3 L 733.1,189.1 L 711.5,187.2 L 398.9,176.1 L 149.7,164.8 L 142.4,166.7 L 140.9,172.5 L 143.4,179.6 L 152.0,187.3 L 165.5,197.5 L 179.9,205.3 L 191.7,208.2 L 202.1,207.4 L 214.8,202.8 L 244.3,188.9 L 260.9,184.5 L 281.3,182.7 L 301.4,185.5 L 320.3,193.4 L 395.6,240.3 L 395.6,240.3"/>

  <!-- Start/Finish Line -->
  <circle cx="395.6" cy="240.3" r="8" fill="#ffffff"/>

  <!-- Corner Numbers -->
  
    <!-- Turn 1 -->
    <circle cx="486.6" cy="311.8" r="12" fill="#27272a" stroke="#ef4444" stroke-width="3"/>
    <text x="486.6" y="316.8" text-anchor="middle" class="corner-num">1</text>

    <!-- Turn 2 -->
    <circle cx="460.7" cy="357.8" r="12" fill="#27272a" stroke="#ef4444" stroke-width="3"/>
    <text x="460.7" y="362.8" text-anchor="middle" class="corner-num">2</text>

    <!-- Turn 3 -->
    <circle cx="415.6" cy="404.9" r="12" fill="#27272a" stroke="#ef4444" stroke-width="3"/>
    <text x="415.6" y="409.9" text-anchor="middle" class="corner-num">3</text>

    <!-- Turn 4 -->
    <circle cx="245.2" cy="334.9" r="12" fill="#27272a" stroke="#ef4444" stroke-width="3"/>
    <text x="245.2" y="339.9" text-anchor="middle" class="corner-num">4</text>

    <!-- Turn 5 -->
    <circle cx="213.3" cy="337.2" r="12" fill="#27272a" stroke="#ef4444" stroke-width="3"/>
    <text x="213.3" y="342.2" text-anchor="middle" class="corner-num">5</text>

    <!-- Turn 6 -->
    <circle cx="176.4" cy="356.4" r="12" fill="#27272a" stroke="#ef4444" stroke-width="3"/>
    <text x="176.4" y="361.4" text-anchor="middle" class="corner-num">6</text>

    <!-- Turn 7 -->
    <circle cx="113.2" cy="323.8" r="12" fill="#27272a" stroke="#ef4444" stroke-width="3"/>
    <text x="113.2" y="328.8" text-anchor="middle" class="corner-num">7</text>

    <!-- Turn 8 -->
    <circle cx="60.0" cy="365.0" r="12" fill="#27272a" stroke="#3b82f6" stroke-width="3"/>
    <text x="60.0" y="370.0" text-anchor="middle" class="corner-num">8</text>

    <!-- Turn 9 -->
    <circle cx="93.8" cy="388.0" r="12" fill="#27272a" stroke="#3b82f6" stroke-width="3"/>
    <text x="93.8" y="393.0" text-anchor="middle" class="corner-num">9</text>

    <!-- Turn 10 -->
    <circle cx="347.5" cy="414.1" r="12" fill="#27272a" stroke="#3b82f6" stroke-width="3"/>
    <text x="347.5" y="419.1" text-anchor="middle" class="corner-num">10</text>

    <!-- Turn 11 -->
    <circle cx="510.2" cy="420.6" r="12" fill="#27272a" stroke="#3b82f6" stroke-width="3"/>
    <text x="510.2" y="425.6" text-anchor="middle" class="corner-num">11</text>

    <!-- Turn 12 -->
    <circle cx="700.9" cy="330.1" r="12" fill="#27272a" stroke="#3b82f6" stroke-width="3"/>
    <text x="700.9" y="335.1" text-anchor="middle" class="corner-num">12</text>

    <!-- Turn 13 -->
    <circle cx="676.1" cy="307.9" r="12" fill="#27272a" stroke="#3b82f6" stroke-width="3"/>
    <text x="676.1" y="312.9" text-anchor="middle" class="corner-num">13</text>

    <!-- Turn 14 -->
    <circle cx="679.5" cy="273.9" r="12" fill="#27272a" stroke="#eab308" stroke-width="3"/>
    <text x="679.5" y="278.9" text-anchor="middle" class="corner-num">14</text>

    <!-- Turn 15 -->
    <circle cx="740.0" cy="241.9" r="12" fill="#27272a" stroke="#eab308" stroke-width="3"/>
    <text x="740.0" y="246.9" text-anchor="middle" class="corner-num">15</text>

    <!-- Turn 16 -->
    <circle cx="737.0" cy="192.3" r="12" fill="#27272a" stroke="#eab308" stroke-width="3"/>
    <text x="737.0" y="197.3" text-anchor="middle" class="corner-num">16</text>

    <!-- Turn 17 -->
    <circle cx="140.9" cy="172.5" r="12" fill="#27272a" stroke="#eab308" stroke-width="3"/>
    <text x="140.9" y="177.5" text-anchor="middle" class="corner-num">17</text>

    <!-- Turn 18 -->
    <circle cx="179.9" cy="205.3" r="12" fill="#27272a" stroke="#eab308" stroke-width="3"/>
    <text x="179.9" y="210.3" text-anchor="middle" class="corner-num">18</text>

    <!-- Turn 19 -->
    <circle cx="244.3" cy="188.9" r="12" fill="#27272a" stroke="#eab308" stroke-width="3"/>
    <text x="244.3" y="193.9" text-anchor="middle" class="corner-num">19</text>

  <!-- Circuit Name -->
  <text x="400" y="560" text-anchor="middle" font-family="Arial, sans-serif" font-size="18" font-weight="bold" fill="#ffffff">Miami International Autodrome</text>
  <text x="400" y="580" text-anchor="middle" font-family="Arial, sans-serif" font-size="12" fill="#71717a">Miami Gardens • 5.412 km • 19 Turns</text>
</svg>