<svg xmlns="http://www.w3.org/2000/svg" viewBox="0 0 800 600" fill="none">
  <defs>
    <style>
      .sector1 { stroke: #ef4444; }
      .sector2 { stroke: #3b82f6; }
      .sector3 { stroke: #eab308; }
      .track { stroke-width: 10; stroke-linecap: round; stroke-linejoin: round; fill: none; }
      .corner-num { font-family: Arial, sans-serif; font-size: 10px; font-weight: bold; fill: #ffffff; }
      .start-finish { stroke: #ffffff; stroke-width: 3; }
    </style>
  </defs>

  <!-- Track Background -->
  <rect width="800" height="600" fill="#18181b"/>

  <!-- Sector 1 - Red -->
  <path class="track sector1" d="M 395.8,243.8 L 483.3,298.4 L 484.8,302.4 L 484.1,306.1 L 481.5,311.1 L 462.9,325.0 L 457.1,331.2 L 455.2,342.5 L 457.1,354.4 L 455.3,369.2 L 450.8,378.6 L 433.9,392.1 L 414.7,398.7 L 402.2,401.5 L 383.8,402.0 L 369.4,399.4 L 352.5,391.8 L 266.6,340.3 L 254.3,332.9 L 248.0,331.8 L 240.8,331.2 L 233.5,332.2 L 224.3,335.0 L 216.6,339.4 L 208.6,345.8 L 200.4,351.3 L 189.6,353.1 L 179.8,352.2 L 169.3,347.1 L 159.5,338.3 L 150.5,329.5 L 140.5,324.5 L 130.1,322.4"/>

  <!-- Sector 2 - Blue -->
  <path class="track sector2" d="M 130.1,322.4 L 117.6,324.6 L 106.2,328.2 L 96.5,332.7 L 89.4,339.3 L 82.6,349.9 L 80.0,361.2 L 80.3,370.6 L 82.4,377.0 L 85.8,381.4 L 92.9,385.2 L 101.3,385.2 L 111.8,382.9 L 123.6,382.9 L 147.7,388.0 L 191.9,397.0 L 237.7,395.7 L 307.5,392.8 L 326.8,398.9 L 350.6,407.4 L 369.9,414.2 L 395.7,422.4 L 422.5,426.9 L 449.5,427.2 L 477.8,422.6 L 503.7,413.5 L 562.8,391.9 L 597.1,378.8 L 613.6,371.5 L 655.9,349.0 L 678.7,334.5 L 683.2,328.3 L 681.7,323.2 L 677.6,319.2 L 667.2,312.9 L 659.9,307.5 L 655.9,299.5 L 655.1,291.2 L 657.4,281.1"/>

  <!-- Sector 3 - Yellow -->
  <path class="track sector3" d="M 657.4,281.1 L 663.0,275.5 L 669.6,272.8 L 689.2,274.0 L 698.9,272.7 L 703.3,269.9 L 709.8,263.5 L 720.0,245.3 L 719.3,241.3 L 714.4,239.3 L 709.9,236.0 L 709.7,229.2 L 717.8,203.1 L 717.2,198.6 L 713.5,195.7 L 693.2,193.8 L 399.0,183.4 L 164.5,172.8 L 157.6,174.6 L 156.1,180.0 L 158.5,186.7 L 166.6,193.9 L 179.3,203.5 L 192.9,210.8 L 204.0,213.6 L 213.7,212.8 L 225.7,208.5 L 253.5,195.4 L 269.1,191.3 L 288.2,189.6 L 307.2,192.2 L 325.0,199.7 L 395.8,243.8 L 395.8,243.8"/>

  <!-- Start/Finish Line -->
  <circle cx="395.8" cy="243.8" r="6" fill="#ffffff"/>

  <!-- Corner Numbers -->
  
    <!-- Turn 1 -->
    <circle cx="481.5" cy="311.1" r="10" fill="#27272a" stroke="#ef4444" stroke-width="2"/>
    <text x="481.5" y="315.1" text-anchor="middle" class="corner-num">1</text>

    <!-- Turn 2 -->
    <circle cx="457.1" cy="354.4" r="10" fill="#27272a" stroke="#ef4444" stroke-width="2"/>
    <text x="457.1" y="358.4" text-anchor="middle" class="corner-num">2</text>

    <!-- Turn 3 -->
    <circle cx="414.7" cy="398.7" r="10" fill="#27272a" stroke="#ef4444" stroke-width="2"/>
    <text x="414.7" y="402.7" text-anchor="middle" class="corner-num">3</text>

    <!-- Turn 4 -->
    <circle cx="254.3" cy="332.9" r="10" fill="#27272a" stroke="#ef4444" stroke-width="2"/>
    <text x="254.3" y="336.9" text-anchor="middle" class="corner-num">4</text>

    <!-- Turn 5 -->
    <circle cx="224.3" cy="335.0" r="10" fill="#27272a" stroke="#ef4444" stroke-width="2"/>
    <text x="224.3" y="339.0" text-anchor="middle" class="corner-num">5</text>

    <!-- Turn 6 -->
    <circle cx="189.6" cy="353.1" r="10" fill="#27272a" stroke="#ef4444" stroke-width="2"/>
    <text x="189.6" y="357.1" text-anchor="middle" class="corner-num">6</text>

    <!-- Turn 7 -->
    <circle cx="130.1" cy="322.4" r="10" fill="#27272a" stroke="#ef4444" stroke-width="2"/>
    <text x="130.1" y="326.4" text-anchor="middle" class="corner-num">7</text>

    <!-- Turn 8 -->
    <circle cx="80.0" cy="361.2" r="10" fill="#27272a" stroke="#3b82f6" stroke-width="2"/>
    <text x="80.0" y="365.2" text-anchor="middle" class="corner-num">8</text>

    <!-- Turn 9 -->
    <circle cx="111.8" cy="382.9" r="10" fill="#27272a" stroke="#3b82f6" stroke-width="2"/>
    <text x="111.8" y="386.9" text-anchor="middle" class="corner-num">9</text>

    <!-- Turn 10 -->
    <circle cx="350.6" cy="407.4" r="10" fill="#27272a" stroke="#3b82f6" stroke-width="2"/>
    <text x="350.6" y="411.4" text-anchor="middle" class="corner-num">10</text>

    <!-- Turn 11 -->
    <circle cx="503.7" cy="413.5" r="10" fill="#27272a" stroke="#3b82f6" stroke-width="2"/>
    <text x="503.7" y="417.5" text-anchor="middle" class="corner-num">11</text>

    <!-- Turn 12 -->
    <circle cx="683.2" cy="328.3" r="10" fill="#27272a" stroke="#3b82f6" stroke-width="2"/>
    <text x="683.2" y="332.3" text-anchor="middle" class="corner-num">12</text>

    <!-- Turn 13 -->
    <circle cx="659.9" cy="307.5" r="10" fill="#27272a" stroke="#3b82f6" stroke-width="2"/>
    <text x="659.9" y="311.5" text-anchor="middle" class="corner-num">13</text>

    <!-- Turn 14 -->
    <circle cx="663.0" cy="275.5" r="10" fill="#27272a" stroke="#eab308" stroke-width="2"/>
    <text x="663.0" y="279.5" text-anchor="middle" class="corner-num">14</text>

    <!-- Turn 15 -->
    <circle cx="720.0" cy="245.3" r="10" fill="#27272a" stroke="#eab308" stroke-width="2"/>
    <text x="720.0" y="249.3" text-anchor="middle" class="corner-num">15</text>

    <!-- Turn 16 -->
    <circle cx="717.2" cy="198.6" r="10" fill="#27272a" stroke="#eab308" stroke-width="2"/>
    <text x="717.2" y="202.6" text-anchor="middle" class="corner-num">16</text>

    <!-- Turn 17 -->
    <circle cx="156.1" cy="180.0" r="10" fill="#27272a" stroke="#eab308" stroke-width="2"/>
    <text x="156.1" y="184.0" text-anchor="middle" class="corner-num">17</text>

    <!-- Turn 18 -->
    <circle cx="192.9" cy="210.8" r="10" fill="#27272a" stroke="#eab308" stroke-width="2"/>
    <text x="192.9" y="214.8" text-anchor="middle" class="corner-num">18</text>

    <!-- Turn 19 -->
    <circle cx="253.5" cy="195.4" r="10" fill="#27272a" stroke="#eab308" stroke-width="2"/>
    <text x="253.5" y="199.4" text-anchor="middle" class="corner-num">19</text>

  <!-- Legend -->
  <rect x="30" y="30" width="120" height="90" rx="6" fill="#27272a" stroke="#3f3f46"/>
  <line x1="45" y1="50" x2="75" y2="50" stroke="#ef4444" stroke-width="4"/>
  <text x="85" y="54" font-family="Arial, sans-serif" font-size="9px" fill="#ffffff">Sector 1</text>
  <line x1="45" y1="70" x2="75" y2="70" stroke="#3b82f6" stroke-width="4"/>
  <text x="85" y="74" font-family="Arial, sans-serif" font-size="9px" fill="#ffffff">Sector 2</text>
  <line x1="45" y1="90" x2="75" y2="90" stroke="#eab308" stroke-width="4"/>
  <text x="85" y="94" font-family="Arial, sans-serif" font-size="9px" fill="#ffffff">Sector 3</text>

  <!-- Circuit Name -->
  <text x="400" y="560" text-anchor="middle" font-family="Arial, sans-serif" font-size="18" font-weight="bold" fill="#ffffff">Miami International Autodrome</text>
  <text x="400" y="580" text-anchor="middle" font-family="Arial, sans-serif" font-size="12" fill="#71717a">Miami Gardens • 5.412 km • 19 Turns</text>
</svg>