<svg xmlns="http://www.w3.org/2000/svg" viewBox="0 0 800 600" fill="none">
  <defs>
    <style>
      .sector1 { stroke: #ef4444; }
      .sector2 { stroke: #3b82f6; }
      .sector3 { stroke: #eab308; }
      .track { stroke-width: 8; stroke-linecap: round; stroke-linejoin: round; fill: none; }
      .corner-num { font-family: Arial, sans-serif; font-size: 12px; font-weight: bold; fill: #ffffff; }
      .start-finish { stroke: #ffffff; stroke-width: 3; }
    </style>
  </defs>

  <!-- Track Background -->
  <rect width="800" height="600" fill="#18181b"/>

  <!-- Sector 1 - Red -->
  <path class="track sector1" d="M 452.7,407.6 L 458.6,435.0 L 462.9,455.2 L 465.4,470.2 L 465.7,482.5 L 461.9,515.6 L 462.6,519.5 L 465.3,522.0 L 475.1,526.4 L 477.0,527.8 L 478.0,530.7 L 477.6,533.6 L 476.2,536.5 L 473.6,538.7 L 470.2,540.0 L 465.8,540.0 L 461.0,538.9 L 449.4,535.7 L 441.6,533.0 L 434.1,529.0 L 426.9,524.2 L 410.4,510.1 L 400.6,500.9 L 398.7,498.0 L 398.3,495.6 L 398.4,493.3 L 400.1,488.0 L 400.7,484.8 L 400.3,482.1 L 399.2,479.9 L 380.4,456.9 L 377.0,454.0 L 370.7,449.6 L 366.9,446.4"/>

  <!-- Sector 2 - Blue -->
  <path class="track sector2" d="M 366.9,446.4 L 362.7,440.9 L 360.4,435.0 L 358.8,429.0 L 358.2,424.1 L 358.3,388.3 L 358.3,385.3 L 357.0,382.9 L 354.7,381.1 L 350.7,380.1 L 345.3,381.4 L 342.1,381.8 L 338.3,380.8 L 335.1,378.7 L 332.8,376.5 L 330.7,373.7 L 329.4,371.2 L 327.7,366.2 L 326.2,360.1 L 324.5,352.4 L 324.2,346.0 L 322.0,318.6 L 322.3,303.7 L 322.6,291.8 L 323.6,278.7 L 325.0,268.3 L 326.4,260.2 L 336.1,221.1 L 337.7,217.5 L 340.1,216.1 L 342.5,215.5 L 346.1,215.3 L 348.8,214.3 L 351.5,212.8 L 354.4,209.8 L 356.6,206.2"/>

  <!-- Sector 3 - Yellow -->
  <path class="track sector3" d="M 356.6,206.2 L 358.5,201.4 L 368.1,162.4 L 371.9,141.3 L 373.2,126.4 L 373.8,111.2 L 373.7,106.2 L 373.1,101.0 L 366.0,66.3 L 365.8,64.2 L 366.0,62.4 L 367.7,60.5 L 370.8,60.0 L 372.7,60.7 L 374.1,62.2 L 374.6,63.5 L 375.4,71.3 L 376.6,83.1 L 377.0,87.0 L 378.5,91.4 L 383.6,101.7 L 388.1,110.9 L 410.9,169.7 L 413.5,177.3 L 447.2,338.8 L 448.6,345.5 L 448.3,347.7 L 446.8,349.4 L 444.1,350.5 L 442.4,352.2 L 441.7,354.1 L 441.8,356.6 L 447.9,384.6 L 452.7,407.6 L 452.7,407.6"/>

  <!-- Start/Finish Line -->
  <circle cx="452.7" cy="407.6" r="8" fill="#ffffff"/>

  <!-- Corner Numbers -->
  
    <!-- Turn 1 -->
    <circle cx="461.9" cy="515.6" r="12" fill="#27272a" stroke="#ef4444" stroke-width="3"/>
    <text x="461.9" y="520.6" text-anchor="middle" class="corner-num">1</text>

    <!-- Turn 2 -->
    <circle cx="478.0" cy="530.7" r="12" fill="#27272a" stroke="#ef4444" stroke-width="3"/>
    <text x="478.0" y="535.7" text-anchor="middle" class="corner-num">2</text>

    <!-- Turn 3 -->
    <circle cx="441.6" cy="533.0" r="12" fill="#27272a" stroke="#ef4444" stroke-width="3"/>
    <text x="441.6" y="538.0" text-anchor="middle" class="corner-num">3</text>

    <!-- Turn 4 -->
    <circle cx="400.1" cy="488.0" r="12" fill="#27272a" stroke="#ef4444" stroke-width="3"/>
    <text x="400.1" y="493.0" text-anchor="middle" class="corner-num">4</text>

    <!-- Turn 5 -->
    <circle cx="362.7" cy="440.9" r="12" fill="#27272a" stroke="#3b82f6" stroke-width="3"/>
    <text x="362.7" y="445.9" text-anchor="middle" class="corner-num">5</text>

    <!-- Turn 6 -->
    <circle cx="350.7" cy="380.1" r="12" fill="#27272a" stroke="#3b82f6" stroke-width="3"/>
    <text x="350.7" y="385.1" text-anchor="middle" class="corner-num">6</text>

    <!-- Turn 7 -->
    <circle cx="327.7" cy="366.2" r="12" fill="#27272a" stroke="#3b82f6" stroke-width="3"/>
    <text x="327.7" y="371.2" text-anchor="middle" class="corner-num">7</text>

    <!-- Turn 8 -->
    <circle cx="325.0" cy="268.3" r="12" fill="#27272a" stroke="#3b82f6" stroke-width="3"/>
    <text x="325.0" y="273.3" text-anchor="middle" class="corner-num">8</text>

    <!-- Turn 9 -->
    <circle cx="351.5" cy="212.8" r="12" fill="#27272a" stroke="#3b82f6" stroke-width="3"/>
    <text x="351.5" y="217.8" text-anchor="middle" class="corner-num">9</text>

    <!-- Turn 10 -->
    <circle cx="373.7" cy="106.2" r="12" fill="#27272a" stroke="#eab308" stroke-width="3"/>
    <text x="373.7" y="111.2" text-anchor="middle" class="corner-num">10</text>

    <!-- Turn 11 -->
    <circle cx="370.8" cy="60.0" r="12" fill="#27272a" stroke="#eab308" stroke-width="3"/>
    <text x="370.8" y="65.0" text-anchor="middle" class="corner-num">11</text>

    <!-- Turn 12 -->
    <circle cx="377.0" cy="87.0" r="12" fill="#27272a" stroke="#eab308" stroke-width="3"/>
    <text x="377.0" y="92.0" text-anchor="middle" class="corner-num">12</text>

    <!-- Turn 13 - Wall -->
    <circle cx="447.2" cy="338.8" r="12" fill="#27272a" stroke="#eab308" stroke-width="3"/>
    <text x="447.2" y="343.8" text-anchor="middle" class="corner-num">13</text>

    <!-- Turn 14 -->
    <circle cx="442.4" cy="352.2" r="12" fill="#27272a" stroke="#eab308" stroke-width="3"/>
    <text x="442.4" y="357.2" text-anchor="middle" class="corner-num">14</text>

  <!-- Circuit Name -->
  <text x="400" y="560" text-anchor="middle" font-family="Arial, sans-serif" font-size="18" font-weight="bold" fill="#ffffff">Circuit Gilles Villeneuve</text>
  <text x="400" y="580" text-anchor="middle" font-family="Arial, sans-serif" font-size="12" fill="#71717a">Montreal • 4.361 km • 14 Turns</text>
</svg>