<svg xmlns="http://www.w3.org/2000/svg" viewBox="0 0 800 600" fill="none">
  <defs>
    <style>
      .sector1 { stroke: #ef4444; }
      .sector2 { stroke: #3b82f6; }
      .sector3 { stroke: #eab308; }
      .track { stroke-width: 10; stroke-linecap: round; stroke-linejoin: round; fill: none; }
      .corner-num { font-family: Arial, sans-serif; font-size: 10px; font-weight: bold; fill: #ffffff; }
      .start-finish { stroke: #ffffff; stroke-width: 3; }
    </style>
  </defs>

  <!-- Track Background -->
  <rect width="800" height="600" fill="#18181b"/>

  <!-- Sector 1 - Red -->
  <path class="track sector1" d="M 448.3,398.6 L 453.7,423.7 L 457.7,442.3 L 459.9,456.0 L 460.2,467.3 L 456.8,497.6 L 457.4,501.2 L 459.8,503.5 L 468.8,507.5 L 470.6,508.8 L 471.5,511.4 L 471.2,514.1 L 469.9,516.8 L 467.5,518.8 L 464.4,520.0 L 460.3,520.0 L 455.9,519.0 L 445.3,516.0 L 438.1,513.6 L 431.2,509.9 L 424.7,505.6 L 409.5,492.6 L 400.5,484.1 L 398.8,481.5 L 398.4,479.3 L 398.5,477.2 L 400.1,472.3 L 400.6,469.4 L 400.3,466.9 L 399.3,464.9 L 382.0,443.8 L 378.9,441.2 L 373.1,437.1 L 369.6,434.2"/>

  <!-- Sector 2 - Blue -->
  <path class="track sector2" d="M 369.6,434.2 L 365.8,429.2 L 363.7,423.7 L 362.2,418.2 L 361.7,413.8 L 361.8,380.9 L 361.8,378.2 L 360.6,376.0 L 358.5,374.3 L 354.8,373.5 L 349.8,374.7 L 347.0,375.0 L 343.5,374.0 L 340.5,372.1 L 338.4,370.1 L 336.5,367.6 L 335.3,365.3 L 333.7,360.7 L 332.3,355.1 L 330.8,348.1 L 330.5,342.2 L 328.5,317.0 L 328.7,303.4 L 329.1,292.5 L 330.0,280.4 L 331.3,271.0 L 332.5,263.5 L 341.4,227.6 L 342.9,224.4 L 345.1,223.1 L 347.3,222.6 L 350.5,222.3 L 353.1,221.5 L 355.5,220.1 L 358.2,217.3 L 360.2,214.0"/>

  <!-- Sector 3 - Yellow -->
  <path class="track sector3" d="M 360.2,214.0 L 362.0,209.6 L 370.8,173.9 L 374.3,154.5 L 375.4,140.9 L 376.0,126.9 L 375.9,122.3 L 375.3,117.5 L 368.9,85.8 L 368.6,83.9 L 368.9,82.2 L 370.3,80.5 L 373.2,80.0 L 375.0,80.6 L 376.3,82.0 L 376.7,83.2 L 377.5,90.3 L 378.5,101.2 L 378.9,104.8 L 380.3,108.8 L 385.0,118.3 L 389.1,126.7 L 410.0,180.6 L 412.4,187.6 L 443.3,335.6 L 444.6,341.7 L 444.3,343.7 L 442.9,345.3 L 440.4,346.3 L 438.9,347.8 L 438.2,349.6 L 438.3,351.9 L 443.9,377.5 L 448.3,398.6 L 448.3,398.6"/>

  <!-- Start/Finish Line -->
  <circle cx="448.3" cy="398.6" r="6" fill="#ffffff"/>

  <!-- Corner Numbers -->
  
    <!-- Turn 1 -->
    <circle cx="456.8" cy="497.6" r="10" fill="#27272a" stroke="#ef4444" stroke-width="2"/>
    <text x="456.8" y="501.6" text-anchor="middle" class="corner-num">1</text>

    <!-- Turn 2 -->
    <circle cx="471.5" cy="511.4" r="10" fill="#27272a" stroke="#ef4444" stroke-width="2"/>
    <text x="471.5" y="515.4" text-anchor="middle" class="corner-num">2</text>

    <!-- Turn 3 -->
    <circle cx="438.1" cy="513.6" r="10" fill="#27272a" stroke="#ef4444" stroke-width="2"/>
    <text x="438.1" y="517.6" text-anchor="middle" class="corner-num">3</text>

    <!-- Turn 4 -->
    <circle cx="400.1" cy="472.3" r="10" fill="#27272a" stroke="#ef4444" stroke-width="2"/>
    <text x="400.1" y="476.3" text-anchor="middle" class="corner-num">4</text>

    <!-- Turn 5 -->
    <circle cx="365.8" cy="429.2" r="10" fill="#27272a" stroke="#3b82f6" stroke-width="2"/>
    <text x="365.8" y="433.2" text-anchor="middle" class="corner-num">5</text>

    <!-- Turn 6 -->
    <circle cx="354.8" cy="373.5" r="10" fill="#27272a" stroke="#3b82f6" stroke-width="2"/>
    <text x="354.8" y="377.5" text-anchor="middle" class="corner-num">6</text>

    <!-- Turn 7 -->
    <circle cx="333.7" cy="360.7" r="10" fill="#27272a" stroke="#3b82f6" stroke-width="2"/>
    <text x="333.7" y="364.7" text-anchor="middle" class="corner-num">7</text>

    <!-- Turn 8 -->
    <circle cx="331.3" cy="271.0" r="10" fill="#27272a" stroke="#3b82f6" stroke-width="2"/>
    <text x="331.3" y="275.0" text-anchor="middle" class="corner-num">8</text>

    <!-- Turn 9 -->
    <circle cx="355.5" cy="220.1" r="10" fill="#27272a" stroke="#3b82f6" stroke-width="2"/>
    <text x="355.5" y="224.1" text-anchor="middle" class="corner-num">9</text>

    <!-- Turn 10 -->
    <circle cx="375.9" cy="122.3" r="10" fill="#27272a" stroke="#eab308" stroke-width="2"/>
    <text x="375.9" y="126.3" text-anchor="middle" class="corner-num">10</text>

    <!-- Turn 11 -->
    <circle cx="373.2" cy="80.0" r="10" fill="#27272a" stroke="#eab308" stroke-width="2"/>
    <text x="373.2" y="84.0" text-anchor="middle" class="corner-num">11</text>

    <!-- Turn 12 -->
    <circle cx="378.9" cy="104.8" r="10" fill="#27272a" stroke="#eab308" stroke-width="2"/>
    <text x="378.9" y="108.8" text-anchor="middle" class="corner-num">12</text>

    <!-- Turn 13 -->
    <circle cx="443.3" cy="335.6" r="10" fill="#27272a" stroke="#eab308" stroke-width="2"/>
    <text x="443.3" y="339.6" text-anchor="middle" class="corner-num">13</text>

    <!-- Turn 14 -->
    <circle cx="438.9" cy="347.8" r="10" fill="#27272a" stroke="#eab308" stroke-width="2"/>
    <text x="438.9" y="351.8" text-anchor="middle" class="corner-num">14</text>

  <!-- Legend -->
  <rect x="30" y="30" width="120" height="90" rx="6" fill="#27272a" stroke="#3f3f46"/>
  <line x1="45" y1="50" x2="75" y2="50" stroke="#ef4444" stroke-width="4"/>
  <text x="85" y="54" font-family="Arial, sans-serif" font-size="9px" fill="#ffffff">Sector 1</text>
  <line x1="45" y1="70" x2="75" y2="70" stroke="#3b82f6" stroke-width="4"/>
  <text x="85" y="74" font-family="Arial, sans-serif" font-size="9px" fill="#ffffff">Sector 2</text>
  <line x1="45" y1="90" x2="75" y2="90" stroke="#eab308" stroke-width="4"/>
  <text x="85" y="94" font-family="Arial, sans-serif" font-size="9px" fill="#ffffff">Sector 3</text>

  <!-- Circuit Name -->
  <text x="400" y="560" text-anchor="middle" font-family="Arial, sans-serif" font-size="18" font-weight="bold" fill="#ffffff">Circuit Gilles Villeneuve</text>
  <text x="400" y="580" text-anchor="middle" font-family="Arial, sans-serif" font-size="12" fill="#71717a">Montreal • 4.361 km • 14 Turns</text>
</svg>