<svg xmlns="http://www.w3.org/2000/svg" viewBox="0 0 800 600" fill="none">
  <defs>
    <style>
      .sector1 { stroke: #ef4444; }
      .sector2 { stroke: #3b82f6; }
      .sector3 { stroke: #eab308; }
      .track { stroke-width: 8; stroke-linecap: round; stroke-linejoin: round; fill: none; }
      .corner-num { font-family: Arial, sans-serif; font-size: 12px; font-weight: bold; fill: #ffffff; }
      .start-finish { stroke: #ffffff; stroke-width: 3; }
    </style>
  </defs>

  <!-- Track Background -->
  <rect width="800" height="600" fill="#18181b"/>

  <!-- Sector 1 - Red -->
  <path class="track sector1" d="M 270.0,364.9 L 278.1,270.0 L 281.7,230.2 L 282.1,228.5 L 283.3,227.6 L 284.7,227.4 L 286.4,227.6 L 288.1,227.7 L 289.6,227.6 L 290.6,226.8 L 291.4,225.6 L 291.6,224.6 L 291.6,223.4 L 285.9,201.7 L 285.1,195.8 L 284.8,190.5 L 285.2,184.7 L 287.3,156.4 L 288.2,151.8 L 289.2,147.5 L 290.7,142.8 L 292.7,137.8 L 295.1,133.0 L 298.5,127.5 L 302.1,123.0 L 306.9,117.9 L 312.1,113.3 L 317.9,109.2 L 324.1,105.6 L 331.1,102.1 L 338.2,99.7 L 345.9,97.5 L 354.7,96.0 L 363.6,95.1 L 398.6,92.1 L 441.4,89.6 L 443.9,89.4 L 445.2,88.6 L 446.4,87.5 L 447.8,82.5 L 448.4,81.1 L 449.4,80.2 L 451.1,79.6 L 456.9,78.6"/>

  <!-- Sector 2 - Blue -->
  <path class="track sector2" d="M 456.9,78.6 L 463.3,77.2 L 472.2,74.3 L 512.3,60.8 L 515.7,60.0 L 519.0,60.0 L 522.1,60.6 L 524.4,61.5 L 526.5,62.8 L 528.6,64.2 L 531.1,67.0 L 532.5,69.2 L 533.5,71.8 L 534.1,74.8 L 535.8,93.9 L 539.1,126.3 L 538.9,129.2 L 538.4,131.1 L 537.6,132.7 L 536.3,133.9 L 533.9,135.5 L 507.7,149.7 L 486.4,161.6 L 473.1,168.9 L 466.7,172.6 L 459.5,177.7 L 454.3,181.7 L 449.8,185.6 L 426.6,205.6 L 410.1,220.5 L 375.2,251.2 L 354.3,269.6 L 351.4,272.5 L 350.3,274.4 L 350.1,276.2 L 350.1,278.4 L 350.8,283.3 L 351.0,285.9 L 351.0,289.8 L 350.7,291.9 L 349.9,294.5 L 348.7,297.7 L 346.6,300.8 L 343.9,304.1 L 340.7,306.7"/>

  <!-- Sector 3 - Yellow -->
  <path class="track sector3" d="M 340.7,306.7 L 338.2,308.7 L 336.8,310.2 L 335.8,312.3 L 334.9,316.1 L 332.8,333.6 L 330.5,352.3 L 313.2,519.8 L 312.5,525.8 L 311.8,528.6 L 310.4,531.5 L 308.4,533.8 L 306.2,535.9 L 303.0,538.0 L 299.6,539.3 L 295.6,540.0 L 292.2,539.8 L 289.1,539.1 L 285.4,537.7 L 281.8,536.0 L 279.2,534.2 L 276.0,531.8 L 272.5,527.9 L 270.0,524.4 L 267.9,520.7 L 266.0,516.3 L 264.3,511.5 L 263.0,506.5 L 262.4,502.2 L 261.7,495.7 L 261.6,489.2 L 261.5,483.0 L 261.2,470.9 L 260.9,460.2 L 261.2,448.6 L 262.5,433.4 L 267.5,385.4 L 270.0,364.9 L 270.0,364.9"/>

  <!-- Start/Finish Line -->
  <circle cx="270.0" cy="364.9" r="8" fill="#ffffff"/>

  <!-- Corner Numbers -->
  
    <!-- Turn 1 -->
    <circle cx="290.6" cy="226.8" r="12" fill="#27272a" stroke="#ef4444" stroke-width="3"/>
    <text x="290.6" y="231.8" text-anchor="middle" class="corner-num">1</text>

    <!-- Turn 2 -->
    <circle cx="287.3" cy="156.4" r="12" fill="#27272a" stroke="#ef4444" stroke-width="3"/>
    <text x="287.3" y="161.4" text-anchor="middle" class="corner-num">2</text>

    <!-- Turn 3 -->
    <circle cx="317.9" cy="109.2" r="12" fill="#27272a" stroke="#ef4444" stroke-width="3"/>
    <text x="317.9" y="114.2" text-anchor="middle" class="corner-num">3</text>

    <!-- Turn 4 -->
    <circle cx="445.2" cy="88.6" r="12" fill="#27272a" stroke="#ef4444" stroke-width="3"/>
    <text x="445.2" y="93.6" text-anchor="middle" class="corner-num">4</text>

    <!-- Turn 5 -->
    <circle cx="522.1" cy="60.6" r="12" fill="#27272a" stroke="#3b82f6" stroke-width="3"/>
    <text x="522.1" y="65.6" text-anchor="middle" class="corner-num">5</text>

    <!-- Turn 6 - Lesmo -->
    <circle cx="536.3" cy="133.9" r="12" fill="#27272a" stroke="#3b82f6" stroke-width="3"/>
    <text x="536.3" y="138.9" text-anchor="middle" class="corner-num">6</text>

    <!-- Turn 7 -->
    <circle cx="426.6" cy="205.6" r="12" fill="#27272a" stroke="#3b82f6" stroke-width="3"/>
    <text x="426.6" y="210.6" text-anchor="middle" class="corner-num">7</text>

    <!-- Turn 8 - Ascari -->
    <circle cx="343.9" cy="304.1" r="12" fill="#27272a" stroke="#3b82f6" stroke-width="3"/>
    <text x="343.9" y="309.1" text-anchor="middle" class="corner-num">8</text>

    <!-- Turn 9 -->
    <circle cx="311.8" cy="528.6" r="12" fill="#27272a" stroke="#eab308" stroke-width="3"/>
    <text x="311.8" y="533.6" text-anchor="middle" class="corner-num">9</text>

    <!-- Turn 10 - Parabolica -->
    <circle cx="272.5" cy="527.9" r="12" fill="#27272a" stroke="#eab308" stroke-width="3"/>
    <text x="272.5" y="532.9" text-anchor="middle" class="corner-num">10</text>

    <!-- Turn 11 -->
    <circle cx="261.6" cy="489.2" r="12" fill="#27272a" stroke="#eab308" stroke-width="3"/>
    <text x="261.6" y="494.2" text-anchor="middle" class="corner-num">11</text>

  <!-- Circuit Name -->
  <text x="400" y="560" text-anchor="middle" font-family="Arial, sans-serif" font-size="18" font-weight="bold" fill="#ffffff">Autodromo Nazionale Monza</text>
  <text x="400" y="580" text-anchor="middle" font-family="Arial, sans-serif" font-size="12" fill="#71717a">Monza • 5.793 km • 11 Turns</text>
</svg>