<svg xmlns="http://www.w3.org/2000/svg" viewBox="0 0 800 600" fill="none">
  <defs>
    <style>
      .sector1 { stroke: #ef4444; }
      .sector2 { stroke: #3b82f6; }
      .sector3 { stroke: #eab308; }
      .track { stroke-width: 8; stroke-linecap: round; stroke-linejoin: round; fill: none; }
      .corner-num { font-family: Arial, sans-serif; font-size: 12px; font-weight: bold; fill: #ffffff; }
      .start-finish { stroke: #ffffff; stroke-width: 3; }
    </style>
  </defs>

  <!-- Track Background -->
  <rect width="800" height="600" fill="#18181b"/>

  <!-- Sector 1 - Red -->
  <path class="track sector1" d="M 271.5,489.9 L 230.3,500.2 L 222.8,500.9 L 213.7,500.9 L 205.7,498.3 L 200.1,496.0 L 192.8,491.3 L 187.6,486.6 L 183.5,481.2 L 180.5,474.9 L 178.0,468.5 L 177.8,461.8 L 178.0,454.0 L 179.0,448.2 L 180.8,442.5 L 184.0,437.6 L 188.6,433.4 L 198.6,429.0 L 207.9,429.0 L 215.2,431.8 L 218.2,435.0 L 220.3,438.6 L 220.5,443.5 L 219.0,450.5 L 216.0,461.0 L 215.2,465.5 L 217.0,470.0 L 221.2,474.6 L 228.5,477.4 L 236.6,475.8 L 240.8,473.0 L 243.6,468.3 L 246.1,463.6 L 248.6,457.3 L 250.1,450.3 L 250.6,442.3 L 249.4,435.5 L 245.3,428.0 L 242.6,423.4 L 234.3,413.3 L 212.2,389.6 L 195.1,367.3 L 181.0,352.1 L 163.5,332.2 L 157.9,322.8 L 155.4,316.1 L 137.3,262.9"/>

  <!-- Sector 2 - Blue -->
  <path class="track sector2" d="M 137.3,262.9 L 131.5,246.9 L 126.5,231.2 L 126.3,227.2 L 128.5,224.0 L 133.1,222.1 L 140.8,223.5 L 148.9,228.9 L 155.6,234.5 L 162.4,241.8 L 172.0,251.6 L 180.3,263.8 L 194.9,289.3 L 214.4,323.8 L 220.7,333.3 L 227.0,340.9 L 234.0,347.7 L 242.3,352.1 L 251.2,355.4 L 260.2,357.3 L 270.7,357.3 L 280.0,355.4 L 289.1,352.1 L 298.1,346.5 L 306.7,339.5 L 313.4,331.5 L 320.7,315.8 L 332.0,291.9 L 336.8,284.6 L 341.8,279.7 L 348.1,276.0 L 357.4,272.0 L 366.2,271.3 L 373.7,272.0 L 380.5,274.6 L 386.6,278.5 L 390.8,282.1 L 394.6,286.3 L 413.2,322.4 L 417.7,327.3 L 423.2,328.9 L 428.5,328.0 L 433.3,326.1 L 451.9,301.5 L 454.4,296.6 L 454.4,292.1 L 452.9,287.7 L 407.4,210.4 L 379.0,164.5"/>

  <!-- Sector 3 - Yellow -->
  <path class="track sector3" d="M 379.0,164.5 L 347.9,112.9 L 343.6,111.5 L 339.3,112.7 L 335.3,116.2 L 330.5,121.6 L 326.0,127.2 L 321.7,130.0 L 316.4,131.7 L 310.9,130.7 L 305.4,125.8 L 298.9,118.5 L 295.6,112.7 L 293.6,107.3 L 292.6,99.3 L 293.1,92.1 L 294.4,85.0 L 296.6,78.5 L 302.6,70.5 L 308.4,66.1 L 316.4,62.5 L 325.0,60.7 L 331.8,60.0 L 340.1,60.4 L 350.9,63.0 L 357.9,66.1 L 365.2,70.0 L 375.2,79.4 L 384.1,91.9 L 479.5,238.0 L 539.1,328.0 L 570.0,374.8 L 597.1,417.2 L 633.0,470.9 L 671.5,527.1 L 673.7,532.0 L 673.5,536.7 L 670.2,540.0 L 664.9,539.6 L 654.1,534.4 L 647.8,529.9 L 640.8,524.8 L 567.2,424.2 L 564.0,422.4 L 557.9,421.9 L 465.7,443.7 L 271.5,489.9 L 271.5,489.9"/>

  <!-- Start/Finish Line -->
  <circle cx="271.5" cy="489.9" r="8" fill="#ffffff"/>

  <!-- Corner Numbers -->
  
    <!-- Turn 1 -->
    <circle cx="187.6" cy="486.6" r="12" fill="#27272a" stroke="#ef4444" stroke-width="3"/>
    <text x="187.6" y="491.6" text-anchor="middle" class="corner-num">1</text>

    <!-- Turn 2 -->
    <circle cx="180.8" cy="442.5" r="12" fill="#27272a" stroke="#ef4444" stroke-width="3"/>
    <text x="180.8" y="447.5" text-anchor="middle" class="corner-num">2</text>

    <!-- Turn 3 -->
    <circle cx="220.3" cy="438.6" r="12" fill="#27272a" stroke="#ef4444" stroke-width="3"/>
    <text x="220.3" y="443.6" text-anchor="middle" class="corner-num">3</text>

    <!-- Turn 4 -->
    <circle cx="228.5" cy="477.4" r="12" fill="#27272a" stroke="#ef4444" stroke-width="3"/>
    <text x="228.5" y="482.4" text-anchor="middle" class="corner-num">4</text>

    <!-- Turn 5 -->
    <circle cx="249.4" cy="435.5" r="12" fill="#27272a" stroke="#ef4444" stroke-width="3"/>
    <text x="249.4" y="440.5" text-anchor="middle" class="corner-num">5</text>

    <!-- Turn 6 -->
    <circle cx="157.9" cy="322.8" r="12" fill="#27272a" stroke="#ef4444" stroke-width="3"/>
    <text x="157.9" y="327.8" text-anchor="middle" class="corner-num">6</text>

    <!-- Turn 7 -->
    <circle cx="172.0" cy="251.6" r="12" fill="#27272a" stroke="#3b82f6" stroke-width="3"/>
    <text x="172.0" y="256.6" text-anchor="middle" class="corner-num">7</text>

    <!-- Turn 8 -->
    <circle cx="280.0" cy="355.4" r="12" fill="#27272a" stroke="#3b82f6" stroke-width="3"/>
    <text x="280.0" y="360.4" text-anchor="middle" class="corner-num">8</text>

    <!-- Turn 9 -->
    <circle cx="341.8" cy="279.7" r="12" fill="#27272a" stroke="#3b82f6" stroke-width="3"/>
    <text x="341.8" y="284.7" text-anchor="middle" class="corner-num">9</text>

    <!-- Turn 10 -->
    <circle cx="413.2" cy="322.4" r="12" fill="#27272a" stroke="#3b82f6" stroke-width="3"/>
    <text x="413.2" y="327.4" text-anchor="middle" class="corner-num">10</text>

    <!-- Turn 11 -->
    <circle cx="452.9" cy="287.7" r="12" fill="#27272a" stroke="#3b82f6" stroke-width="3"/>
    <text x="452.9" y="292.7" text-anchor="middle" class="corner-num">11</text>

    <!-- Turn 12 -->
    <circle cx="326.0" cy="127.2" r="12" fill="#27272a" stroke="#eab308" stroke-width="3"/>
    <text x="326.0" y="132.2" text-anchor="middle" class="corner-num">12</text>

    <!-- Turn 13 -->
    <circle cx="293.1" cy="92.1" r="12" fill="#27272a" stroke="#eab308" stroke-width="3"/>
    <text x="293.1" y="97.1" text-anchor="middle" class="corner-num">13</text>

    <!-- Turn 14 -->
    <circle cx="340.1" cy="60.4" r="12" fill="#27272a" stroke="#eab308" stroke-width="3"/>
    <text x="340.1" y="65.4" text-anchor="middle" class="corner-num">14</text>

    <!-- Turn 15 -->
    <circle cx="597.1" cy="417.2" r="12" fill="#27272a" stroke="#eab308" stroke-width="3"/>
    <text x="597.1" y="422.2" text-anchor="middle" class="corner-num">15</text>

    <!-- Turn 16 -->
    <circle cx="654.1" cy="534.4" r="12" fill="#27272a" stroke="#eab308" stroke-width="3"/>
    <text x="654.1" y="539.4" text-anchor="middle" class="corner-num">16</text>

  <!-- Circuit Name -->
  <text x="400" y="560" text-anchor="middle" font-family="Arial, sans-serif" font-size="18" font-weight="bold" fill="#ffffff">Shanghai International Circuit</text>
  <text x="400" y="580" text-anchor="middle" font-family="Arial, sans-serif" font-size="12" fill="#71717a">Shanghai • 5.451 km • 16 Turns</text>
</svg>