<svg xmlns="http://www.w3.org/2000/svg" viewBox="0 0 800 600" fill="none">
  <defs>
    <style>
      .sector1 { stroke: #ef4444; }
      .sector2 { stroke: #3b82f6; }
      .sector3 { stroke: #eab308; }
      .track { stroke-width: 10; stroke-linecap: round; stroke-linejoin: round; fill: none; }
      .corner-num { font-family: Arial, sans-serif; font-size: 10px; font-weight: bold; fill: #ffffff; }
      .start-finish { stroke: #ffffff; stroke-width: 3; }
    </style>
  </defs>

  <!-- Track Background -->
  <rect width="800" height="600" fill="#18181b"/>

  <!-- Sector 1 - Red -->
  <path class="track sector1" d="M 282.2,474.0 L 244.4,483.5 L 237.5,484.1 L 229.2,484.1 L 221.8,481.8 L 216.8,479.6 L 210.1,475.4 L 205.3,471.0 L 201.6,466.1 L 198.8,460.3 L 196.5,454.5 L 196.3,448.3 L 196.5,441.2 L 197.5,435.8 L 199.0,430.7 L 202.0,426.2 L 206.2,422.3 L 215.4,418.2 L 223.9,418.2 L 230.6,420.8 L 233.4,423.8 L 235.2,427.0 L 235.4,431.5 L 234.1,437.9 L 231.3,447.6 L 230.6,451.7 L 232.2,455.8 L 236.1,460.1 L 242.8,462.6 L 250.2,461.1 L 254.1,458.6 L 256.6,454.3 L 258.9,450.0 L 261.2,444.2 L 262.6,437.8 L 263.1,430.4 L 261.9,424.2 L 258.2,417.4 L 255.7,413.1 L 248.1,403.8 L 227.8,382.1 L 212.2,361.7 L 199.3,347.8 L 183.2,329.5 L 178.1,320.9 L 175.8,314.7 L 159.2,266.0"/>

  <!-- Sector 2 - Blue -->
  <path class="track sector2" d="M 159.2,266.0 L 153.9,251.3 L 149.3,236.9 L 149.1,233.3 L 151.1,230.3 L 155.3,228.6 L 162.4,229.9 L 169.8,234.8 L 176.0,240.0 L 182.2,246.6 L 191.0,255.6 L 198.6,266.8 L 212.0,290.2 L 229.9,321.8 L 235.7,330.6 L 241.4,337.4 L 247.9,343.7 L 255.5,347.8 L 263.6,350.8 L 271.8,352.5 L 281.5,352.5 L 290.0,350.8 L 298.3,347.8 L 306.6,342.6 L 314.5,336.2 L 320.6,328.9 L 327.3,314.5 L 337.7,292.6 L 342.1,285.9 L 346.7,281.4 L 352.4,278.0 L 361.0,274.3 L 369.0,273.7 L 375.9,274.3 L 382.2,276.7 L 387.7,280.3 L 391.6,283.6 L 395.0,287.4 L 412.1,320.5 L 416.2,325.0 L 421.3,326.5 L 426.1,325.6 L 430.5,323.9 L 447.6,301.4 L 449.9,296.9 L 449.9,292.8 L 448.5,288.7 L 406.8,217.9 L 380.8,175.8"/>

  <!-- Sector 3 - Yellow -->
  <path class="track sector3" d="M 380.8,175.8 L 352.2,128.5 L 348.3,127.2 L 344.4,128.3 L 340.7,131.5 L 336.3,136.4 L 332.2,141.6 L 328.3,144.2 L 323.4,145.7 L 318.3,144.8 L 313.3,140.3 L 307.3,133.7 L 304.3,128.3 L 302.5,123.4 L 301.5,116.0 L 302.0,109.4 L 303.2,103.0 L 305.2,96.9 L 310.8,89.7 L 316.1,85.6 L 323.4,82.3 L 331.3,80.6 L 337.5,80.0 L 345.1,80.4 L 355.0,82.8 L 361.4,85.6 L 368.1,89.2 L 377.3,97.8 L 385.4,109.2 L 472.9,243.2 L 527.5,325.6 L 555.8,368.6 L 580.7,407.5 L 613.6,456.6 L 648.9,508.2 L 650.9,512.7 L 650.7,517.0 L 647.7,520.0 L 642.9,519.6 L 632.9,514.9 L 627.2,510.8 L 620.8,506.1 L 553.3,413.9 L 550.3,412.2 L 544.8,411.8 L 460.2,431.8 L 282.2,474.0 L 282.2,474.0"/>

  <!-- Start/Finish Line -->
  <circle cx="282.2" cy="474.0" r="6" fill="#ffffff"/>

  <!-- Corner Numbers -->
  
    <!-- Turn 1 -->
    <circle cx="205.3" cy="471.0" r="10" fill="#27272a" stroke="#ef4444" stroke-width="2"/>
    <text x="205.3" y="475.0" text-anchor="middle" class="corner-num">1</text>

    <!-- Turn 2 -->
    <circle cx="199.0" cy="430.7" r="10" fill="#27272a" stroke="#ef4444" stroke-width="2"/>
    <text x="199.0" y="434.7" text-anchor="middle" class="corner-num">2</text>

    <!-- Turn 3 -->
    <circle cx="235.2" cy="427.0" r="10" fill="#27272a" stroke="#ef4444" stroke-width="2"/>
    <text x="235.2" y="431.0" text-anchor="middle" class="corner-num">3</text>

    <!-- Turn 4 -->
    <circle cx="242.8" cy="462.6" r="10" fill="#27272a" stroke="#ef4444" stroke-width="2"/>
    <text x="242.8" y="466.6" text-anchor="middle" class="corner-num">4</text>

    <!-- Turn 5 -->
    <circle cx="261.9" cy="424.2" r="10" fill="#27272a" stroke="#ef4444" stroke-width="2"/>
    <text x="261.9" y="428.2" text-anchor="middle" class="corner-num">5</text>

    <!-- Turn 6 -->
    <circle cx="178.1" cy="320.9" r="10" fill="#27272a" stroke="#ef4444" stroke-width="2"/>
    <text x="178.1" y="324.9" text-anchor="middle" class="corner-num">6</text>

    <!-- Turn 7 -->
    <circle cx="191.0" cy="255.6" r="10" fill="#27272a" stroke="#3b82f6" stroke-width="2"/>
    <text x="191.0" y="259.6" text-anchor="middle" class="corner-num">7</text>

    <!-- Turn 8 -->
    <circle cx="290.0" cy="350.8" r="10" fill="#27272a" stroke="#3b82f6" stroke-width="2"/>
    <text x="290.0" y="354.8" text-anchor="middle" class="corner-num">8</text>

    <!-- Turn 9 -->
    <circle cx="346.7" cy="281.4" r="10" fill="#27272a" stroke="#3b82f6" stroke-width="2"/>
    <text x="346.7" y="285.4" text-anchor="middle" class="corner-num">9</text>

    <!-- Turn 10 -->
    <circle cx="412.1" cy="320.5" r="10" fill="#27272a" stroke="#3b82f6" stroke-width="2"/>
    <text x="412.1" y="324.5" text-anchor="middle" class="corner-num">10</text>

    <!-- Turn 11 -->
    <circle cx="448.5" cy="288.7" r="10" fill="#27272a" stroke="#3b82f6" stroke-width="2"/>
    <text x="448.5" y="292.7" text-anchor="middle" class="corner-num">11</text>

    <!-- Turn 12 -->
    <circle cx="332.2" cy="141.6" r="10" fill="#27272a" stroke="#eab308" stroke-width="2"/>
    <text x="332.2" y="145.6" text-anchor="middle" class="corner-num">12</text>

    <!-- Turn 13 -->
    <circle cx="302.0" cy="109.4" r="10" fill="#27272a" stroke="#eab308" stroke-width="2"/>
    <text x="302.0" y="113.4" text-anchor="middle" class="corner-num">13</text>

    <!-- Turn 14 -->
    <circle cx="345.1" cy="80.4" r="10" fill="#27272a" stroke="#eab308" stroke-width="2"/>
    <text x="345.1" y="84.4" text-anchor="middle" class="corner-num">14</text>

    <!-- Turn 15 -->
    <circle cx="580.7" cy="407.5" r="10" fill="#27272a" stroke="#eab308" stroke-width="2"/>
    <text x="580.7" y="411.5" text-anchor="middle" class="corner-num">15</text>

    <!-- Turn 16 -->
    <circle cx="632.9" cy="514.9" r="10" fill="#27272a" stroke="#eab308" stroke-width="2"/>
    <text x="632.9" y="518.9" text-anchor="middle" class="corner-num">16</text>

  <!-- Legend -->
  <rect x="30" y="30" width="120" height="90" rx="6" fill="#27272a" stroke="#3f3f46"/>
  <line x1="45" y1="50" x2="75" y2="50" stroke="#ef4444" stroke-width="4"/>
  <text x="85" y="54" font-family="Arial, sans-serif" font-size="9px" fill="#ffffff">Sector 1</text>
  <line x1="45" y1="70" x2="75" y2="70" stroke="#3b82f6" stroke-width="4"/>
  <text x="85" y="74" font-family="Arial, sans-serif" font-size="9px" fill="#ffffff">Sector 2</text>
  <line x1="45" y1="90" x2="75" y2="90" stroke="#eab308" stroke-width="4"/>
  <text x="85" y="94" font-family="Arial, sans-serif" font-size="9px" fill="#ffffff">Sector 3</text>

  <!-- Circuit Name -->
  <text x="400" y="560" text-anchor="middle" font-family="Arial, sans-serif" font-size="18" font-weight="bold" fill="#ffffff">Shanghai International Circuit</text>
  <text x="400" y="580" text-anchor="middle" font-family="Arial, sans-serif" font-size="12" fill="#71717a">Shanghai • 5.451 km • 16 Turns</text>
</svg>