<svg xmlns="http://www.w3.org/2000/svg" viewBox="0 0 800 600" fill="none">
  <defs>
    <style>
      .sector1 { stroke: #ef4444; }
      .sector2 { stroke: #3b82f6; }
      .sector3 { stroke: #eab308; }
      .track { stroke-width: 8; stroke-linecap: round; stroke-linejoin: round; fill: none; }
      .corner-num { font-family: Arial, sans-serif; font-size: 12px; font-weight: bold; fill: #ffffff; }
      .start-finish { stroke: #ffffff; stroke-width: 3; }
    </style>
  </defs>

  <!-- Track Background -->
  <rect width="800" height="600" fill="#18181b"/>

  <!-- Sector 1 - Red -->
  <path class="track sector1" d="M 427.3,64.5 L 479.5,60.0 L 488.8,60.6 L 495.9,62.9 L 500.5,66.0 L 506.1,72.4 L 509.6,79.8 L 512.4,89.0 L 516.4,104.7 L 520.5,120.1 L 522.9,137.2 L 523.9,147.9 L 525.2,173.8 L 525.8,196.0 L 526.7,204.6 L 530.0,212.7 L 536.2,224.0 L 538.8,230.5 L 538.7,235.3 L 537.6,241.0 L 528.7,264.3 L 528.2,273.7 L 529.5,280.5 L 532.7,286.2 L 541.4,298.4 L 543.5,304.0 L 543.7,310.6 L 542.2,316.6 L 536.9,323.2 L 530.1,328.0 L 520.8,333.4 L 513.6,337.7 L 508.5,342.7 L 502.6,352.5 L 491.0,374.2 L 427.5,491.1 L 406.7,523.6 L 400.8,531.5 L 396.0,535.7 L 390.5,538.5 L 384.7,540.0 L 379.4,539.6 L 373.5,538.2 L 368.5,536.0 L 364.1,532.5"/>

  <!-- Sector 2 - Blue -->
  <path class="track sector2" d="M 364.1,532.5 L 360.4,526.9 L 359.2,524.8 L 353.6,512.4 L 347.2,501.4 L 340.4,492.3 L 335.8,486.7 L 330.6,481.0 L 321.4,471.6 L 300.9,447.1 L 298.9,445.8 L 296.0,445.5 L 293.2,446.9 L 284.6,454.6 L 281.7,455.7 L 278.7,455.3 L 276.2,454.3 L 272.7,451.0 L 269.0,447.1 L 264.3,441.0 L 261.0,434.4 L 258.6,427.6 L 256.5,420.0 L 256.3,416.9 L 256.9,413.8 L 258.6,410.9 L 262.6,404.4 L 325.2,322.9 L 339.2,304.8 L 342.1,301.4 L 347.2,298.1 L 353.3,296.6 L 358.3,296.5 L 365.2,297.1 L 384.5,300.0 L 390.8,300.7 L 397.4,301.0 L 404.9,300.0 L 411.7,298.2 L 417.8,294.8 L 457.6,263.2 L 460.2,261.4 L 463.4,259.8 L 466.7,259.5 L 469.2,260.4 L 471.5,262.5 L 472.8,264.8 L 479.6,288.6 L 481.6,291.9 L 484.5,294.0 L 487.8,294.1 L 491.4,292.5 L 493.6,289.6 L 495.1,286.5 L 497.9,278.7"/>

  <!-- Sector 3 - Yellow -->
  <path class="track sector3" d="M 497.9,278.7 L 500.2,272.1 L 501.9,265.7 L 502.8,259.4 L 503.4,252.7 L 502.9,245.9 L 501.6,242.8 L 498.1,238.8 L 368.9,120.9 L 365.4,118.7 L 360.5,116.2 L 354.5,115.3 L 348.3,116.0 L 341.9,119.1 L 339.6,121.9 L 338.1,126.0 L 335.5,147.4 L 334.0,151.8 L 330.8,155.4 L 326.1,157.7 L 320.9,158.4 L 315.1,156.9 L 311.0,154.2 L 308.5,150.9 L 306.6,147.1 L 306.2,143.0 L 307.0,138.6 L 310.2,131.4 L 326.8,98.4 L 332.2,92.1 L 337.4,86.8 L 344.9,80.4 L 351.0,76.1 L 358.7,72.9 L 365.4,70.7 L 379.5,68.9 L 427.3,64.5 L 427.3,64.5"/>

  <!-- Start/Finish Line -->
  <circle cx="427.3" cy="64.5" r="8" fill="#ffffff"/>

  <!-- Corner Numbers -->
  
    <!-- Turn 1 -->
    <circle cx="506.1" cy="72.4" r="12" fill="#27272a" stroke="#ef4444" stroke-width="3"/>
    <text x="506.1" y="77.4" text-anchor="middle" class="corner-num">1</text>

    <!-- Turn 2 -->
    <circle cx="522.9" cy="137.2" r="12" fill="#27272a" stroke="#ef4444" stroke-width="3"/>
    <text x="522.9" y="142.2" text-anchor="middle" class="corner-num">2</text>

    <!-- Turn 3 -->
    <circle cx="538.7" cy="235.3" r="12" fill="#27272a" stroke="#ef4444" stroke-width="3"/>
    <text x="538.7" y="240.3" text-anchor="middle" class="corner-num">3</text>

    <!-- Turn 4 -->
    <circle cx="543.7" cy="310.6" r="12" fill="#27272a" stroke="#ef4444" stroke-width="3"/>
    <text x="543.7" y="315.6" text-anchor="middle" class="corner-num">4</text>

    <!-- Turn 5 -->
    <circle cx="491.0" cy="374.2" r="12" fill="#27272a" stroke="#ef4444" stroke-width="3"/>
    <text x="491.0" y="379.2" text-anchor="middle" class="corner-num">5</text>

    <!-- Turn 6 -->
    <circle cx="373.5" cy="538.2" r="12" fill="#27272a" stroke="#ef4444" stroke-width="3"/>
    <text x="373.5" y="543.2" text-anchor="middle" class="corner-num">6</text>

    <!-- Turn 7 -->
    <circle cx="335.8" cy="486.7" r="12" fill="#27272a" stroke="#3b82f6" stroke-width="3"/>
    <text x="335.8" y="491.7" text-anchor="middle" class="corner-num">7</text>

    <!-- Turn 8 -->
    <circle cx="281.7" cy="455.7" r="12" fill="#27272a" stroke="#3b82f6" stroke-width="3"/>
    <text x="281.7" y="460.7" text-anchor="middle" class="corner-num">8</text>

    <!-- Turn 9 -->
    <circle cx="256.3" cy="416.9" r="12" fill="#27272a" stroke="#3b82f6" stroke-width="3"/>
    <text x="256.3" y="421.9" text-anchor="middle" class="corner-num">9</text>

    <!-- Turn 10 - Copse -->
    <circle cx="353.3" cy="296.6" r="12" fill="#27272a" stroke="#3b82f6" stroke-width="3"/>
    <text x="353.3" y="301.6" text-anchor="middle" class="corner-num">10</text>

    <!-- Turn 11 - Maggots -->
    <circle cx="417.8" cy="294.8" r="12" fill="#27272a" stroke="#3b82f6" stroke-width="3"/>
    <text x="417.8" y="299.8" text-anchor="middle" class="corner-num">11</text>

    <!-- Turn 12 - Becketts -->
    <circle cx="469.2" cy="260.4" r="12" fill="#27272a" stroke="#3b82f6" stroke-width="3"/>
    <text x="469.2" y="265.4" text-anchor="middle" class="corner-num">12</text>

    <!-- Turn 13 -->
    <circle cx="484.5" cy="294.0" r="12" fill="#27272a" stroke="#3b82f6" stroke-width="3"/>
    <text x="484.5" y="299.0" text-anchor="middle" class="corner-num">13</text>

    <!-- Turn 14 -->
    <circle cx="502.8" cy="259.4" r="12" fill="#27272a" stroke="#eab308" stroke-width="3"/>
    <text x="502.8" y="264.4" text-anchor="middle" class="corner-num">14</text>

    <!-- Turn 15 -->
    <circle cx="354.5" cy="115.3" r="12" fill="#27272a" stroke="#eab308" stroke-width="3"/>
    <text x="354.5" y="120.3" text-anchor="middle" class="corner-num">15</text>

    <!-- Turn 16 -->
    <circle cx="326.1" cy="157.7" r="12" fill="#27272a" stroke="#eab308" stroke-width="3"/>
    <text x="326.1" y="162.7" text-anchor="middle" class="corner-num">16</text>

    <!-- Turn 17 -->
    <circle cx="306.2" cy="143.0" r="12" fill="#27272a" stroke="#eab308" stroke-width="3"/>
    <text x="306.2" y="148.0" text-anchor="middle" class="corner-num">17</text>

    <!-- Turn 18 -->
    <circle cx="337.4" cy="86.8" r="12" fill="#27272a" stroke="#eab308" stroke-width="3"/>
    <text x="337.4" y="91.8" text-anchor="middle" class="corner-num">18</text>

  <!-- Circuit Name -->
  <text x="400" y="560" text-anchor="middle" font-family="Arial, sans-serif" font-size="18" font-weight="bold" fill="#ffffff">Silverstone Circuit</text>
  <text x="400" y="580" text-anchor="middle" font-family="Arial, sans-serif" font-size="12" fill="#71717a">Silverstone • 5.891 km • 18 Turns</text>
</svg>