<svg xmlns="http://www.w3.org/2000/svg" viewBox="0 0 800 600" fill="none">
  <defs>
    <style>
      .sector1 { stroke: #ef4444; }
      .sector2 { stroke: #3b82f6; }
      .sector3 { stroke: #eab308; }
      .track { stroke-width: 8; stroke-linecap: round; stroke-linejoin: round; fill: none; }
      .corner-num { font-family: Arial, sans-serif; font-size: 12px; font-weight: bold; fill: #ffffff; }
      .start-finish { stroke: #ffffff; stroke-width: 3; }
    </style>
  </defs>

  <!-- Track Background -->
  <rect width="800" height="600" fill="#18181b"/>

  <!-- Sector 1 - Red -->
  <path class="track sector1" d="M 341.3,110.9 L 314.9,64.8 L 314.6,62.7 L 315.8,60.9 L 318.2,60.0 L 320.9,60.8 L 329.6,65.1 L 350.7,75.3 L 360.9,81.5 L 371.4,89.3 L 380.9,97.2 L 388.4,105.4 L 428.7,153.5 L 431.5,156.2 L 436.4,159.2 L 445.1,164.8 L 448.9,168.6 L 452.1,173.7 L 454.2,178.4 L 455.5,183.6 L 456.7,193.3 L 457.4,196.7 L 458.6,199.9 L 460.8,204.0 L 480.7,235.9 L 493.4,256.1 L 496.9,263.7 L 499.2,269.3 L 501.8,278.3 L 517.7,333.9 L 542.1,418.2 L 547.8,438.5 L 548.1,441.8 L 547.5,445.4 L 545.5,448.3 L 542.7,450.8 L 539.1,452.7 L 536.9,454.8 L 535.5,457.3 L 534.3,460.9 L 534.5,464.6 L 539.4,486.4 L 539.3,490.2"/>

  <!-- Sector 2 - Blue -->
  <path class="track sector2" d="M 539.3,490.2 L 538.5,493.6 L 535.9,497.4 L 532.7,500.0 L 477.1,538.4 L 473.6,539.9 L 470.1,540.0 L 466.4,538.9 L 463.3,536.7 L 461.2,533.6 L 460.3,530.4 L 460.1,527.0 L 461.2,523.8 L 463.1,520.5 L 466.0,518.2 L 490.3,503.2 L 492.9,500.5 L 494.4,497.8 L 495.0,494.6 L 494.7,490.7 L 484.6,461.2 L 481.5,449.1 L 474.4,411.9 L 470.9,390.5 L 470.1,386.9 L 468.3,382.9 L 466.0,379.8 L 462.5,376.3 L 458.6,373.8 L 454.3,372.1 L 449.8,371.3 L 435.2,370.4 L 429.7,371.0 L 424.6,372.4 L 419.4,374.6 L 415.2,377.5 L 410.3,382.0 L 407.2,386.5 L 403.8,392.9 L 390.0,427.4 L 377.7,458.0 L 375.1,462.8 L 372.0,466.1 L 367.7,468.5 L 363.4,469.7 L 359.4,469.8 L 355.4,469.0 L 352.0,467.4 L 346.3,463.7 L 342.6,462.1 L 338.1,461.4 L 333.6,461.9 L 329.5,463.2 L 326.0,465.7 L 323.8,468.5 L 321.0,472.3 L 298.5,507.7 L 296.2,509.7 L 293.5,511.2 L 290.2,511.9 L 286.5,511.7 L 283.3,510.2 L 268.0,499.1"/>

  <!-- Sector 3 - Yellow -->
  <path class="track sector3" d="M 268.0,499.1 L 259.1,492.5 L 256.8,489.6 L 254.5,486.1 L 253.1,482.7 L 252.1,478.6 L 251.9,474.5 L 252.6,469.5 L 254.2,465.2 L 256.2,459.7 L 259.3,451.4 L 264.5,442.0 L 270.3,433.8 L 279.1,424.0 L 293.7,409.7 L 302.3,403.0 L 309.6,398.7 L 347.3,379.0 L 352.8,375.6 L 357.9,371.6 L 362.7,367.1 L 366.8,362.2 L 370.6,357.1 L 375.7,347.7 L 379.8,338.6 L 389.2,317.8 L 390.8,313.2 L 391.8,308.4 L 392.0,302.3 L 391.0,296.8 L 385.5,282.5 L 379.4,266.7 L 372.1,247.1 L 370.2,239.8 L 368.5,231.1 L 367.4,223.1 L 366.7,216.2 L 364.6,184.6 L 365.0,182.5 L 366.2,181.1 L 368.2,180.6 L 371.5,181.1 L 374.9,181.1 L 377.3,180.6 L 378.8,178.9 L 379.2,176.9 L 378.2,174.4 L 366.2,154.7 L 341.3,110.9 L 341.3,110.9"/>

  <!-- Start/Finish Line -->
  <circle cx="341.3" cy="110.9" r="8" fill="#ffffff"/>

  <!-- Corner Numbers -->
  
    <!-- Turn 1 - La Source -->
    <circle cx="318.2" cy="60.0" r="12" fill="#27272a" stroke="#ef4444" stroke-width="3"/>
    <text x="318.2" y="65.0" text-anchor="middle" class="corner-num">1</text>

    <!-- Turn 2 -->
    <circle cx="380.9" cy="97.2" r="12" fill="#27272a" stroke="#ef4444" stroke-width="3"/>
    <text x="380.9" y="102.2" text-anchor="middle" class="corner-num">2</text>

    <!-- Turn 3 - Eau Rouge -->
    <circle cx="448.9" cy="168.6" r="12" fill="#27272a" stroke="#ef4444" stroke-width="3"/>
    <text x="448.9" y="173.6" text-anchor="middle" class="corner-num">3</text>

    <!-- Turn 4 -->
    <circle cx="457.4" cy="196.7" r="12" fill="#27272a" stroke="#ef4444" stroke-width="3"/>
    <text x="457.4" y="201.7" text-anchor="middle" class="corner-num">4</text>

    <!-- Turn 5 -->
    <circle cx="547.5" cy="445.4" r="12" fill="#27272a" stroke="#ef4444" stroke-width="3"/>
    <text x="547.5" y="450.4" text-anchor="middle" class="corner-num">5</text>

    <!-- Turn 6 -->
    <circle cx="539.3" cy="490.2" r="12" fill="#27272a" stroke="#ef4444" stroke-width="3"/>
    <text x="539.3" y="495.2" text-anchor="middle" class="corner-num">6</text>

    <!-- Turn 7 -->
    <circle cx="470.1" cy="540.0" r="12" fill="#27272a" stroke="#3b82f6" stroke-width="3"/>
    <text x="470.1" y="545.0" text-anchor="middle" class="corner-num">7</text>

    <!-- Turn 8 -->
    <circle cx="461.2" cy="523.8" r="12" fill="#27272a" stroke="#3b82f6" stroke-width="3"/>
    <text x="461.2" y="528.8" text-anchor="middle" class="corner-num">8</text>

    <!-- Turn 9 -->
    <circle cx="495.0" cy="494.6" r="12" fill="#27272a" stroke="#3b82f6" stroke-width="3"/>
    <text x="495.0" y="499.6" text-anchor="middle" class="corner-num">9</text>

    <!-- Turn 10 -->
    <circle cx="470.1" cy="386.9" r="12" fill="#27272a" stroke="#3b82f6" stroke-width="3"/>
    <text x="470.1" y="391.9" text-anchor="middle" class="corner-num">10</text>

    <!-- Turn 11 -->
    <circle cx="419.4" cy="374.6" r="12" fill="#27272a" stroke="#3b82f6" stroke-width="3"/>
    <text x="419.4" y="379.6" text-anchor="middle" class="corner-num">11</text>

    <!-- Turn 12 -->
    <circle cx="367.7" cy="468.5" r="12" fill="#27272a" stroke="#3b82f6" stroke-width="3"/>
    <text x="367.7" y="473.5" text-anchor="middle" class="corner-num">12</text>

    <!-- Turn 13 -->
    <circle cx="329.5" cy="463.2" r="12" fill="#27272a" stroke="#3b82f6" stroke-width="3"/>
    <text x="329.5" y="468.2" text-anchor="middle" class="corner-num">13</text>

    <!-- Turn 14 -->
    <circle cx="283.3" cy="510.2" r="12" fill="#27272a" stroke="#3b82f6" stroke-width="3"/>
    <text x="283.3" y="515.2" text-anchor="middle" class="corner-num">14</text>

    <!-- Turn 15 -->
    <circle cx="254.2" cy="465.2" r="12" fill="#27272a" stroke="#eab308" stroke-width="3"/>
    <text x="254.2" y="470.2" text-anchor="middle" class="corner-num">15</text>

    <!-- Turn 16 -->
    <circle cx="347.3" cy="379.0" r="12" fill="#27272a" stroke="#eab308" stroke-width="3"/>
    <text x="347.3" y="384.0" text-anchor="middle" class="corner-num">16</text>

    <!-- Turn 17 -->
    <circle cx="390.8" cy="313.2" r="12" fill="#27272a" stroke="#eab308" stroke-width="3"/>
    <text x="390.8" y="318.2" text-anchor="middle" class="corner-num">17</text>

    <!-- Turn 18 - Bus Stop -->
    <circle cx="367.4" cy="223.1" r="12" fill="#27272a" stroke="#eab308" stroke-width="3"/>
    <text x="367.4" y="228.1" text-anchor="middle" class="corner-num">18</text>

    <!-- Turn 19 -->
    <circle cx="377.3" cy="180.6" r="12" fill="#27272a" stroke="#eab308" stroke-width="3"/>
    <text x="377.3" y="185.6" text-anchor="middle" class="corner-num">19</text>

  <!-- Circuit Name -->
  <text x="400" y="560" text-anchor="middle" font-family="Arial, sans-serif" font-size="18" font-weight="bold" fill="#ffffff">Circuit de Spa-Francorchamps</text>
  <text x="400" y="580" text-anchor="middle" font-family="Arial, sans-serif" font-size="12" fill="#71717a">Stavelot • 7.004 km • 19 Turns</text>
</svg>