<svg xmlns="http://www.w3.org/2000/svg" viewBox="0 0 800 600" fill="none">
  <defs>
    <style>
      .sector1 { stroke: #ef4444; }
      .sector2 { stroke: #3b82f6; }
      .sector3 { stroke: #eab308; }
      .track { stroke-width: 10; stroke-linecap: round; stroke-linejoin: round; fill: none; }
      .corner-num { font-family: Arial, sans-serif; font-size: 10px; font-weight: bold; fill: #ffffff; }
      .start-finish { stroke: #ffffff; stroke-width: 3; }
    </style>
  </defs>

  <!-- Track Background -->
  <rect width="800" height="600" fill="#18181b"/>

  <!-- Sector 1 - Red -->
  <path class="track sector1" d="M 346.2,126.7 L 322.0,84.4 L 321.7,82.5 L 322.8,80.8 L 325.0,80.0 L 327.5,80.7 L 335.5,84.7 L 354.8,94.0 L 364.1,99.7 L 373.8,106.9 L 382.5,114.1 L 389.3,121.6 L 426.3,165.7 L 428.9,168.2 L 433.4,170.9 L 441.3,176.1 L 444.8,179.6 L 447.8,184.3 L 449.7,188.5 L 450.9,193.3 L 452.0,202.2 L 452.6,205.3 L 453.7,208.2 L 455.7,212.0 L 474.0,241.2 L 485.6,259.8 L 488.8,266.7 L 490.9,271.9 L 493.3,280.1 L 507.9,331.1 L 530.3,408.4 L 535.5,426.9 L 535.7,430.0 L 535.2,433.3 L 533.4,436.0 L 530.8,438.2 L 527.5,440.0 L 525.5,441.9 L 524.2,444.1 L 523.1,447.5 L 523.3,450.9 L 527.8,470.9 L 527.7,474.4"/>

  <!-- Sector 2 - Blue -->
  <path class="track sector2" d="M 527.7,474.4 L 527.0,477.5 L 524.5,481.0 L 521.7,483.3 L 470.7,518.6 L 467.5,519.9 L 464.2,520.0 L 460.8,519.0 L 458.1,517.0 L 456.1,514.1 L 455.3,511.2 L 455.1,508.0 L 456.1,505.1 L 457.9,502.1 L 460.5,500.0 L 482.8,486.2 L 485.2,483.8 L 486.5,481.3 L 487.1,478.4 L 486.8,474.8 L 477.6,447.7 L 474.7,436.7 L 468.2,402.5 L 465.0,383.0 L 464.2,379.6 L 462.6,376.0 L 460.5,373.1 L 457.3,370.0 L 453.7,367.6 L 449.7,366.1 L 445.6,365.4 L 432.3,364.5 L 427.2,365.1 L 422.5,366.4 L 417.8,368.4 L 414.0,371.0 L 409.5,375.1 L 406.6,379.3 L 403.5,385.2 L 390.9,416.8 L 379.6,444.8 L 377.2,449.2 L 374.3,452.2 L 370.4,454.4 L 366.4,455.6 L 362.8,455.7 L 359.1,454.9 L 356.0,453.5 L 350.8,450.1 L 347.4,448.6 L 343.3,448.0 L 339.2,448.4 L 335.4,449.6 L 332.2,451.9 L 330.1,454.4 L 327.6,457.9 L 306.9,490.4 L 304.9,492.3 L 302.4,493.6 L 299.3,494.3 L 295.9,494.1 L 293.0,492.7 L 279.0,482.5"/>

  <!-- Sector 3 - Yellow -->
  <path class="track sector3" d="M 279.0,482.5 L 270.8,476.5 L 268.7,473.8 L 266.6,470.6 L 265.3,467.4 L 264.4,463.7 L 264.3,459.9 L 264.9,455.3 L 266.3,451.4 L 268.2,446.4 L 271.0,438.8 L 275.8,430.2 L 281.1,422.7 L 289.1,413.6 L 302.6,400.5 L 310.4,394.4 L 317.1,390.5 L 351.7,372.4 L 356.7,369.3 L 361.4,365.6 L 365.8,361.5 L 369.6,357.0 L 373.1,352.3 L 377.7,343.7 L 381.5,335.4 L 390.1,316.3 L 391.6,312.1 L 392.5,307.7 L 392.7,302.1 L 391.8,297.0 L 386.7,283.9 L 381.1,269.5 L 374.4,251.5 L 372.7,244.8 L 371.1,236.9 L 370.1,229.5 L 369.5,223.2 L 367.5,194.2 L 367.9,192.3 L 369.0,191.0 L 370.8,190.5 L 373.9,191.0 L 377.0,191.0 L 379.2,190.5 L 380.6,189.0 L 380.9,187.2 L 380.0,184.8 L 369.0,166.8 L 346.2,126.7 L 346.2,126.7"/>

  <!-- Start/Finish Line -->
  <circle cx="346.2" cy="126.7" r="6" fill="#ffffff"/>

  <!-- Corner Numbers -->
  
    <!-- Turn 1 -->
    <circle cx="325.0" cy="80.0" r="10" fill="#27272a" stroke="#ef4444" stroke-width="2"/>
    <text x="325.0" y="84.0" text-anchor="middle" class="corner-num">1</text>

    <!-- Turn 2 -->
    <circle cx="382.5" cy="114.1" r="10" fill="#27272a" stroke="#ef4444" stroke-width="2"/>
    <text x="382.5" y="118.1" text-anchor="middle" class="corner-num">2</text>

    <!-- Turn 3 -->
    <circle cx="444.8" cy="179.6" r="10" fill="#27272a" stroke="#ef4444" stroke-width="2"/>
    <text x="444.8" y="183.6" text-anchor="middle" class="corner-num">3</text>

    <!-- Turn 4 -->
    <circle cx="452.6" cy="205.3" r="10" fill="#27272a" stroke="#ef4444" stroke-width="2"/>
    <text x="452.6" y="209.3" text-anchor="middle" class="corner-num">4</text>

    <!-- Turn 5 -->
    <circle cx="535.2" cy="433.3" r="10" fill="#27272a" stroke="#ef4444" stroke-width="2"/>
    <text x="535.2" y="437.3" text-anchor="middle" class="corner-num">5</text>

    <!-- Turn 6 -->
    <circle cx="527.7" cy="474.4" r="10" fill="#27272a" stroke="#ef4444" stroke-width="2"/>
    <text x="527.7" y="478.4" text-anchor="middle" class="corner-num">6</text>

    <!-- Turn 7 -->
    <circle cx="464.2" cy="520.0" r="10" fill="#27272a" stroke="#3b82f6" stroke-width="2"/>
    <text x="464.2" y="524.0" text-anchor="middle" class="corner-num">7</text>

    <!-- Turn 8 -->
    <circle cx="456.1" cy="505.1" r="10" fill="#27272a" stroke="#3b82f6" stroke-width="2"/>
    <text x="456.1" y="509.1" text-anchor="middle" class="corner-num">8</text>

    <!-- Turn 9 -->
    <circle cx="487.1" cy="478.4" r="10" fill="#27272a" stroke="#3b82f6" stroke-width="2"/>
    <text x="487.1" y="482.4" text-anchor="middle" class="corner-num">9</text>

    <!-- Turn 10 -->
    <circle cx="464.2" cy="379.6" r="10" fill="#27272a" stroke="#3b82f6" stroke-width="2"/>
    <text x="464.2" y="383.6" text-anchor="middle" class="corner-num">10</text>

    <!-- Turn 11 -->
    <circle cx="417.8" cy="368.4" r="10" fill="#27272a" stroke="#3b82f6" stroke-width="2"/>
    <text x="417.8" y="372.4" text-anchor="middle" class="corner-num">11</text>

    <!-- Turn 12 -->
    <circle cx="370.4" cy="454.4" r="10" fill="#27272a" stroke="#3b82f6" stroke-width="2"/>
    <text x="370.4" y="458.4" text-anchor="middle" class="corner-num">12</text>

    <!-- Turn 13 -->
    <circle cx="335.4" cy="449.6" r="10" fill="#27272a" stroke="#3b82f6" stroke-width="2"/>
    <text x="335.4" y="453.6" text-anchor="middle" class="corner-num">13</text>

    <!-- Turn 14 -->
    <circle cx="293.0" cy="492.7" r="10" fill="#27272a" stroke="#3b82f6" stroke-width="2"/>
    <text x="293.0" y="496.7" text-anchor="middle" class="corner-num">14</text>

    <!-- Turn 15 -->
    <circle cx="266.3" cy="451.4" r="10" fill="#27272a" stroke="#eab308" stroke-width="2"/>
    <text x="266.3" y="455.4" text-anchor="middle" class="corner-num">15</text>

    <!-- Turn 16 -->
    <circle cx="351.7" cy="372.4" r="10" fill="#27272a" stroke="#eab308" stroke-width="2"/>
    <text x="351.7" y="376.4" text-anchor="middle" class="corner-num">16</text>

    <!-- Turn 17 -->
    <circle cx="391.6" cy="312.1" r="10" fill="#27272a" stroke="#eab308" stroke-width="2"/>
    <text x="391.6" y="316.1" text-anchor="middle" class="corner-num">17</text>

    <!-- Turn 18 -->
    <circle cx="370.1" cy="229.5" r="10" fill="#27272a" stroke="#eab308" stroke-width="2"/>
    <text x="370.1" y="233.5" text-anchor="middle" class="corner-num">18</text>

    <!-- Turn 19 -->
    <circle cx="379.2" cy="190.5" r="10" fill="#27272a" stroke="#eab308" stroke-width="2"/>
    <text x="379.2" y="194.5" text-anchor="middle" class="corner-num">19</text>

  <!-- Legend -->
  <rect x="30" y="30" width="120" height="90" rx="6" fill="#27272a" stroke="#3f3f46"/>
  <line x1="45" y1="50" x2="75" y2="50" stroke="#ef4444" stroke-width="4"/>
  <text x="85" y="54" font-family="Arial, sans-serif" font-size="9px" fill="#ffffff">Sector 1</text>
  <line x1="45" y1="70" x2="75" y2="70" stroke="#3b82f6" stroke-width="4"/>
  <text x="85" y="74" font-family="Arial, sans-serif" font-size="9px" fill="#ffffff">Sector 2</text>
  <line x1="45" y1="90" x2="75" y2="90" stroke="#eab308" stroke-width="4"/>
  <text x="85" y="94" font-family="Arial, sans-serif" font-size="9px" fill="#ffffff">Sector 3</text>

  <!-- Circuit Name -->
  <text x="400" y="560" text-anchor="middle" font-family="Arial, sans-serif" font-size="18" font-weight="bold" fill="#ffffff">Circuit de Spa-Francorchamps</text>
  <text x="400" y="580" text-anchor="middle" font-family="Arial, sans-serif" font-size="12" fill="#71717a">Stavelot • 7.004 km • 19 Turns</text>
</svg>