<svg xmlns="http://www.w3.org/2000/svg" viewBox="0 0 800 600" fill="none">
  <defs>
    <style>
      .sector1 { stroke: #ef4444; }
      .sector2 { stroke: #3b82f6; }
      .sector3 { stroke: #eab308; }
      .track { stroke-width: 8; stroke-linecap: round; stroke-linejoin: round; fill: none; }
      .corner-num { font-family: Arial, sans-serif; font-size: 12px; font-weight: bold; fill: #ffffff; }
      .start-finish { stroke: #ffffff; stroke-width: 3; }
    </style>
  </defs>

  <!-- Track Background -->
  <rect width="800" height="600" fill="#18181b"/>

  <!-- Sector 1 - Red -->
  <path class="track sector1" d="M 640.7,312.4 L 682.6,362.9 L 731.7,423.0 L 736.2,429.4 L 738.7,436.0 L 740.0,442.0 L 739.9,447.8 L 739.2,452.3 L 733.5,470.0 L 730.7,474.7 L 726.8,478.2 L 723.5,480.1 L 717.5,481.5 L 712.0,481.3 L 706.1,479.3 L 700.5,474.9 L 694.8,466.4 L 665.9,421.9 L 660.4,417.3 L 655.7,415.8 L 648.6,414.5 L 633.6,414.4 L 626.1,412.3 L 620.8,408.5 L 616.7,403.6 L 614.8,398.8 L 608.1,373.2 L 605.3,366.7 L 600.8,361.1 L 595.6,357.2 L 589.0,354.2 L 582.3,352.9 L 564.9,352.6 L 556.8,351.1 L 551.3,348.5 L 545.6,344.1 L 541.4,337.9 L 538.9,331.7 L 537.7,325.8 L 537.8,320.2 L 538.9,315.4 L 547.4,292.0 L 548.7,287.3 L 548.9,281.0 L 548.0,276.9 L 545.8,270.9 L 542.4,265.8 L 536.0,261.3 L 528.2,257.1 L 518.9,252.4 L 510.7,249.1 L 504.7,247.4 L 496.1,246.0 L 486.4,245.8 L 478.8,246.1 L 472.4,247.8 L 467.3,250.0 L 459.3,253.5 L 450.8,258.2 L 441.1,266.2 L 433.5,274.2"/>

  <!-- Sector 2 - Blue -->
  <path class="track sector2" d="M 433.5,274.2 L 401.6,312.9 L 399.9,315.1 L 394.8,316.3 L 348.2,320.5 L 345.2,320.2 L 342.0,318.0 L 340.7,314.3 L 340.1,311.3 L 333.1,282.1 L 323.6,227.4 L 321.8,217.3 L 321.4,212.2 L 321.9,207.0 L 322.9,201.5 L 325.0,195.9 L 327.5,190.3 L 335.0,173.1 L 335.8,170.4 L 335.2,168.0 L 333.8,165.7 L 331.3,164.1 L 328.5,163.2 L 325.8,163.4 L 322.7,165.5 L 320.1,169.2 L 309.2,188.1 L 300.2,202.4 L 294.4,210.9 L 289.6,216.5 L 285.5,220.1 L 278.4,225.7 L 270.9,229.7 L 263.0,232.0 L 249.3,234.0 L 236.4,234.6 L 226.7,233.9 L 215.1,231.3 L 202.3,227.7 L 188.1,222.4 L 179.1,218.2 L 171.2,213.5 L 164.0,208.1 L 156.3,201.2 L 148.3,192.4 L 143.1,184.7 L 138.4,176.3 L 126.7,145.3 L 120.5,131.7 L 117.3,126.3 L 113.0,122.3 L 107.4,119.8 L 100.7,118.5 L 92.6,118.7 L 85.1,119.8 L 77.8,121.4 L 70.7,124.3 L 64.9,128.7 L 61.4,134.4 L 60.0,139.9 L 60.4,146.8"/>

  <!-- Sector 3 - Yellow -->
  <path class="track sector3" d="M 60.4,146.8 L 62.0,152.0 L 64.3,157.2 L 68.3,161.5 L 76.1,168.9 L 85.8,177.0 L 95.4,185.4 L 107.5,194.5 L 121.4,204.0 L 135.5,212.8 L 151.4,220.4 L 165.6,227.6 L 180.1,233.2 L 203.8,241.4 L 229.8,251.5 L 261.2,262.5 L 292.5,272.4 L 314.1,279.9 L 342.0,290.6 L 348.4,292.2 L 354.8,292.4 L 361.5,291.1 L 368.0,289.3 L 379.8,284.7 L 390.7,279.3 L 399.8,273.7 L 409.2,266.3 L 426.9,249.8 L 451.0,227.3 L 457.7,221.8 L 462.5,218.4 L 466.8,215.5 L 469.9,213.7 L 471.6,213.5 L 473.8,214.5 L 479.3,219.3 L 483.2,222.6 L 486.4,223.5 L 489.4,222.9 L 492.9,220.6 L 498.8,215.3 L 505.3,210.6 L 512.6,207.5 L 521.5,206.8 L 529.9,207.2 L 538.7,209.0 L 547.5,212.5 L 554.9,216.0 L 564.3,222.4 L 572.7,230.2 L 581.3,239.9 L 640.7,312.4 L 640.7,312.4"/>

  <!-- Start/Finish Line -->
  <circle cx="640.7" cy="312.4" r="8" fill="#ffffff"/>

  <!-- Corner Numbers -->
  
    <!-- Turn 1 -->
    <circle cx="739.9" cy="447.8" r="12" fill="#27272a" stroke="#ef4444" stroke-width="3"/>
    <text x="739.9" y="452.8" text-anchor="middle" class="corner-num">1</text>

    <!-- Turn 2 -->
    <circle cx="712.0" cy="481.3" r="12" fill="#27272a" stroke="#ef4444" stroke-width="3"/>
    <text x="712.0" y="486.3" text-anchor="middle" class="corner-num">2</text>

    <!-- Turn 3 -->
    <circle cx="620.8" cy="408.5" r="12" fill="#27272a" stroke="#ef4444" stroke-width="3"/>
    <text x="620.8" y="413.5" text-anchor="middle" class="corner-num">3</text>

    <!-- Turn 4 -->
    <circle cx="589.0" cy="354.2" r="12" fill="#27272a" stroke="#ef4444" stroke-width="3"/>
    <text x="589.0" y="359.2" text-anchor="middle" class="corner-num">4</text>

    <!-- Turn 5 -->
    <circle cx="538.9" cy="331.7" r="12" fill="#27272a" stroke="#ef4444" stroke-width="3"/>
    <text x="538.9" y="336.7" text-anchor="middle" class="corner-num">5</text>

    <!-- Turn 6 -->
    <circle cx="548.0" cy="276.9" r="12" fill="#27272a" stroke="#ef4444" stroke-width="3"/>
    <text x="548.0" y="281.9" text-anchor="middle" class="corner-num">6</text>

    <!-- Turn 7 -->
    <circle cx="478.8" cy="246.1" r="12" fill="#27272a" stroke="#ef4444" stroke-width="3"/>
    <text x="478.8" y="251.1" text-anchor="middle" class="corner-num">7</text>

    <!-- Turn 8 - Degner -->
    <circle cx="348.2" cy="320.5" r="12" fill="#27272a" stroke="#3b82f6" stroke-width="3"/>
    <text x="348.2" y="325.5" text-anchor="middle" class="corner-num">8</text>

    <!-- Turn 9 -->
    <circle cx="321.8" cy="217.3" r="12" fill="#27272a" stroke="#3b82f6" stroke-width="3"/>
    <text x="321.8" y="222.3" text-anchor="middle" class="corner-num">9</text>

    <!-- Turn 10 -->
    <circle cx="328.5" cy="163.2" r="12" fill="#27272a" stroke="#3b82f6" stroke-width="3"/>
    <text x="328.5" y="168.2" text-anchor="middle" class="corner-num">10</text>

    <!-- Turn 11 - Hairpin -->
    <circle cx="270.9" cy="229.7" r="12" fill="#27272a" stroke="#3b82f6" stroke-width="3"/>
    <text x="270.9" y="234.7" text-anchor="middle" class="corner-num">11</text>

    <!-- Turn 12 -->
    <circle cx="164.0" cy="208.1" r="12" fill="#27272a" stroke="#3b82f6" stroke-width="3"/>
    <text x="164.0" y="213.1" text-anchor="middle" class="corner-num">12</text>

    <!-- Turn 13 - Spoon -->
    <circle cx="100.7" cy="118.5" r="12" fill="#27272a" stroke="#3b82f6" stroke-width="3"/>
    <text x="100.7" y="123.5" text-anchor="middle" class="corner-num">13</text>

    <!-- Turn 14 -->
    <circle cx="68.3" cy="161.5" r="12" fill="#27272a" stroke="#eab308" stroke-width="3"/>
    <text x="68.3" y="166.5" text-anchor="middle" class="corner-num">14</text>

    <!-- Turn 15 - 130R -->
    <circle cx="292.5" cy="272.4" r="12" fill="#27272a" stroke="#eab308" stroke-width="3"/>
    <text x="292.5" y="277.4" text-anchor="middle" class="corner-num">15</text>

    <!-- Turn 16 -->
    <circle cx="462.5" cy="218.4" r="12" fill="#27272a" stroke="#eab308" stroke-width="3"/>
    <text x="462.5" y="223.4" text-anchor="middle" class="corner-num">16</text>

    <!-- Turn 17 -->
    <circle cx="486.4" cy="223.5" r="12" fill="#27272a" stroke="#eab308" stroke-width="3"/>
    <text x="486.4" y="228.5" text-anchor="middle" class="corner-num">17</text>

    <!-- Turn 18 -->
    <circle cx="529.9" cy="207.2" r="12" fill="#27272a" stroke="#eab308" stroke-width="3"/>
    <text x="529.9" y="212.2" text-anchor="middle" class="corner-num">18</text>

  <!-- Circuit Name -->
  <text x="400" y="560" text-anchor="middle" font-family="Arial, sans-serif" font-size="18" font-weight="bold" fill="#ffffff">Suzuka International Racing Course</text>
  <text x="400" y="580" text-anchor="middle" font-family="Arial, sans-serif" font-size="12" fill="#71717a">Suzuka • 5.807 km • 18 Turns</text>
</svg>