<svg xmlns="http://www.w3.org/2000/svg" viewBox="0 0 800 600" fill="none">
  <defs>
    <style>
      .sector1 { stroke: #ef4444; }
      .sector2 { stroke: #3b82f6; }
      .sector3 { stroke: #eab308; }
      .track { stroke-width: 10; stroke-linecap: round; stroke-linejoin: round; fill: none; }
      .corner-num { font-family: Arial, sans-serif; font-size: 10px; font-weight: bold; fill: #ffffff; }
      .start-finish { stroke: #ffffff; stroke-width: 3; }
    </style>
  </defs>

  <!-- Track Background -->
  <rect width="800" height="600" fill="#18181b"/>

  <!-- Sector 1 - Red -->
  <path class="track sector1" d="M 626.5,311.6 L 666.0,359.2 L 712.2,415.8 L 716.4,421.8 L 718.8,428.0 L 720.0,433.6 L 719.9,439.1 L 719.2,443.4 L 713.8,460.0 L 711.3,464.4 L 707.6,467.7 L 704.4,469.5 L 698.8,470.8 L 693.7,470.7 L 688.1,468.8 L 682.8,464.6 L 677.5,456.6 L 650.2,414.8 L 645.1,410.4 L 640.6,408.9 L 633.9,407.8 L 619.9,407.7 L 612.8,405.6 L 607.8,402.1 L 604.0,397.5 L 602.2,393.0 L 595.9,368.9 L 593.2,362.8 L 589.0,357.5 L 584.1,353.9 L 577.9,351.0 L 571.5,349.8 L 555.2,349.5 L 547.6,348.1 L 542.4,345.6 L 537.1,341.5 L 533.1,335.7 L 530.7,329.8 L 529.6,324.3 L 529.7,319.0 L 530.7,314.5 L 538.7,292.5 L 539.9,288.0 L 540.2,282.2 L 539.3,278.3 L 537.2,272.6 L 534.0,267.9 L 528.0,263.6 L 520.6,259.6 L 511.9,255.2 L 504.2,252.1 L 498.5,250.5 L 490.5,249.2 L 481.3,249.0 L 474.2,249.3 L 468.2,250.9 L 463.3,253.0 L 455.8,256.2 L 447.8,260.7 L 438.7,268.1 L 431.5,275.7"/>

  <!-- Sector 2 - Blue -->
  <path class="track sector2" d="M 431.5,275.7 L 401.5,312.2 L 399.9,314.3 L 395.1,315.4 L 351.3,319.3 L 348.4,319.0 L 345.4,316.9 L 344.2,313.5 L 343.7,310.6 L 337.0,283.2 L 328.1,231.6 L 326.4,222.2 L 326.0,217.4 L 326.5,212.5 L 327.4,207.3 L 329.4,202.0 L 331.7,196.8 L 338.8,180.5 L 339.6,178.0 L 339.0,175.7 L 337.7,173.6 L 335.4,172.1 L 332.7,171.2 L 330.2,171.4 L 327.3,173.4 L 324.8,176.9 L 314.5,194.7 L 306.1,208.2 L 300.6,216.2 L 296.1,221.4 L 292.2,224.8 L 285.5,230.1 L 278.5,233.8 L 271.1,236.0 L 258.2,237.9 L 246.0,238.4 L 236.9,237.7 L 225.9,235.3 L 214.0,232.0 L 200.6,227.0 L 192.1,223.0 L 184.7,218.6 L 177.8,213.5 L 170.6,207.0 L 163.1,198.7 L 158.2,191.5 L 153.8,183.6 L 142.8,154.4 L 136.9,141.6 L 134.0,136.5 L 129.9,132.7 L 124.6,130.4 L 118.3,129.2 L 110.7,129.3 L 103.6,130.4 L 96.8,131.9 L 90.1,134.6 L 84.6,138.8 L 81.3,144.1 L 80.0,149.3 L 80.4,155.8"/>

  <!-- Sector 3 - Yellow -->
  <path class="track sector3" d="M 80.4,155.8 L 81.9,160.7 L 84.0,165.6 L 87.8,169.7 L 95.1,176.6 L 104.3,184.2 L 113.3,192.1 L 124.7,200.7 L 137.8,209.6 L 151.1,218.0 L 166.0,225.1 L 179.4,231.9 L 193.1,237.1 L 215.3,244.8 L 239.8,254.4 L 269.4,264.7 L 298.8,274.0 L 319.1,281.1 L 345.4,291.1 L 351.4,292.6 L 357.4,292.8 L 363.8,291.6 L 369.9,289.9 L 381.0,285.6 L 391.2,280.5 L 399.8,275.2 L 408.7,268.3 L 425.3,252.8 L 448.0,231.6 L 454.3,226.4 L 458.8,223.2 L 462.9,220.5 L 465.8,218.8 L 467.4,218.6 L 469.5,219.5 L 474.6,224.1 L 478.3,227.1 L 481.3,228.0 L 484.1,227.5 L 487.5,225.3 L 493.0,220.3 L 499.1,215.9 L 506.0,213.0 L 514.4,212.2 L 522.2,212.7 L 530.5,214.4 L 538.8,217.6 L 545.8,221.0 L 554.6,227.0 L 562.5,234.3 L 570.7,243.4 L 626.5,311.6 L 626.5,311.6"/>

  <!-- Start/Finish Line -->
  <circle cx="626.5" cy="311.6" r="6" fill="#ffffff"/>

  <!-- Corner Numbers -->
  
    <!-- Turn 1 -->
    <circle cx="719.9" cy="439.1" r="10" fill="#27272a" stroke="#ef4444" stroke-width="2"/>
    <text x="719.9" y="443.1" text-anchor="middle" class="corner-num">1</text>

    <!-- Turn 2 -->
    <circle cx="693.7" cy="470.7" r="10" fill="#27272a" stroke="#ef4444" stroke-width="2"/>
    <text x="693.7" y="474.7" text-anchor="middle" class="corner-num">2</text>

    <!-- Turn 3 -->
    <circle cx="607.8" cy="402.1" r="10" fill="#27272a" stroke="#ef4444" stroke-width="2"/>
    <text x="607.8" y="406.1" text-anchor="middle" class="corner-num">3</text>

    <!-- Turn 4 -->
    <circle cx="577.9" cy="351.0" r="10" fill="#27272a" stroke="#ef4444" stroke-width="2"/>
    <text x="577.9" y="355.0" text-anchor="middle" class="corner-num">4</text>

    <!-- Turn 5 -->
    <circle cx="530.7" cy="329.8" r="10" fill="#27272a" stroke="#ef4444" stroke-width="2"/>
    <text x="530.7" y="333.8" text-anchor="middle" class="corner-num">5</text>

    <!-- Turn 6 -->
    <circle cx="539.3" cy="278.3" r="10" fill="#27272a" stroke="#ef4444" stroke-width="2"/>
    <text x="539.3" y="282.3" text-anchor="middle" class="corner-num">6</text>

    <!-- Turn 7 -->
    <circle cx="474.2" cy="249.3" r="10" fill="#27272a" stroke="#ef4444" stroke-width="2"/>
    <text x="474.2" y="253.3" text-anchor="middle" class="corner-num">7</text>

    <!-- Turn 8 -->
    <circle cx="351.3" cy="319.3" r="10" fill="#27272a" stroke="#3b82f6" stroke-width="2"/>
    <text x="351.3" y="323.3" text-anchor="middle" class="corner-num">8</text>

    <!-- Turn 9 -->
    <circle cx="326.4" cy="222.2" r="10" fill="#27272a" stroke="#3b82f6" stroke-width="2"/>
    <text x="326.4" y="226.2" text-anchor="middle" class="corner-num">9</text>

    <!-- Turn 10 -->
    <circle cx="332.7" cy="171.2" r="10" fill="#27272a" stroke="#3b82f6" stroke-width="2"/>
    <text x="332.7" y="175.2" text-anchor="middle" class="corner-num">10</text>

    <!-- Turn 11 -->
    <circle cx="278.5" cy="233.8" r="10" fill="#27272a" stroke="#3b82f6" stroke-width="2"/>
    <text x="278.5" y="237.8" text-anchor="middle" class="corner-num">11</text>

    <!-- Turn 12 -->
    <circle cx="177.8" cy="213.5" r="10" fill="#27272a" stroke="#3b82f6" stroke-width="2"/>
    <text x="177.8" y="217.5" text-anchor="middle" class="corner-num">12</text>

    <!-- Turn 13 -->
    <circle cx="118.3" cy="129.2" r="10" fill="#27272a" stroke="#3b82f6" stroke-width="2"/>
    <text x="118.3" y="133.2" text-anchor="middle" class="corner-num">13</text>

    <!-- Turn 14 -->
    <circle cx="87.8" cy="169.7" r="10" fill="#27272a" stroke="#eab308" stroke-width="2"/>
    <text x="87.8" y="173.7" text-anchor="middle" class="corner-num">14</text>

    <!-- Turn 15 -->
    <circle cx="298.8" cy="274.0" r="10" fill="#27272a" stroke="#eab308" stroke-width="2"/>
    <text x="298.8" y="278.0" text-anchor="middle" class="corner-num">15</text>

    <!-- Turn 16 -->
    <circle cx="458.8" cy="223.2" r="10" fill="#27272a" stroke="#eab308" stroke-width="2"/>
    <text x="458.8" y="227.2" text-anchor="middle" class="corner-num">16</text>

    <!-- Turn 17 -->
    <circle cx="481.3" cy="228.0" r="10" fill="#27272a" stroke="#eab308" stroke-width="2"/>
    <text x="481.3" y="232.0" text-anchor="middle" class="corner-num">17</text>

    <!-- Turn 18 -->
    <circle cx="522.2" cy="212.7" r="10" fill="#27272a" stroke="#eab308" stroke-width="2"/>
    <text x="522.2" y="216.7" text-anchor="middle" class="corner-num">18</text>

  <!-- Legend -->
  <rect x="30" y="30" width="120" height="90" rx="6" fill="#27272a" stroke="#3f3f46"/>
  <line x1="45" y1="50" x2="75" y2="50" stroke="#ef4444" stroke-width="4"/>
  <text x="85" y="54" font-family="Arial, sans-serif" font-size="9px" fill="#ffffff">Sector 1</text>
  <line x1="45" y1="70" x2="75" y2="70" stroke="#3b82f6" stroke-width="4"/>
  <text x="85" y="74" font-family="Arial, sans-serif" font-size="9px" fill="#ffffff">Sector 2</text>
  <line x1="45" y1="90" x2="75" y2="90" stroke="#eab308" stroke-width="4"/>
  <text x="85" y="94" font-family="Arial, sans-serif" font-size="9px" fill="#ffffff">Sector 3</text>

  <!-- Circuit Name -->
  <text x="400" y="560" text-anchor="middle" font-family="Arial, sans-serif" font-size="18" font-weight="bold" fill="#ffffff">Suzuka International Racing Course</text>
  <text x="400" y="580" text-anchor="middle" font-family="Arial, sans-serif" font-size="12" fill="#71717a">Suzuka • 5.807 km • 18 Turns</text>
</svg>