<svg xmlns="http://www.w3.org/2000/svg" viewBox="0 0 800 600" fill="none">
  <defs>
    <style>
      .sector1 { stroke: #ef4444; }
      .sector2 { stroke: #3b82f6; }
      .sector3 { stroke: #eab308; }
      .track { stroke-width: 10; stroke-linecap: round; stroke-linejoin: round; fill: none; }
      .corner-num { font-family: Arial, sans-serif; font-size: 10px; font-weight: bold; fill: #ffffff; }
      .start-finish { stroke: #ffffff; stroke-width: 3; }
    </style>
  </defs>

  <!-- Track Background -->
  <rect width="800" height="600" fill="#18181b"/>

  <!-- Sector 1 - Red -->
  <path class="track sector1" d="M 397.4,326.5 L 458.6,318.2 L 461.9,317.1 L 464.3,314.6 L 466.0,311.1 L 466.3,307.6 L 465.4,304.0 L 455.6,262.4 L 453.9,257.8 L 451.6,254.5 L 447.8,251.3 L 444.6,249.7 L 427.2,244.3 L 421.5,241.3 L 417.2,238.4 L 413.3,234.8 L 410.4,231.3 L 408.2,228.4 L 405.6,222.1 L 404.6,217.3 L 404.5,212.1 L 405.6,205.9 L 407.5,199.4 L 411.9,182.9 L 413.4,170.6 L 413.5,161.9 L 412.8,154.3 L 408.0,115.4 L 404.8,91.0 L 404.2,88.1 L 403.6,85.8 L 401.8,83.5 L 398.6,80.9 L 396.7,80.2 L 394.6,80.0 L 392.5,80.3 L 390.3,81.2 L 388.6,82.9 L 387.6,84.5 L 386.3,87.1 L 382.5,98.4 L 378.9,114.7 L 348.3,206.0 L 336.4,241.3"/>

  <!-- Sector 2 - Blue -->
  <path class="track sector2" d="M 336.4,241.3 L 329.8,261.1 L 324.8,276.3 L 319.6,295.3 L 308.7,330.3 L 298.3,361.7 L 297.1,364.8 L 296.7,367.1 L 297.1,368.4 L 298.2,369.8 L 300.9,369.8 L 310.6,368.7 L 312.7,368.7 L 314.5,370.8 L 320.0,391.8 L 321.1,395.7 L 324.6,404.4 L 327.8,410.7 L 334.7,420.7 L 342.5,429.8 L 352.3,438.2 L 394.0,471.1 L 403.4,478.8 L 410.9,484.1 L 420.9,490.5 L 429.4,495.5 L 443.3,502.2 L 455.9,507.8 L 474.7,516.7 L 482.8,520.0 L 487.3,520.0 L 492.1,519.0 L 496.4,516.5 L 498.8,514.3 L 500.3,512.0 L 501.9,508.8 L 502.7,505.6 L 503.3,502.6 L 502.8,497.8 L 501.9,494.2 L 500.5,490.8 L 498.4,487.7 L 495.5,484.9 L 491.9,482.5 L 488.1,480.8 L 482.6,480.0 L 438.8,476.5"/>

  <!-- Sector 3 - Yellow -->
  <path class="track sector3" d="M 438.8,476.5 L 433.4,475.8 L 431.0,475.3 L 428.6,474.4 L 405.0,459.7 L 402.6,457.9 L 401.0,455.9 L 399.3,451.5 L 393.8,425.8 L 394.2,423.8 L 395.5,422.5 L 397.4,421.9 L 416.9,419.0 L 419.2,418.0 L 420.7,417.3 L 422.3,415.7 L 423.8,412.7 L 424.2,409.1 L 424.2,391.4 L 422.8,388.3 L 421.0,386.5 L 418.4,385.5 L 414.7,384.7 L 411.6,384.3 L 407.3,384.1 L 403.1,384.4 L 362.3,390.7 L 358.8,391.0 L 354.3,390.8 L 350.0,390.0 L 347.0,389.1 L 345.0,387.2 L 342.9,385.0 L 331.7,364.7 L 325.9,355.3 L 324.7,352.6 L 323.9,348.9 L 323.6,345.8 L 323.5,342.0 L 324.1,339.5 L 325.6,337.6 L 327.5,336.7 L 331.8,335.9 L 397.4,326.5 L 397.4,326.5"/>

  <!-- Start/Finish Line -->
  <circle cx="397.4" cy="326.5" r="6" fill="#ffffff"/>

  <!-- Corner Numbers -->
  
    <!-- Turn 1 -->
    <circle cx="465.4" cy="304.0" r="10" fill="#27272a" stroke="#ef4444" stroke-width="2"/>
    <text x="465.4" y="308.0" text-anchor="middle" class="corner-num">1</text>

    <!-- Turn 2 -->
    <circle cx="421.5" cy="241.3" r="10" fill="#27272a" stroke="#ef4444" stroke-width="2"/>
    <text x="421.5" y="245.3" text-anchor="middle" class="corner-num">2</text>

    <!-- Turn 3 -->
    <circle cx="405.6" cy="205.9" r="10" fill="#27272a" stroke="#ef4444" stroke-width="2"/>
    <text x="405.6" y="209.9" text-anchor="middle" class="corner-num">3</text>

    <!-- Turn 4 -->
    <circle cx="404.2" cy="88.1" r="10" fill="#27272a" stroke="#ef4444" stroke-width="2"/>
    <text x="404.2" y="92.1" text-anchor="middle" class="corner-num">4</text>

    <!-- Turn 5 -->
    <circle cx="386.3" cy="87.1" r="10" fill="#27272a" stroke="#ef4444" stroke-width="2"/>
    <text x="386.3" y="91.1" text-anchor="middle" class="corner-num">5</text>

    <!-- Turn 6 -->
    <circle cx="296.7" cy="367.1" r="10" fill="#27272a" stroke="#3b82f6" stroke-width="2"/>
    <text x="296.7" y="371.1" text-anchor="middle" class="corner-num">6</text>

    <!-- Turn 7 -->
    <circle cx="327.8" cy="410.7" r="10" fill="#27272a" stroke="#3b82f6" stroke-width="2"/>
    <text x="327.8" y="414.7" text-anchor="middle" class="corner-num">7</text>

    <!-- Turn 8 -->
    <circle cx="429.4" cy="495.5" r="10" fill="#27272a" stroke="#3b82f6" stroke-width="2"/>
    <text x="429.4" y="499.5" text-anchor="middle" class="corner-num">8</text>

    <!-- Turn 9 -->
    <circle cx="498.8" cy="514.3" r="10" fill="#27272a" stroke="#3b82f6" stroke-width="2"/>
    <text x="498.8" y="518.3" text-anchor="middle" class="corner-num">9</text>

    <!-- Turn 10 -->
    <circle cx="498.4" cy="487.7" r="10" fill="#27272a" stroke="#3b82f6" stroke-width="2"/>
    <text x="498.4" y="491.7" text-anchor="middle" class="corner-num">10</text>

    <!-- Turn 11 -->
    <circle cx="428.6" cy="474.4" r="10" fill="#27272a" stroke="#eab308" stroke-width="2"/>
    <text x="428.6" y="478.4" text-anchor="middle" class="corner-num">11</text>

    <!-- Turn 12 -->
    <circle cx="397.4" cy="421.9" r="10" fill="#27272a" stroke="#eab308" stroke-width="2"/>
    <text x="397.4" y="425.9" text-anchor="middle" class="corner-num">12</text>

    <!-- Turn 13 -->
    <circle cx="422.8" cy="388.3" r="10" fill="#27272a" stroke="#eab308" stroke-width="2"/>
    <text x="422.8" y="392.3" text-anchor="middle" class="corner-num">13</text>

    <!-- Turn 14 -->
    <circle cx="358.8" cy="391.0" r="10" fill="#27272a" stroke="#eab308" stroke-width="2"/>
    <text x="358.8" y="395.0" text-anchor="middle" class="corner-num">14</text>

    <!-- Turn 15 -->
    <circle cx="342.9" cy="385.0" r="10" fill="#27272a" stroke="#eab308" stroke-width="2"/>
    <text x="342.9" y="389.0" text-anchor="middle" class="corner-num">15</text>

    <!-- Turn 16 -->
    <circle cx="324.1" cy="339.5" r="10" fill="#27272a" stroke="#eab308" stroke-width="2"/>
    <text x="324.1" y="343.5" text-anchor="middle" class="corner-num">16</text>

  <!-- Legend -->
  <rect x="30" y="30" width="120" height="90" rx="6" fill="#27272a" stroke="#3f3f46"/>
  <line x1="45" y1="50" x2="75" y2="50" stroke="#ef4444" stroke-width="4"/>
  <text x="85" y="54" font-family="Arial, sans-serif" font-size="9px" fill="#ffffff">Sector 1</text>
  <line x1="45" y1="70" x2="75" y2="70" stroke="#3b82f6" stroke-width="4"/>
  <text x="85" y="74" font-family="Arial, sans-serif" font-size="9px" fill="#ffffff">Sector 2</text>
  <line x1="45" y1="90" x2="75" y2="90" stroke="#eab308" stroke-width="4"/>
  <text x="85" y="94" font-family="Arial, sans-serif" font-size="9px" fill="#ffffff">Sector 3</text>

  <!-- Circuit Name -->
  <text x="400" y="560" text-anchor="middle" font-family="Arial, sans-serif" font-size="18" font-weight="bold" fill="#ffffff">Yas Marina Circuit</text>
  <text x="400" y="580" text-anchor="middle" font-family="Arial, sans-serif" font-size="12" fill="#71717a">Abu Dhabi • 5.281 km • 16 Turns</text>
</svg>