<svg xmlns="http://www.w3.org/2000/svg" viewBox="0 0 800 600" fill="none">
  <defs>
    <style>
      .sector1 { stroke: #ef4444; }
      .sector2 { stroke: #3b82f6; }
      .sector3 { stroke: #eab308; }
      .track { stroke-width: 8; stroke-linecap: round; stroke-linejoin: round; fill: none; }
      .corner-num { font-family: Arial, sans-serif; font-size: 12px; font-weight: bold; fill: #ffffff; }
      .start-finish { stroke: #ffffff; stroke-width: 3; }
    </style>
  </defs>

  <!-- Track Background -->
  <rect width="800" height="600" fill="#18181b"/>

  <!-- Sector 1 - Red -->
  <path class="track sector1" d="M 187.2,279.3 L 250.3,126.7 L 274.3,70.7 L 279.7,64.5 L 287.1,61.0 L 295.1,60.0 L 302.6,61.5 L 309.6,66.3 L 314.4,72.3 L 317.0,79.8 L 317.2,88.1 L 310.3,104.3 L 290.2,153.0 L 283.8,175.7 L 281.2,199.3 L 282.6,221.5 L 280.5,230.5 L 275.6,236.6 L 265.7,244.6 L 255.2,248.8 L 225.9,260.2 L 218.4,265.8 L 216.4,274.2 L 216.1,281.8 L 219.1,289.4 L 224.8,294.9 L 231.9,297.8 L 242.7,297.6 L 296.3,280.5 L 321.1,275.8 L 342.6,275.1 L 361.5,276.5 L 379.4,279.6 L 392.2,283.5 L 413.2,287.9 L 432.5,289.6 L 446.2,286.8 L 462.6,282.5 L 482.5,272.5 L 505.7,257.3"/>

  <!-- Sector 2 - Blue -->
  <path class="track sector2" d="M 505.7,257.3 L 521.5,249.8 L 535.6,245.7 L 554.1,243.7 L 568.7,244.0 L 629.5,247.7 L 643.6,251.0 L 656.6,257.5 L 665.8,265.4 L 671.8,273.8 L 677.6,283.5 L 680.6,294.7 L 681.6,306.4 L 680.5,318.0 L 677.1,329.7 L 669.8,342.5 L 641.8,380.6 L 631.5,397.6 L 608.2,448.0 L 597.0,452.0 L 583.1,453.6 L 569.9,452.9 L 554.2,450.3 L 538.0,444.7 L 520.7,436.4 L 503.5,424.2 L 492.9,412.4 L 491.0,405.2 L 492.6,397.6 L 499.3,388.0 L 508.7,382.0 L 522.6,376.9 L 546.3,373.1 L 569.1,367.4 L 590.0,359.4 L 601.5,351.3 L 605.9,341.6 L 606.5,330.9 L 602.7,320.4 L 593.1,310.8 L 584.4,307.7"/>

  <!-- Sector 3 - Yellow -->
  <path class="track sector3" d="M 584.4,307.7 L 539.5,302.3 L 494.2,302.4 L 446.1,308.2 L 405.4,318.4 L 380.3,326.4 L 352.5,336.7 L 326.0,347.9 L 304.3,360.8 L 296.4,364.2 L 290.7,363.1 L 285.4,355.7 L 279.7,345.0 L 272.0,340.2 L 262.0,339.8 L 252.2,344.4 L 247.0,351.4 L 244.6,359.0 L 247.0,374.3 L 268.8,501.5 L 269.3,510.0 L 266.9,518.7 L 263.0,526.1 L 259.3,530.8 L 250.0,537.0 L 240.2,539.3 L 198.3,540.0 L 189.8,539.5 L 177.4,537.6 L 164.5,533.4 L 153.9,528.6 L 139.8,517.5 L 130.7,505.3 L 124.4,494.8 L 119.9,480.6 L 118.4,468.1 L 119.7,447.8 L 123.6,433.4 L 183.9,286.9 L 187.2,279.3 L 187.2,279.3"/>

  <!-- Start/Finish Line -->
  <circle cx="187.2" cy="279.3" r="8" fill="#ffffff"/>

  <!-- Corner Numbers -->
  
    <!-- Turn 1 - Tarzan -->
    <circle cx="295.1" cy="60.0" r="12" fill="#27272a" stroke="#ef4444" stroke-width="3"/>
    <text x="295.1" y="65.0" text-anchor="middle" class="corner-num">1</text>

    <!-- Turn 2 -->
    <circle cx="281.2" cy="199.3" r="12" fill="#27272a" stroke="#ef4444" stroke-width="3"/>
    <text x="281.2" y="204.3" text-anchor="middle" class="corner-num">2</text>

    <!-- Turn 3 -->
    <circle cx="216.1" cy="281.8" r="12" fill="#27272a" stroke="#ef4444" stroke-width="3"/>
    <text x="216.1" y="286.8" text-anchor="middle" class="corner-num">3</text>

    <!-- Turn 4 -->
    <circle cx="392.2" cy="283.5" r="12" fill="#27272a" stroke="#ef4444" stroke-width="3"/>
    <text x="392.2" y="288.5" text-anchor="middle" class="corner-num">4</text>

    <!-- Turn 5 -->
    <circle cx="554.1" cy="243.7" r="12" fill="#27272a" stroke="#3b82f6" stroke-width="3"/>
    <text x="554.1" y="248.7" text-anchor="middle" class="corner-num">5</text>

    <!-- Turn 6 -->
    <circle cx="681.6" cy="306.4" r="12" fill="#27272a" stroke="#3b82f6" stroke-width="3"/>
    <text x="681.6" y="311.4" text-anchor="middle" class="corner-num">6</text>

    <!-- Turn 7 -->
    <circle cx="554.2" cy="450.3" r="12" fill="#27272a" stroke="#3b82f6" stroke-width="3"/>
    <text x="554.2" y="455.3" text-anchor="middle" class="corner-num">7</text>

    <!-- Turn 8 -->
    <circle cx="499.3" cy="388.0" r="12" fill="#27272a" stroke="#3b82f6" stroke-width="3"/>
    <text x="499.3" y="393.0" text-anchor="middle" class="corner-num">8</text>

    <!-- Turn 9 -->
    <circle cx="605.9" cy="341.6" r="12" fill="#27272a" stroke="#3b82f6" stroke-width="3"/>
    <text x="605.9" y="346.6" text-anchor="middle" class="corner-num">9</text>

    <!-- Turn 10 -->
    <circle cx="446.1" cy="308.2" r="12" fill="#27272a" stroke="#eab308" stroke-width="3"/>
    <text x="446.1" y="313.2" text-anchor="middle" class="corner-num">10</text>

    <!-- Turn 11 -->
    <circle cx="272.0" cy="340.2" r="12" fill="#27272a" stroke="#eab308" stroke-width="3"/>
    <text x="272.0" y="345.2" text-anchor="middle" class="corner-num">11</text>

    <!-- Turn 12 -->
    <circle cx="269.3" cy="510.0" r="12" fill="#27272a" stroke="#eab308" stroke-width="3"/>
    <text x="269.3" y="515.0" text-anchor="middle" class="corner-num">12</text>

    <!-- Turn 13 -->
    <circle cx="189.8" cy="539.5" r="12" fill="#27272a" stroke="#eab308" stroke-width="3"/>
    <text x="189.8" y="544.5" text-anchor="middle" class="corner-num">13</text>

    <!-- Turn 14 -->
    <circle cx="119.9" cy="480.6" r="12" fill="#27272a" stroke="#eab308" stroke-width="3"/>
    <text x="119.9" y="485.6" text-anchor="middle" class="corner-num">14</text>

  <!-- Circuit Name -->
  <text x="400" y="560" text-anchor="middle" font-family="Arial, sans-serif" font-size="18" font-weight="bold" fill="#ffffff">Circuit Zandvoort</text>
  <text x="400" y="580" text-anchor="middle" font-family="Arial, sans-serif" font-size="12" fill="#71717a">Zandvoort • 4.259 km • 14 Turns</text>
</svg>