<svg xmlns="http://www.w3.org/2000/svg" viewBox="0 0 800 600" fill="none">
  <defs>
    <style>
      .sector1 { stroke: #ef4444; }
      .sector2 { stroke: #3b82f6; }
      .sector3 { stroke: #eab308; }
      .track { stroke-width: 10; stroke-linecap: round; stroke-linejoin: round; fill: none; }
      .corner-num { font-family: Arial, sans-serif; font-size: 10px; font-weight: bold; fill: #ffffff; }
      .start-finish { stroke: #ffffff; stroke-width: 3; }
    </style>
  </defs>

  <!-- Track Background -->
  <rect width="800" height="600" fill="#18181b"/>

  <!-- Sector 1 - Red -->
  <path class="track sector1" d="M 204.9,281.0 L 262.8,141.1 L 284.8,89.8 L 289.8,84.1 L 296.5,80.9 L 303.9,80.0 L 310.7,81.4 L 317.1,85.8 L 321.6,91.3 L 323.9,98.1 L 324.1,105.8 L 317.7,120.6 L 299.4,165.2 L 293.5,186.0 L 291.1,207.7 L 292.4,228.0 L 290.4,236.3 L 285.9,241.9 L 276.9,249.2 L 267.2,253.0 L 240.4,263.5 L 233.6,268.7 L 231.7,276.4 L 231.4,283.3 L 234.2,290.3 L 239.4,295.3 L 245.9,298.0 L 255.8,297.8 L 304.9,282.1 L 327.7,277.8 L 347.3,277.2 L 364.7,278.5 L 381.2,281.3 L 392.9,284.9 L 412.1,289.0 L 429.8,290.5 L 442.3,287.9 L 457.4,283.9 L 475.6,274.8 L 496.9,260.8"/>

  <!-- Sector 2 - Blue -->
  <path class="track sector2" d="M 496.9,260.8 L 511.4,254.0 L 524.3,250.3 L 541.2,248.4 L 554.6,248.7 L 610.4,252.1 L 623.3,255.0 L 635.2,261.0 L 643.7,268.3 L 649.1,276.0 L 654.4,284.9 L 657.2,295.1 L 658.1,305.9 L 657.1,316.5 L 654.0,327.2 L 647.3,338.9 L 621.7,373.9 L 612.2,389.4 L 590.8,435.7 L 580.5,439.3 L 567.9,440.8 L 555.7,440.2 L 541.4,437.8 L 526.5,432.7 L 510.6,425.1 L 494.9,413.8 L 485.1,403.0 L 483.4,396.4 L 484.9,389.4 L 491.0,380.7 L 499.6,375.1 L 512.4,370.5 L 534.1,367.1 L 555.1,361.8 L 574.2,354.5 L 584.7,347.0 L 588.7,338.1 L 589.3,328.4 L 585.8,318.7 L 577.0,309.9 L 569.1,307.1"/>

  <!-- Sector 3 - Yellow -->
  <path class="track sector3" d="M 569.1,307.1 L 527.9,302.1 L 486.4,302.2 L 442.3,307.5 L 405.0,316.9 L 381.9,324.2 L 356.5,333.6 L 332.1,344.0 L 312.3,355.7 L 305.0,358.8 L 299.8,357.8 L 295.0,351.1 L 289.8,341.3 L 282.6,336.9 L 273.5,336.5 L 264.5,340.7 L 259.8,347.1 L 257.6,354.1 L 259.8,368.1 L 279.7,484.7 L 280.2,492.5 L 278.0,500.5 L 274.4,507.2 L 271.0,511.6 L 262.5,517.3 L 253.5,519.4 L 215.1,520.0 L 207.3,519.6 L 195.9,517.8 L 184.1,514.0 L 174.4,509.5 L 161.5,499.4 L 153.1,488.2 L 147.4,478.5 L 143.2,465.5 L 141.9,454.1 L 143.1,435.5 L 146.6,422.3 L 201.9,288.0 L 204.9,281.0 L 204.9,281.0"/>

  <!-- Start/Finish Line -->
  <circle cx="204.9" cy="281.0" r="6" fill="#ffffff"/>

  <!-- Corner Numbers -->
  
    <!-- Turn 1 -->
    <circle cx="303.9" cy="80.0" r="10" fill="#27272a" stroke="#ef4444" stroke-width="2"/>
    <text x="303.9" y="84.0" text-anchor="middle" class="corner-num">1</text>

    <!-- Turn 2 -->
    <circle cx="291.1" cy="207.7" r="10" fill="#27272a" stroke="#ef4444" stroke-width="2"/>
    <text x="291.1" y="211.7" text-anchor="middle" class="corner-num">2</text>

    <!-- Turn 3 -->
    <circle cx="231.4" cy="283.3" r="10" fill="#27272a" stroke="#ef4444" stroke-width="2"/>
    <text x="231.4" y="287.3" text-anchor="middle" class="corner-num">3</text>

    <!-- Turn 4 -->
    <circle cx="392.9" cy="284.9" r="10" fill="#27272a" stroke="#ef4444" stroke-width="2"/>
    <text x="392.9" y="288.9" text-anchor="middle" class="corner-num">4</text>

    <!-- Turn 5 -->
    <circle cx="541.2" cy="248.4" r="10" fill="#27272a" stroke="#3b82f6" stroke-width="2"/>
    <text x="541.2" y="252.4" text-anchor="middle" class="corner-num">5</text>

    <!-- Turn 6 -->
    <circle cx="658.1" cy="305.9" r="10" fill="#27272a" stroke="#3b82f6" stroke-width="2"/>
    <text x="658.1" y="309.9" text-anchor="middle" class="corner-num">6</text>

    <!-- Turn 7 -->
    <circle cx="541.4" cy="437.8" r="10" fill="#27272a" stroke="#3b82f6" stroke-width="2"/>
    <text x="541.4" y="441.8" text-anchor="middle" class="corner-num">7</text>

    <!-- Turn 8 -->
    <circle cx="491.0" cy="380.7" r="10" fill="#27272a" stroke="#3b82f6" stroke-width="2"/>
    <text x="491.0" y="384.7" text-anchor="middle" class="corner-num">8</text>

    <!-- Turn 9 -->
    <circle cx="588.7" cy="338.1" r="10" fill="#27272a" stroke="#3b82f6" stroke-width="2"/>
    <text x="588.7" y="342.1" text-anchor="middle" class="corner-num">9</text>

    <!-- Turn 10 -->
    <circle cx="442.3" cy="307.5" r="10" fill="#27272a" stroke="#eab308" stroke-width="2"/>
    <text x="442.3" y="311.5" text-anchor="middle" class="corner-num">10</text>

    <!-- Turn 11 -->
    <circle cx="282.6" cy="336.9" r="10" fill="#27272a" stroke="#eab308" stroke-width="2"/>
    <text x="282.6" y="340.9" text-anchor="middle" class="corner-num">11</text>

    <!-- Turn 12 -->
    <circle cx="280.2" cy="492.5" r="10" fill="#27272a" stroke="#eab308" stroke-width="2"/>
    <text x="280.2" y="496.5" text-anchor="middle" class="corner-num">12</text>

    <!-- Turn 13 -->
    <circle cx="207.3" cy="519.6" r="10" fill="#27272a" stroke="#eab308" stroke-width="2"/>
    <text x="207.3" y="523.6" text-anchor="middle" class="corner-num">13</text>

    <!-- Turn 14 -->
    <circle cx="143.2" cy="465.5" r="10" fill="#27272a" stroke="#eab308" stroke-width="2"/>
    <text x="143.2" y="469.5" text-anchor="middle" class="corner-num">14</text>

  <!-- Legend -->
  <rect x="30" y="30" width="120" height="90" rx="6" fill="#27272a" stroke="#3f3f46"/>
  <line x1="45" y1="50" x2="75" y2="50" stroke="#ef4444" stroke-width="4"/>
  <text x="85" y="54" font-family="Arial, sans-serif" font-size="9px" fill="#ffffff">Sector 1</text>
  <line x1="45" y1="70" x2="75" y2="70" stroke="#3b82f6" stroke-width="4"/>
  <text x="85" y="74" font-family="Arial, sans-serif" font-size="9px" fill="#ffffff">Sector 2</text>
  <line x1="45" y1="90" x2="75" y2="90" stroke="#eab308" stroke-width="4"/>
  <text x="85" y="94" font-family="Arial, sans-serif" font-size="9px" fill="#ffffff">Sector 3</text>

  <!-- Circuit Name -->
  <text x="400" y="560" text-anchor="middle" font-family="Arial, sans-serif" font-size="18" font-weight="bold" fill="#ffffff">Circuit Zandvoort</text>
  <text x="400" y="580" text-anchor="middle" font-family="Arial, sans-serif" font-size="12" fill="#71717a">Zandvoort • 4.259 km • 14 Turns</text>
</svg>